SplineFontDB: 3.0
FontName: Nobile-italic
FullName: Nobile-italic
FamilyName: Nobile-italic
Weight: Light
Copyright: Copyright (c) 2007-2010 by vernon adams. All rights reserved.
Version: 1.000;PS 001.000;hotconv 1.0.38
ItalicAngle: -8
UnderlinePosition: -292
UnderlineWidth: 40
Ascent: 1638
Descent: 410
LayerCount: 2
Layer: 0 1 "Back"  1
Layer: 1 1 "Fore"  0
XUID: [1021 579 912382147 1516033]
FSType: 0
OS2Version: 2
OS2_WeightWidthSlopeOnly: 0
OS2_UseTypoMetrics: 1
CreationTime: 1275036755
ModificationTime: 1275172194
PfmFamily: 17
TTFWeight: 250
TTFWidth: 5
LineGap: 0
VLineGap: 0
Panose: 2 0 0 0 0 0 0 0 0 0
OS2TypoAscent: 0
OS2TypoAOffset: 1
OS2TypoDescent: 0
OS2TypoDOffset: 1
OS2TypoLinegap: 0
OS2WinAscent: 0
OS2WinAOffset: 1
OS2WinDescent: 0
OS2WinDOffset: 1
HheadAscent: 0
HheadAOffset: 1
HheadDescent: 0
HheadDOffset: 1
OS2SubXSize: 1434
OS2SubYSize: 1332
OS2SubXOff: 0
OS2SubYOff: 286
OS2SupXSize: 1434
OS2SupYSize: 1332
OS2SupXOff: 0
OS2SupYOff: 976
OS2StrikeYSize: 102
OS2StrikeYPos: 512
OS2Vendor: 'pyrs'
OS2CodePages: 00000001.00000000
OS2UnicodeRanges: 00000001.00000000.00000000.00000000
DEI: 91125
TtTable: prep
PUSHW_1
 511
SCANCTRL
PUSHB_1
 1
SCANTYPE
SVTCA[y-axis]
MPPEM
PUSHB_1
 8
LT
IF
PUSHB_2
 1
 1
INSTCTRL
EIF
PUSHB_2
 70
 6
CALL
IF
POP
PUSHB_1
 16
EIF
MPPEM
PUSHB_1
 20
GT
IF
POP
PUSHB_1
 128
EIF
SCVTCI
PUSHB_1
 6
CALL
NOT
IF
SVTCA[y-axis]
PUSHB_1
 5
DUP
RCVT
PUSHB_1
 3
CALL
WCVTP
PUSHB_1
 8
DUP
RCVT
PUSHB_3
 5
 71
 2
CALL
PUSHB_1
 3
CALL
WCVTP
PUSHB_1
 7
DUP
RCVT
PUSHB_3
 8
 56
 2
CALL
PUSHB_1
 3
CALL
WCVTP
PUSHB_1
 6
DUP
RCVT
PUSHB_3
 7
 24
 2
CALL
PUSHB_1
 3
CALL
WCVTP
PUSHB_1
 9
DUP
RCVT
PUSHB_3
 5
 149
 2
CALL
PUSHB_1
 3
CALL
WCVTP
PUSHB_1
 10
DUP
RCVT
PUSHB_3
 9
 86
 2
CALL
PUSHB_1
 3
CALL
WCVTP
PUSHB_1
 11
DUP
RCVT
PUSHB_3
 10
 55
 2
CALL
PUSHB_1
 3
CALL
WCVTP
PUSHB_1
 12
DUP
RCVT
PUSHB_3
 11
 16
 2
CALL
PUSHB_1
 3
CALL
WCVTP
SVTCA[x-axis]
PUSHB_1
 13
DUP
RCVT
PUSHB_1
 3
CALL
WCVTP
PUSHB_1
 15
DUP
RCVT
PUSHB_3
 13
 70
 2
CALL
PUSHB_2
 3
 70
SROUND

StartChar: exclam
Encoding: 33 33 4
Width: 591
GlyphClass: 2
Flags: W
HStem: -21 256<154.284 301.717> 1560 20G<327.413 541>
VStem: 112 232<21.0994 192.96>
LayerCount: 2
Fore
SplineSet
344 129 m 0,0,1
 344 71 344 71 303 25 c 128,-1,2
 262 -21 262 -21 212 -21 c 0,3,4
 168 -21 168 -21 140 10 c 128,-1,5
 112 41 112 41 112 87 c 0,6,7
 112 144 112 144 153 189.5 c 128,-1,8
 194 235 194 235 248 235 c 0,9,10
 289 235 289 235 316.5 204 c 128,-1,11
 344 173 344 173 344 129 c 0,0,1
314 400 m 1,12,-1
 214 400 l 1,13,-1
 304 1379 l 1,14,-1
 330 1580 l 1,15,-1
 541 1580 l 1,16,-1
 511 1377 l 1,17,-1
 314 400 l 1,12,-1
EndSplineSet
EndChar

StartChar: quotedbl
Encoding: 34 34 5
Width: 734
GlyphClass: 2
Flags: W
HStem: 1058 517<206 290 521 605>
VStem: 189 544
LayerCount: 2
Fore
SplineSet
516 1534 m 1,0,-1
 521 1575 l 1,1,-1
 733 1575 l 1,2,-1
 728 1534 l 1,3,-1
 605 1058 l 1,4,-1
 505 1058 l 1,5,-1
 516 1534 l 1,0,-1
200 1534 m 1,6,-1
 206 1575 l 1,7,-1
 418 1575 l 1,8,-1
 412 1534 l 1,9,-1
 290 1058 l 1,10,-1
 189 1058 l 1,11,-1
 200 1534 l 1,6,-1
EndSplineSet
EndChar

StartChar: numbersign
Encoding: 35 35 6
Width: 1208
GlyphClass: 2
Flags: W
HStem: 430 95<158 323 474 709 858 1025> 873 93<264 431 582 815 966 1121> 1314 18G<543.728 679 925.809 1063>
DStem2: 232 63 362 63 0.241997 0.970277<31.4596 378.113 506.831 834.082 960.859 1309.94> 616 63 748 63 0.240916 0.970546<31.8009 378.596 506.694 834.085 960.724 1307.51>
LayerCount: 2
Fore
SplineSet
709 430 m 1,0,-1
 455 430 l 1,1,-1
 362 63 l 1,2,-1
 232 63 l 1,3,-1
 323 430 l 1,4,-1
 139 430 l 1,5,-1
 158 525 l 1,6,-1
 342 525 l 1,7,-1
 431 873 l 1,8,-1
 243 873 l 1,9,-1
 264 966 l 1,10,-1
 452 966 l 1,11,-1
 549 1334 l 1,12,-1
 679 1334 l 1,13,-1
 582 966 l 1,14,-1
 836 966 l 1,15,-1
 931 1332 l 1,16,-1
 1063 1332 l 1,17,-1
 966 966 l 1,18,-1
 1144 966 l 1,19,-1
 1121 873 l 1,20,-1
 947 873 l 1,21,-1
 858 525 l 1,22,-1
 1042 525 l 1,23,-1
 1025 430 l 1,24,-1
 837 430 l 1,25,-1
 748 63 l 1,26,-1
 616 63 l 1,27,-1
 709 430 l 1,0,-1
474 525 m 1,28,-1
 724 525 l 1,29,-1
 815 873 l 1,30,-1
 565 873 l 1,31,-1
 474 525 l 1,28,-1
EndSplineSet
EndChar

StartChar: dollar
Encoding: 36 36 7
Width: 1118
GlyphClass: 2
Flags: W
HStem: -33 138<237.542 404 521 748.785> 575 153<619 716> 1113 21G<930 984.718> 1176 128<408.195 608 714 919.638>
VStem: 177 141<850.693 1100.28> 840 140<189.353 473.123>
DStem2: 195.5 169 145 37 0.918211 -0.396091<-44.4825 234.48> 378 -188 469 -188 0.16615 0.986101<15.1196 157.165 310.715 788.948 955.325 1383.26 1525.12 1667.17> 890.5 1276 930 1128 0.95073 -0.310021<-154.685 131.821>
LayerCount: 2
Fore
SplineSet
516 601 m 1,0,1
 438 634 438 634 381 668.5 c 128,-1,2
 324 703 324 703 275 748 c 128,-1,3
 226 793 226 793 201.5 851 c 128,-1,4
 177 909 177 909 177 979 c 0,5,6
 177 1114 177 1114 295 1208.5 c 128,-1,7
 413 1303 413 1303 630 1304 c 1,8,-1
 655 1456 l 1,9,-1
 740 1456 l 1,10,-1
 714 1302 l 1,11,12
 757 1302 757 1302 805 1294.5 c 128,-1,13
 853 1287 853 1287 890.5 1276 c 128,-1,14
 928 1265 928 1265 960 1254 c 128,-1,15
 992 1243 992 1243 1009.5 1236 c 128,-1,16
 1027 1229 1027 1229 1027 1230 c 2,17,-1
 976 1113 l 1,18,-1
 930 1128 l 2,19,20
 884 1143 884 1143 813 1158.5 c 128,-1,21
 742 1174 742 1174 693 1174 c 1,22,-1
 619 728 l 1,23,24
 727 683 727 683 791 648 c 128,-1,25
 855 613 855 613 900.5 567 c 128,-1,26
 946 521 946 521 963 466.5 c 128,-1,27
 980 412 980 412 980 333 c 0,28,29
 980 211 980 211 911.5 126 c 128,-1,30
 843 41 843 41 735.5 2.5 c 128,-1,31
 628 -36 628 -36 494 -36 c 1,32,-1
 469 -188 l 1,33,-1
 378 -188 l 1,34,-1
 404 -33 l 1,35,36
 383 -33 383 -33 359 -30 c 128,-1,37
 335 -27 335 -27 312 -21.5 c 128,-1,38
 289 -16 289 -16 265.5 -9 c 128,-1,39
 242 -2 242 -2 220.5 6 c 128,-1,40
 199 14 199 14 180 22 c 2,41,-1
 145 37 l 2,42,43
 129 44 129 44 118 50 c 1,44,-1
 100 58 l 1,45,-1
 93 61 l 1,46,-1
 157 192 l 2,47,48
 155 190 155 190 195.5 169 c 128,-1,49
 236 148 236 148 302.5 126 c 128,-1,50
 369 104 369 104 425 105 c 1,51,-1
 516 601 l 1,0,1
598 575 m 1,52,-1
 521 103 l 1,53,54
 679 103 679 103 759.5 156.5 c 128,-1,55
 840 210 840 210 840 334 c 0,56,57
 840 378 840 378 831 409.5 c 128,-1,58
 822 441 822 441 796.5 472 c 128,-1,59
 771 503 771 503 722 528 c 128,-1,60
 673 553 673 553 598 575 c 1,52,-1
537 754 m 1,61,-1
 608 1176 l 1,62,63
 478 1173 478 1173 398 1126.5 c 128,-1,64
 318 1080 318 1080 318 986 c 0,65,66
 318 928 318 928 332 893.5 c 128,-1,67
 346 859 346 859 394 824.5 c 128,-1,68
 442 790 442 790 537 754 c 1,61,-1
EndSplineSet
EndChar

StartChar: percent
Encoding: 37 37 8
Width: 1702
GlyphClass: 2
Flags: W
HStem: -23 111<1055.22 1282.71> 695 104<1126.85 1360.78> 762 104<343.186 567.766> 1476 103<417.846 645.512>
VStem: 182 120<906.272 1322.19> 684 113<1026.08 1434.46> 899 118<124.51 540.934> 1398 112<243.135 651.367>
DStem2: 363 -51 456 -92 0.449719 0.89317<5.20389 1914.53>
LayerCount: 2
Fore
SplineSet
1158 88 m 0,0,1
 1212 88 1212 88 1254 112 c 128,-1,2
 1296 136 1296 136 1321.5 177.5 c 128,-1,3
 1347 219 1347 219 1362 262.5 c 128,-1,4
 1377 306 1377 306 1384 356 c 0,5,6
 1398 452 1398 452 1398 510 c 0,7,8
 1398 595 1398 595 1365 645 c 128,-1,9
 1332 695 1332 695 1249 695 c 0,10,11
 1195 695 1195 695 1154.5 671 c 128,-1,12
 1114 647 1114 647 1089 602 c 128,-1,13
 1064 557 1064 557 1049.5 507 c 128,-1,14
 1035 457 1035 457 1026 392 c 0,15,16
 1017 320 1017 320 1017 279 c 0,17,18
 1017 88 1017 88 1158 88 c 0,0,1
676 1176 m 0,19,20
 684 1231 684 1231 684 1284 c 0,21,22
 684 1388 684 1388 646 1432 c 128,-1,23
 608 1476 608 1476 535 1476 c 0,24,25
 354 1476 354 1476 311 1176 c 0,26,27
 302 1113 302 1113 302 1064 c 0,28,29
 302 866 302 866 449 866 c 0,30,31
 633 866 633 866 676 1176 c 0,19,20
363 -51 m 1,32,-1
 1224 1659 l 1,33,-1
 1323 1614 l 1,34,-1
 456 -92 l 1,35,-1
 363 -51 l 1,32,-1
1510 502 m 0,36,37
 1510 410 1510 410 1488 319.5 c 128,-1,38
 1466 229 1466 229 1424.5 151 c 128,-1,39
 1383 73 1383 73 1315 25 c 128,-1,40
 1247 -23 1247 -23 1163 -23 c 0,41,42
 1089 -23 1089 -23 1035 2.5 c 128,-1,43
 981 28 981 28 952.5 72.5 c 128,-1,44
 924 117 924 117 911.5 167.5 c 128,-1,45
 899 218 899 218 899 278 c 0,46,47
 899 308 899 308 902.5 345 c 128,-1,48
 906 382 906 382 916 433.5 c 128,-1,49
 926 485 926 485 941.5 533.5 c 128,-1,50
 957 582 957 582 985 631.5 c 128,-1,51
 1013 681 1013 681 1049 717 c 128,-1,52
 1085 753 1085 753 1139 776 c 128,-1,53
 1193 799 1193 799 1257 799 c 0,54,55
 1328 799 1328 799 1379 775 c 128,-1,56
 1430 751 1430 751 1457.5 707.5 c 128,-1,57
 1485 664 1485 664 1497.5 613.5 c 128,-1,58
 1510 563 1510 563 1510 502 c 0,36,37
182 1071 m 0,59,60
 182 1107 182 1107 187.5 1150.5 c 128,-1,61
 193 1194 193 1194 206 1255 c 128,-1,62
 219 1316 219 1316 245.5 1370.5 c 128,-1,63
 272 1425 272 1425 309.5 1473 c 128,-1,64
 347 1521 347 1521 407.5 1550 c 128,-1,65
 468 1579 468 1579 542 1579 c 0,66,67
 613 1579 613 1579 664.5 1554.5 c 128,-1,68
 716 1530 716 1530 744 1486.5 c 128,-1,69
 772 1443 772 1443 784.5 1392.5 c 128,-1,70
 797 1342 797 1342 797 1281 c 0,71,72
 797 1225 797 1225 787.5 1162 c 128,-1,73
 778 1099 778 1099 752 1026 c 128,-1,74
 726 953 726 953 687.5 896 c 128,-1,75
 649 839 649 839 583 800.5 c 128,-1,76
 517 762 517 762 434 762 c 0,77,78
 362 762 362 762 310.5 789.5 c 128,-1,79
 259 817 259 817 232.5 864 c 128,-1,80
 206 911 206 911 194 962 c 128,-1,81
 182 1013 182 1013 182 1071 c 0,59,60
EndSplineSet
EndChar

StartChar: ampersand
Encoding: 38 38 9
Width: 1541
GlyphClass: 2
Flags: W
HStem: -39 132<393.996 905.881> -7 21G<1282.68 1320.43> 1310 135<575.383 882.509>
VStem: 110 155<205.631 520.562> 335 155<975.918 1225.06> 935 150<994.446 1261.24> 1275 134<621.622 752>
DStem2: 587 918 449 866.5 0.698662 -0.715452<-183.844 21.7748 209.44 763.857 915.23 1154.03>
LayerCount: 2
Fore
SplineSet
736 1310 m 0,0,1
 673 1310 673 1310 625.5 1291.5 c 128,-1,2
 578 1273 578 1273 553 1247 c 128,-1,3
 528 1221 528 1221 513 1188 c 128,-1,4
 498 1155 498 1155 494 1133 c 128,-1,5
 490 1111 490 1111 490 1093 c 0,6,7
 490 1073 490 1073 495.5 1052.5 c 128,-1,8
 501 1032 501 1032 511 1014 c 128,-1,9
 521 996 521 996 533 978.5 c 128,-1,10
 545 961 545 961 559 946 c 2,11,-1
 587 918 l 2,12,13
 601 905 601 905 613 895 c 128,-1,14
 625 885 625 885 635 878 c 128,-1,15
 645 871 645 871 650 867 c 2,16,-1
 656 863 l 1,17,18
 760 895 760 895 816.5 929.5 c 128,-1,19
 873 964 873 964 898 1006.5 c 128,-1,20
 923 1049 923 1049 933 1119 c 0,21,22
 935 1130 935 1130 935 1152 c 0,23,24
 935 1228 935 1228 881.5 1269 c 128,-1,25
 828 1310 828 1310 736 1310 c 0,0,1
335 1088 m 0,26,27
 335 1122 335 1122 346 1164 c 128,-1,28
 357 1206 357 1206 387 1257 c 128,-1,29
 417 1308 417 1308 461.5 1348.5 c 128,-1,30
 506 1389 506 1389 583 1417 c 128,-1,31
 660 1445 660 1445 755 1445 c 0,32,33
 916 1445 916 1445 1000.5 1369 c 128,-1,34
 1085 1293 1085 1293 1085 1168 c 0,35,36
 1085 1139 1085 1139 1081 1115 c 0,37,38
 1062 976 1062 976 980 896 c 128,-1,39
 898 816 898 816 726 761 c 1,40,-1
 1113 364 l 1,41,42
 1214 549 1214 549 1275 754 c 1,43,-1
 1409 752 l 1,44,45
 1374 628 1374 628 1322.5 508.5 c 128,-1,46
 1271 389 1271 389 1236 331 c 2,47,-1
 1202 273 l 1,48,-1
 1396 95 l 1,49,-1
 1302 -7 l 1,50,-1
 1131 170 l 1,51,52
 1060 49 1060 49 936.5 5 c 128,-1,53
 813 -39 813 -39 598 -39 c 0,54,55
 377 -39 377 -39 243.5 56 c 128,-1,56
 110 151 110 151 110 317 c 0,57,58
 110 419 110 419 152 515 c 128,-1,59
 194 611 194 611 286.5 692 c 128,-1,60
 379 773 379 773 510 812 c 1,61,62
 503 817 503 817 491 826.5 c 128,-1,63
 479 836 479 836 449 866.5 c 128,-1,64
 419 897 419 897 396 927.5 c 128,-1,65
 373 958 373 958 354 1002.5 c 128,-1,66
 335 1047 335 1047 335 1088 c 0,26,27
584 716 m 1,67,68
 444 685 444 685 354.5 585.5 c 128,-1,69
 265 486 265 486 265 354 c 128,-1,70
 265 222 265 222 360 157.5 c 128,-1,71
 455 93 455 93 617 93 c 0,72,73
 703 93 703 93 756 98 c 128,-1,74
 809 103 809 103 862 119.5 c 128,-1,75
 915 136 915 136 956 169 c 128,-1,76
 997 202 997 202 1039 256 c 1,77,-1
 584 716 l 1,67,68
EndSplineSet
EndChar

StartChar: quotesingle
Encoding: 39 39 10
Width: 515
GlyphClass: 2
Flags: W
HStem: 1030 542
LayerCount: 2
Fore
SplineSet
516 1572 m 1,0,-1
 276 1572 l 1,1,-1
 247 1030 l 1,2,-1
 345 1030 l 1,3,-1
 516 1572 l 1,0,-1
EndSplineSet
EndChar

StartChar: parenleft
Encoding: 40 40 11
Width: 794
GlyphClass: 2
Flags: W
HStem: 1580 20G<740 776.4>
VStem: 256 173<143.1 843.233>
LayerCount: 2
Fore
SplineSet
272 696 m 0,0,1
 291 830 291 830 328 952.5 c 128,-1,2
 365 1075 365 1075 409.5 1163.5 c 128,-1,3
 454 1252 454 1252 503.5 1327.5 c 128,-1,4
 553 1403 553 1403 598.5 1452 c 128,-1,5
 644 1501 644 1501 681 1535.5 c 128,-1,6
 718 1570 718 1570 740 1585 c 2,7,-1
 762 1600 l 1,8,-1
 834 1500 l 1,9,10
 822 1491 822 1491 800.5 1472.5 c 128,-1,11
 779 1454 779 1454 722 1384 c 128,-1,12
 665 1314 665 1314 617 1230 c 128,-1,13
 569 1146 569 1146 519 1002 c 128,-1,14
 469 858 469 858 446 694 c 0,15,16
 429 576 429 576 429 466 c 0,17,18
 429 351 429 351 447.5 249.5 c 128,-1,19
 466 148 466 148 492 86 c 128,-1,20
 518 24 518 24 544.5 -22 c 128,-1,21
 571 -68 571 -68 590 -87 c 2,22,-1
 608 -106 l 1,23,-1
 508 -204 l 1,24,25
 498 -196 498 -196 481 -181 c 128,-1,26
 464 -166 464 -166 420.5 -107 c 128,-1,27
 377 -48 377 -48 343.5 22.5 c 128,-1,28
 310 93 310 93 283 214 c 128,-1,29
 256 335 256 335 256 472 c 0,30,31
 256 578 256 578 272 696 c 0,0,1
EndSplineSet
EndChar

StartChar: parenright
Encoding: 41 41 12
Width: 794
GlyphClass: 2
Flags: W
HStem: 1580 20G<382 407>
VStem: 479 173<545.809 1251.67>
DStem2: 138 -48.5 229 -140 0.690226 0.723594<-84.0482 291.782>
LayerCount: 2
Fore
SplineSet
636 696 m 0,0,1
 617 562 617 562 580 439.5 c 128,-1,2
 543 317 543 317 499 229 c 128,-1,3
 455 141 455 141 405.5 66 c 128,-1,4
 356 -9 356 -9 311 -57.5 c 128,-1,5
 266 -106 266 -106 229 -140 c 128,-1,6
 192 -174 192 -174 170 -189 c 2,7,-1
 148 -204 l 1,8,-1
 76 -106 l 1,9,-1
 94 -92 l 2,10,11
 105 -83 105 -83 138 -48.5 c 128,-1,12
 171 -14 171 -14 202.5 26.5 c 128,-1,13
 234 67 234 67 275 136 c 128,-1,14
 316 205 316 205 350 282 c 128,-1,15
 384 359 384 359 414.5 467.5 c 128,-1,16
 445 576 445 576 462 694 c 0,17,18
 479 814 479 814 479 925 c 0,19,20
 479 1009 479 1009 469 1086.5 c 128,-1,21
 459 1164 459 1164 443.5 1220 c 128,-1,22
 428 1276 428 1276 409 1324.5 c 128,-1,23
 390 1373 390 1373 371.5 1404 c 128,-1,24
 353 1435 353 1435 337.5 1457.5 c 128,-1,25
 322 1480 322 1480 312 1490 c 2,26,-1
 302 1500 l 1,27,-1
 402 1600 l 1,28,29
 412 1592 412 1592 429 1576.5 c 128,-1,30
 446 1561 446 1561 489 1502 c 128,-1,31
 532 1443 532 1443 565 1372 c 128,-1,32
 598 1301 598 1301 625 1180 c 128,-1,33
 652 1059 652 1059 652 922 c 0,34,35
 652 814 652 814 636 696 c 0,0,1
EndSplineSet
EndChar

StartChar: asterisk
Encoding: 42 42 13
Width: 864
GlyphClass: 2
Flags: W
HStem: 1136 112<158 432 598 876>
DStem2: 234 872 322 816 0.566629 0.823973<3.72086 303.569 514.924 847.115> 588 1144 492 1063 0.338911 -0.940818<-429.745 -158.22 43.6708 293.861>
LayerCount: 2
Fore
SplineSet
492 1063 m 1,0,-1
 322 816 l 1,1,-1
 234 872 l 1,2,-1
 432 1144 l 1,3,-1
 142 1136 l 1,4,-1
 158 1248 l 1,5,-1
 446 1236 l 1,6,-1
 336 1510 l 1,7,-1
 442 1566 l 1,8,-1
 532 1292 l 1,9,-1
 714 1570 l 1,10,-1
 802 1514 l 1,11,-1
 598 1236 l 1,12,-1
 892 1248 l 1,13,-1
 876 1136 l 1,14,-1
 588 1144 l 1,15,-1
 700 872 l 1,16,-1
 586 816 l 1,17,-1
 492 1063 l 1,0,-1
EndSplineSet
EndChar

StartChar: plus
Encoding: 43 43 14
Width: 986
GlyphClass: 2
Flags: W
HStem: 518 134<172 444 594 866>
DStem2: 394 174 528 174 0.139173 0.990268<18.6492 347.611 501.183 830.423>
LayerCount: 2
Fore
SplineSet
866 518 m 1,0,-1
 576 518 l 1,1,-1
 528 174 l 1,2,-1
 394 174 l 1,3,-1
 444 518 l 1,4,-1
 154 518 l 1,5,-1
 172 652 l 1,6,-1
 462 652 l 1,7,-1
 512 996 l 1,8,-1
 642 996 l 1,9,-1
 594 652 l 1,10,-1
 886 652 l 1,11,-1
 866 518 l 1,0,-1
EndSplineSet
EndChar

StartChar: comma
Encoding: 44 44 15
Width: 573
GlyphClass: 2
Flags: W
HStem: -253 94<101.662 158.357>
VStem: 135 245<190.55 293>
LayerCount: 2
Fore
SplineSet
94 0 m 1,0,-1
 135 293 l 1,1,-1
 380 293 l 1,2,-1
 360 2 l 2,3,4
 356 -54 356 -54 337 -96 c 128,-1,5
 318 -138 318 -138 283 -167.5 c 128,-1,6
 248 -197 248 -197 207 -216.5 c 128,-1,7
 166 -236 166 -236 107 -253 c 1,8,-1
 72 -159 l 1,9,10
 145 -133 145 -133 175.5 -98.5 c 128,-1,11
 206 -64 206 -64 215 0 c 1,12,-1
 94 0 l 1,0,-1
EndSplineSet
EndChar

StartChar: hyphen
Encoding: 45 45 16
Width: 796
GlyphClass: 2
Flags: W
HStem: 508 130<176 704>
VStem: 158 564
LayerCount: 2
Fore
SplineSet
704 508 m 1,0,-1
 158 508 l 1,1,-1
 176 638 l 1,2,-1
 722 638 l 1,3,-1
 704 508 l 1,0,-1
EndSplineSet
EndChar

StartChar: period
Encoding: 46 46 17
Width: 493
GlyphClass: 2
Flags: W
HStem: -21 256<138.284 285.717>
VStem: 96 232<21.0994 192.96>
LayerCount: 2
Fore
SplineSet
328 129 m 0,0,1
 328 71 328 71 287 25 c 128,-1,2
 246 -21 246 -21 196 -21 c 0,3,4
 152 -21 152 -21 124 10 c 128,-1,5
 96 41 96 41 96 87 c 0,6,7
 96 144 96 144 137 189.5 c 128,-1,8
 178 235 178 235 232 235 c 0,9,10
 273 235 273 235 300.5 204 c 128,-1,11
 328 173 328 173 328 129 c 0,0,1
EndSplineSet
EndChar

StartChar: slash
Encoding: 47 47 18
Width: 946
GlyphClass: 2
Flags: W
DStem2: 96 -96 226 -162 0.420501 0.907292<0 2008.25>
LayerCount: 2
Fore
SplineSet
96 -96 m 1,0,-1
 932 1730 l 1,1,-1
 1076 1672 l 1,2,-1
 226 -162 l 1,3,-1
 96 -96 l 1,0,-1
EndSplineSet
EndChar

StartChar: zero
Encoding: 48 48 19
Width: 1303
GlyphClass: 2
Flags: W
HStem: -30 140<402.171 758.996> 1070 140<524.612 885.653>
VStem: 108 170<244.876 751.263> 1009 174<431.872 934.453>
LayerCount: 2
Fore
SplineSet
1000 592 m 0,0,1
 1009 660 1009 660 1009 723 c 0,2,3
 1009 1070 1009 1070 710 1070 c 0,4,5
 631 1070 631 1070 565.5 1044.5 c 128,-1,6
 500 1019 500 1019 454 975.5 c 128,-1,7
 408 932 408 932 373.5 870 c 128,-1,8
 339 808 339 808 319 739.5 c 128,-1,9
 299 671 299 671 288 592 c 0,10,11
 278 519 278 519 278 458 c 0,12,13
 278 385 278 385 292.5 325.5 c 128,-1,14
 307 266 307 266 339.5 216 c 128,-1,15
 372 166 372 166 431.5 138 c 128,-1,16
 491 110 491 110 574 110 c 128,-1,17
 657 110 657 110 725 138.5 c 128,-1,18
 793 167 793 167 838.5 213.5 c 128,-1,19
 884 260 884 260 918.5 324.5 c 128,-1,20
 953 389 953 389 971.5 454 c 128,-1,21
 990 519 990 519 1000 592 c 0,0,1
730 1210 m 0,22,23
 829 1210 829 1210 907.5 1182 c 128,-1,24
 986 1154 986 1154 1037 1108 c 128,-1,25
 1088 1062 1088 1062 1121.5 997 c 128,-1,26
 1155 932 1155 932 1169 862.5 c 128,-1,27
 1183 793 1183 793 1183 715 c 0,28,29
 1183 652 1183 652 1174 590 c 0,30,31
 1162 499 1162 499 1132 413 c 128,-1,32
 1102 327 1102 327 1050 246 c 128,-1,33
 998 165 998 165 929.5 104 c 128,-1,34
 861 43 861 43 764.5 6.5 c 128,-1,35
 668 -30 668 -30 556 -30 c 0,36,37
 460 -30 460 -30 383 -2.5 c 128,-1,38
 306 25 306 25 255.5 72 c 128,-1,39
 205 119 205 119 171 184 c 128,-1,40
 137 249 137 249 122.5 320 c 128,-1,41
 108 391 108 391 108 470 c 0,42,43
 108 528 108 528 116 590 c 0,44,45
 129 680 129 680 157 764.5 c 128,-1,46
 185 849 185 849 236 931.5 c 128,-1,47
 287 1014 287 1014 354 1074.5 c 128,-1,48
 421 1135 421 1135 518.5 1172.5 c 128,-1,49
 616 1210 616 1210 730 1210 c 0,22,23
EndSplineSet
EndChar

StartChar: one
Encoding: 49 49 20
Width: 831
GlyphClass: 2
Flags: W
HStem: 0 21G<303 469.803>
VStem: 203 428
DStem2: 203 1084 231 966 0.938963 0.344017<0 223.23> 303 0 467 0 0.139173 0.990268<22.8244 1066.32>
LayerCount: 2
Fore
SplineSet
303 0 m 1,0,-1
 451 1056 l 1,1,-1
 231 966 l 1,2,-1
 203 1084 l 1,3,-1
 435 1169 l 1,4,-1
 631 1170 l 1,5,-1
 467 0 l 1,6,-1
 303 0 l 1,0,-1
EndSplineSet
EndChar

StartChar: two
Encoding: 50 50 21
Width: 1102
GlyphClass: 2
Flags: W
HStem: 0 150<324 826> 1059 139<369.969 768.313>
VStem: 835 144<723.761 995.984>
DStem2: 274 262 324 150 0.791505 0.611162<-28.8749 678.546> 278 1116 317 993 0.916696 0.399585<0 253.29>
LayerCount: 2
Fore
SplineSet
592 508 m 1,0,1
 691 586 691 586 763 682 c 128,-1,2
 835 778 835 778 835 878 c 0,3,4
 835 965 835 965 773 1012 c 128,-1,5
 711 1059 711 1059 596 1059 c 0,6,7
 533 1059 533 1059 463.5 1042.5 c 128,-1,8
 394 1026 394 1026 356 1010 c 2,9,-1
 317 993 l 1,10,-1
 278 1116 l 1,11,12
 284 1119 284 1119 296 1124.5 c 128,-1,13
 308 1130 308 1130 346 1144.5 c 128,-1,14
 384 1159 384 1159 424 1169.5 c 128,-1,15
 464 1180 464 1180 522.5 1189 c 128,-1,16
 581 1198 581 1198 638 1198 c 0,17,18
 810 1198 810 1198 894.5 1112 c 128,-1,19
 979 1026 979 1026 979 878 c 0,20,21
 979 641 979 641 673 412 c 2,22,-1
 324 150 l 1,23,-1
 846 152 l 1,24,-1
 826 0 l 1,25,-1
 100 0 l 1,26,-1
 118 142 l 1,27,28
 173 187 173 187 274 262 c 1,29,-1
 592 508 l 1,0,1
EndSplineSet
EndChar

StartChar: three
Encoding: 51 51 22
Width: 1072
GlyphClass: 2
Flags: W
HStem: -198 148<210.95 652.785> 1057 149<375.26 788.919>
VStem: 771 166<70.0891 368.289> 841 157<734.237 1005.28>
DStem2: 145 21 148.5 -136 0.919279 -0.393607<0 279.097> 336 1147.5 313 992 0.917857 0.396911<-55.7412 183.481>
LayerCount: 2
Fore
SplineSet
515 614 m 1,0,1
 592 614 592 614 652 632.5 c 128,-1,2
 712 651 712 651 746.5 679 c 128,-1,3
 781 707 781 707 803.5 745 c 128,-1,4
 826 783 826 783 833.5 817.5 c 128,-1,5
 841 852 841 852 841 889 c 0,6,7
 841 978 841 978 781.5 1017.5 c 128,-1,8
 722 1057 722 1057 599 1057 c 0,9,10
 531 1057 531 1057 459.5 1040.5 c 128,-1,11
 388 1024 388 1024 350 1008 c 2,12,-1
 313 992 l 1,13,-1
 285 1125 l 1,14,15
 304 1134 304 1134 336 1147.5 c 128,-1,16
 368 1161 368 1161 457.5 1183.5 c 128,-1,17
 547 1206 547 1206 625 1206 c 0,18,19
 676 1206 676 1206 723.5 1199 c 128,-1,20
 771 1192 771 1192 822.5 1172.5 c 128,-1,21
 874 1153 874 1153 911.5 1122.5 c 128,-1,22
 949 1092 949 1092 973.5 1040.5 c 128,-1,23
 998 989 998 989 998 923 c 0,24,25
 998 835 998 835 965.5 760 c 128,-1,26
 933 685 933 685 884 640 c 128,-1,27
 835 595 835 595 781 570 c 128,-1,28
 727 545 727 545 680 545 c 1,29,30
 722 536 722 536 761 518 c 128,-1,31
 800 500 800 500 842.5 466 c 128,-1,32
 885 432 885 432 911 373 c 128,-1,33
 937 314 937 314 937 237 c 0,34,35
 937 150 937 150 908 76.5 c 128,-1,36
 879 3 879 3 830.5 -46.5 c 128,-1,37
 782 -96 782 -96 718 -131 c 128,-1,38
 654 -166 654 -166 585 -182 c 128,-1,39
 516 -198 516 -198 445 -198 c 0,40,41
 385 -198 385 -198 325.5 -188 c 128,-1,42
 266 -178 266 -178 224 -164 c 128,-1,43
 182 -150 182 -150 148.5 -136 c 128,-1,44
 115 -122 115 -122 98 -112 c 2,45,-1
 82 -102 l 1,46,-1
 145 21 l 1,47,48
 163 13 163 13 193.5 1 c 128,-1,49
 224 -11 224 -11 309.5 -30.5 c 128,-1,50
 395 -50 395 -50 469 -50 c 0,51,52
 555 -50 555 -50 617 -23.5 c 128,-1,53
 679 3 679 3 711 47 c 128,-1,54
 743 91 743 91 757 137 c 128,-1,55
 771 183 771 183 771 234 c 0,56,57
 771 438 771 438 495 471 c 1,58,-1
 515 614 l 1,0,1
EndSplineSet
EndChar

StartChar: four
Encoding: 52 52 23
Width: 1219
GlyphClass: 2
Flags: W
HStem: 68 129<295 749 919 1067>
DStem2: 127 204 295 197 0.612522 0.790453<97.3706 1063.99> 697 -286 849.065 -286 0.139173 0.990268<49.4385 357.792 511.176 1264.57>
LayerCount: 2
Fore
SplineSet
905 1208 m 1,0,-1
 1055 1170 l 1,1,-1
 919 199 l 1,2,-1
 1087 199 l 1,3,-1
 1067 68 l 1,4,-1
 899 68 l 1,5,-1
 853 -258 l 1,6,-1
 697 -286 l 1,7,-1
 749 68 l 1,8,-1
 135 68 l 1,9,-1
 127 204 l 1,10,-1
 905 1208 l 1,0,-1
767 197 m 1,11,-1
 882 965 l 1,12,-1
 295 197 l 1,13,-1
 767 197 l 1,11,-1
EndSplineSet
EndChar

StartChar: five
Encoding: 53 53 24
Width: 1220
GlyphClass: 2
Flags: W
HStem: -206 148<172.369 655.819> 540 152<450.029 753.56> 1022 150<445 993>
VStem: 834 144<118.945 462.441>
DStem2: 219 564 361 612 0.184289 0.982872<73.3468 491.805>
LayerCount: 2
Fore
SplineSet
978 329 m 0,0,1
 978 89 978 89 828 -58.5 c 128,-1,2
 678 -206 678 -206 437 -206 c 0,3,4
 344 -206 344 -206 262 -187.5 c 128,-1,5
 180 -169 180 -169 144 -150 c 2,6,-1
 109 -132 l 1,7,-1
 123 8 l 1,8,9
 137 1 137 1 163.5 -10 c 128,-1,10
 190 -21 190 -21 277.5 -39.5 c 128,-1,11
 365 -58 365 -58 459 -58 c 0,12,13
 634 -58 634 -58 734 42.5 c 128,-1,14
 834 143 834 143 834 312 c 0,15,16
 834 540 834 540 583 540 c 0,17,18
 501 540 501 540 424 520.5 c 128,-1,19
 347 501 347 501 313 484 c 1,20,-1
 219 564 l 1,21,-1
 333 1172 l 1,22,-1
 1011 1172 l 1,23,-1
 993 1022 l 1,24,-1
 445 1022 l 1,25,-1
 361 612 l 1,26,27
 364 613 364 613 407 630.5 c 128,-1,28
 450 648 450 648 481.5 659 c 128,-1,29
 513 670 513 670 563 681 c 128,-1,30
 613 692 613 692 655 692 c 0,31,32
 817 692 817 692 897.5 597 c 128,-1,33
 978 502 978 502 978 329 c 0,0,1
EndSplineSet
EndChar

StartChar: six
Encoding: 54 54 25
Width: 1200
GlyphClass: 2
Flags: W
HStem: -156 142<406.438 733.012> 657 136<506.856 832.577> 1174 145<824.498 948.879>
VStem: 146 163<91.0566 285 413.5 521.835> 920 164<200.631 572.227>
LayerCount: 2
Fore
SplineSet
920 408 m 0,0,1
 920 337 920 337 899.5 266 c 128,-1,2
 879 195 879 195 838 131 c 128,-1,3
 797 67 797 67 726 26.5 c 128,-1,4
 655 -14 655 -14 564 -14 c 0,5,6
 309 -14 309 -14 309 284 c 0,7,8
 309 341 309 341 319.5 413.5 c 128,-1,9
 330 486 330 486 341 523 c 1,10,11
 374 558 374 558 477 607.5 c 128,-1,12
 580 657 580 657 690 657 c 0,13,14
 790 657 790 657 855 595.5 c 128,-1,15
 920 534 920 534 920 408 c 0,0,1
544 -156 m 0,16,17
 653 -156 653 -156 745 -119.5 c 128,-1,18
 837 -83 837 -83 898 -24 c 128,-1,19
 959 35 959 35 1002 111.5 c 128,-1,20
 1045 188 1045 188 1064.5 265.5 c 128,-1,21
 1084 343 1084 343 1084 419 c 0,22,23
 1084 589 1084 589 985.5 691 c 128,-1,24
 887 793 887 793 709 793 c 0,25,26
 506 793 506 793 372 649 c 1,27,28
 401 743 401 743 453.5 824.5 c 128,-1,29
 506 906 506 906 566.5 963 c 128,-1,30
 627 1020 627 1020 699 1064.5 c 128,-1,31
 771 1109 771 1109 836 1134.5 c 128,-1,32
 901 1160 901 1160 966 1174 c 1,33,-1
 947 1319 l 1,34,35
 836 1292 836 1292 732.5 1242 c 128,-1,36
 629 1192 629 1192 533 1113.5 c 128,-1,37
 437 1035 437 1035 361 936 c 128,-1,38
 285 837 285 837 231 705.5 c 128,-1,39
 177 574 177 574 156 425 c 0,40,41
 146 355 146 355 146 285 c 0,42,43
 146 78 146 78 246 -39 c 128,-1,44
 346 -156 346 -156 544 -156 c 0,16,17
EndSplineSet
EndChar

StartChar: seven
Encoding: 55 55 26
Width: 1119
GlyphClass: 2
Flags: W
HStem: 1020 150<242 872>
DStem2: 158 -160 304 -236 0.504959 0.863143<8.12513 1379.05>
LayerCount: 2
Fore
SplineSet
1020 1170 m 1,0,-1
 1054 1046 l 1,1,-1
 304 -236 l 1,2,-1
 158 -160 l 1,3,-1
 738 796 l 1,4,-1
 872 1020 l 1,5,-1
 666 1020 l 1,6,-1
 224 1020 l 1,7,-1
 242 1170 l 1,8,-1
 1020 1170 l 1,0,-1
EndSplineSet
EndChar

StartChar: eight
Encoding: 56 56 27
Width: 1318
GlyphClass: 2
Flags: W
HStem: -140 149<380.074 774.163> 1208 136<554.936 915.846>
VStem: 145 174<68.2148 383.974> 278 156<771.858 1087.25> 897 168<126.334 478.753> 981 156<839.474 1143.73>
LayerCount: 2
Fore
SplineSet
1137 1030 m 0,0,1
 1137 966 1137 966 1121 910.5 c 128,-1,2
 1105 855 1105 855 1080 816.5 c 128,-1,3
 1055 778 1055 778 1024.5 746.5 c 128,-1,4
 994 715 994 715 963.5 696 c 128,-1,5
 933 677 933 677 908 664.5 c 128,-1,6
 883 652 883 652 867 647 c 2,7,-1
 851 642 l 1,8,9
 860 640 860 640 874.5 634.5 c 128,-1,10
 889 629 889 629 925.5 604.5 c 128,-1,11
 962 580 962 580 990.5 547.5 c 128,-1,12
 1019 515 1019 515 1042 454 c 128,-1,13
 1065 393 1065 393 1065 319 c 0,14,15
 1065 203 1065 203 1022.5 113 c 128,-1,16
 980 23 980 23 906.5 -31 c 128,-1,17
 833 -85 833 -85 742.5 -112.5 c 128,-1,18
 652 -140 652 -140 549 -140 c 0,19,20
 466 -140 466 -140 395 -121 c 128,-1,21
 324 -102 324 -102 267 -65 c 128,-1,22
 210 -28 210 -28 177.5 35 c 128,-1,23
 145 98 145 98 145 179 c 0,24,25
 145 210 145 210 149 238 c 0,26,27
 159 307 159 307 182 366 c 128,-1,28
 205 425 205 425 233.5 465 c 128,-1,29
 262 505 262 505 295 537.5 c 128,-1,30
 328 570 328 570 358.5 589 c 128,-1,31
 389 608 389 608 414 620.5 c 128,-1,32
 439 633 439 633 454 638 c 2,33,-1
 469 642 l 1,34,-1
 462 644 l 1,35,-1
 444 652 l 2,36,37
 433 656 433 656 418.5 663.5 c 128,-1,38
 404 671 404 671 388.5 683 c 128,-1,39
 373 695 373 695 357 709.5 c 128,-1,40
 341 724 341 724 327 745 c 128,-1,41
 313 766 313 766 302 790 c 128,-1,42
 291 814 291 814 284.5 846 c 128,-1,43
 278 878 278 878 278 913 c 0,44,45
 278 979 278 979 296 1040.5 c 128,-1,46
 314 1102 314 1102 352.5 1157.5 c 128,-1,47
 391 1213 391 1213 446.5 1254.5 c 128,-1,48
 502 1296 502 1296 582 1320 c 128,-1,49
 662 1344 662 1344 757 1344 c 0,50,51
 933 1344 933 1344 1035 1261 c 128,-1,52
 1137 1178 1137 1178 1137 1030 c 0,0,1
566 9 m 0,53,54
 640 9 640 9 696 22.5 c 128,-1,55
 752 36 752 36 799.5 69 c 128,-1,56
 847 102 847 102 872 165.5 c 128,-1,57
 897 229 897 229 897 321 c 0,58,59
 897 548 897 548 651 582 c 1,60,61
 588 573 588 573 536.5 552.5 c 128,-1,62
 485 532 485 532 451.5 506 c 128,-1,63
 418 480 418 480 392.5 445.5 c 128,-1,64
 367 411 367 411 353.5 379.5 c 128,-1,65
 340 348 340 348 331.5 312 c 128,-1,66
 323 276 323 276 321 251 c 128,-1,67
 319 226 319 226 319 201 c 0,68,69
 319 97 319 97 380.5 53 c 128,-1,70
 442 9 442 9 566 9 c 0,53,54
741 1208 m 0,71,72
 670 1208 670 1208 615 1190 c 128,-1,73
 560 1172 560 1172 526.5 1143.5 c 128,-1,74
 493 1115 493 1115 471.5 1074.5 c 128,-1,75
 450 1034 450 1034 442 994 c 128,-1,76
 434 954 434 954 434 909 c 0,77,78
 434 806 434 806 492 759.5 c 128,-1,79
 550 713 550 713 671 698 c 1,80,81
 779 713 779 713 840 746 c 1,82,83
 981 825 981 825 981 1017 c 0,84,85
 981 1208 981 1208 741 1208 c 0,71,72
EndSplineSet
EndChar

StartChar: nine
Encoding: 57 57 28
Width: 1163
GlyphClass: 2
Flags: W
HStem: -161 145<292.023 416.249> 365 136<407.733 735.413> 1172 142<508.533 833.562>
VStem: 156 164<585.758 957.272> 931 163<636.165 744.5 873 1066.94>
LayerCount: 2
Fore
SplineSet
320 749 m 0,0,1
 320 804 320 804 332.5 861 c 128,-1,2
 345 918 345 918 372.5 974.5 c 128,-1,3
 400 1031 400 1031 440.5 1074.5 c 128,-1,4
 481 1118 481 1118 542 1145 c 128,-1,5
 603 1172 603 1172 676 1172 c 0,6,7
 931 1172 931 1172 931 874 c 0,8,9
 931 817 931 817 920.5 744.5 c 128,-1,10
 910 672 910 672 899 635 c 1,11,12
 866 600 866 600 763 550.5 c 128,-1,13
 660 501 660 501 550 501 c 0,14,15
 451 501 451 501 385.5 562.5 c 128,-1,16
 320 624 320 624 320 749 c 0,0,1
696 1314 m 0,17,18
 587 1314 587 1314 495 1277.5 c 128,-1,19
 403 1241 403 1241 342 1182 c 128,-1,20
 281 1123 281 1123 238 1046.5 c 128,-1,21
 195 970 195 970 175.5 892.5 c 128,-1,22
 156 815 156 815 156 739 c 0,23,24
 156 569 156 569 254.5 467 c 128,-1,25
 353 365 353 365 531 365 c 0,26,27
 736 365 736 365 869 509 c 1,28,29
 840 415 840 415 787.5 333.5 c 128,-1,30
 735 252 735 252 674 195 c 128,-1,31
 613 138 613 138 541 93.5 c 128,-1,32
 469 49 469 49 404 23.5 c 128,-1,33
 339 -2 339 -2 274 -16 c 1,34,-1
 294 -161 l 1,35,36
 405 -134 405 -134 508.5 -84 c 128,-1,37
 612 -34 612 -34 708 44.5 c 128,-1,38
 804 123 804 123 879.5 222 c 128,-1,39
 955 321 955 321 1009 452.5 c 128,-1,40
 1063 584 1063 584 1084 733 c 0,41,42
 1094 803 1094 803 1094 873 c 0,43,44
 1094 1080 1094 1080 994 1197 c 128,-1,45
 894 1314 894 1314 696 1314 c 0,17,18
EndSplineSet
EndChar

StartChar: colon
Encoding: 58 58 29
Width: 710
GlyphClass: 2
Flags: W
HStem: 0 264<198 414> 612 264<288 504>
VStem: 156 390
DStem2: 156 0 414 0 0.139173 0.990268<35.9067 267.276 654.476 885.846>
LayerCount: 2
Fore
SplineSet
198 264 m 1,0,-1
 456 264 l 1,1,-1
 414 0 l 1,2,-1
 156 0 l 1,3,-1
 198 264 l 1,0,-1
288 876 m 1,4,-1
 546 876 l 1,5,-1
 504 612 l 1,6,-1
 246 612 l 1,7,-1
 288 876 l 1,4,-1
EndSplineSet
EndChar

StartChar: semicolon
Encoding: 59 59 30
Width: 740
GlyphClass: 2
Flags: W
HStem: -253 94<191.662 248.357> 612 264<288 504>
VStem: 225 245<190.55 293>
LayerCount: 2
Fore
SplineSet
184 0 m 1,0,-1
 225 293 l 1,1,-1
 470 293 l 1,2,-1
 450 2 l 2,3,4
 446 -54 446 -54 427 -96 c 128,-1,5
 408 -138 408 -138 373 -167.5 c 128,-1,6
 338 -197 338 -197 297 -216.5 c 128,-1,7
 256 -236 256 -236 197 -253 c 1,8,-1
 162 -159 l 1,9,10
 235 -133 235 -133 265.5 -98.5 c 128,-1,11
 296 -64 296 -64 305 0 c 1,12,-1
 184 0 l 1,0,-1
288 876 m 1,13,-1
 546 876 l 1,14,-1
 504 612 l 1,15,-1
 246 612 l 1,16,-1
 288 876 l 1,13,-1
EndSplineSet
EndChar

StartChar: less
Encoding: 60 60 31
Width: 981
GlyphClass: 2
Flags: W
VStem: 240 646
DStem2: 404 577 240 481 0.8015 -0.597994<0 470.202> 266 666 404 577 0.850762 0.525551<70.6311 602.129>
LayerCount: 2
Fore
SplineSet
857 855 m 1,0,-1
 404 577 l 1,1,-1
 781 296 l 1,2,-1
 752 99 l 1,3,-1
 240 481 l 1,4,-1
 266 666 l 1,5,-1
 886 1049 l 1,6,-1
 857 855 l 1,0,-1
EndSplineSet
EndChar

StartChar: equal
Encoding: 61 61 32
Width: 917
GlyphClass: 2
Flags: W
HStem: 280 131<183 712> 508 131<215 744>
VStem: 165 597
LayerCount: 2
Fore
SplineSet
744 508 m 1,0,-1
 197 508 l 1,1,-1
 215 639 l 1,2,-1
 762 639 l 1,3,-1
 744 508 l 1,0,-1
712 280 m 1,4,-1
 165 280 l 1,5,-1
 183 411 l 1,6,-1
 730 411 l 1,7,-1
 712 280 l 1,4,-1
EndSplineSet
EndChar

StartChar: greater
Encoding: 62 62 33
Width: 913
GlyphClass: 2
Flags: W
DStem2: 205 306 176 99 0.851375 0.524557<0 511.127> 310 1049 281 842 0.80075 -0.598999<100.771 546.773>
LayerCount: 2
Fore
SplineSet
281 842 m 1,0,-1
 639 576 l 1,1,-1
 205 306 l 1,2,-1
 176 99 l 1,3,-1
 796 481 l 1,4,-1
 822 666 l 1,5,-1
 310 1049 l 1,6,-1
 281 842 l 1,0,-1
EndSplineSet
EndChar

StartChar: question
Encoding: 63 63 34
Width: 1046
GlyphClass: 2
Flags: W
HStem: -28 208<228.103 364.542> 1364 152<406.009 811.407>
VStem: 201 195<10.1584 153.7> 868 167<1035.54 1309.88>
DStem2: 221.34 -28 369.34 -28 0.139173 0.990268<355.86 635.576> 265 1424 322 1282 0.92711 0.374789<0 306.808> 519.5 773.5 612.5 652.5 0.86206 0.506807<-147.281 333.42>
LayerCount: 2
Fore
SplineSet
389 1312 m 1,0,1
 502 1364 502 1364 624 1364 c 0,2,3
 752 1364 752 1364 810 1321 c 128,-1,4
 868 1278 868 1278 868 1192 c 0,5,6
 868 1178 868 1178 864 1144 c 0,7,8
 856 1088 856 1088 821.5 1032.5 c 128,-1,9
 787 977 787 977 738.5 932 c 128,-1,10
 690 887 690 887 632.5 845.5 c 128,-1,11
 575 804 575 804 519.5 773.5 c 128,-1,12
 464 743 464 743 418 720 c 128,-1,13
 372 697 372 697 344 686 c 2,14,-1
 316 674 l 1,15,-1
 268 304 l 1,16,-1
 416 304 l 1,17,-1
 462 580 l 1,18,-1
 483 589 l 2,19,20
 504 598 504 598 536.5 613.5 c 128,-1,21
 569 629 569 629 612.5 652.5 c 128,-1,22
 656 676 656 676 703 707.5 c 128,-1,23
 750 739 750 739 797.5 776.5 c 128,-1,24
 845 814 845 814 887.5 861.5 c 128,-1,25
 930 909 930 909 963 960.5 c 128,-1,26
 996 1012 996 1012 1015.5 1075.5 c 128,-1,27
 1035 1139 1035 1139 1035 1205 c 0,28,29
 1035 1272 1035 1272 1015.5 1325.5 c 128,-1,30
 996 1379 996 1379 952.5 1423 c 128,-1,31
 909 1467 909 1467 831 1491.5 c 128,-1,32
 753 1516 753 1516 644 1516 c 0,33,34
 575 1516 575 1516 494 1500 c 128,-1,35
 413 1484 413 1484 359 1462 c 2,36,-1
 265 1424 l 1,37,-1
 322 1282 l 1,38,-1
 389 1312 l 1,0,1
201 59 m 0,39,40
 201 106 201 106 234 143 c 128,-1,41
 267 180 267 180 312 180 c 0,42,43
 353 180 353 180 374.5 154.5 c 128,-1,44
 396 129 396 129 396 92 c 0,45,46
 396 46 396 46 365.5 9 c 128,-1,47
 335 -28 335 -28 284 -28 c 0,48,49
 249 -28 249 -28 225 -3 c 128,-1,50
 201 22 201 22 201 59 c 0,39,40
EndSplineSet
EndChar

StartChar: at
Encoding: 64 64 35
Width: 1844
GlyphClass: 2
Flags: W
HStem: -130 134<574.645 1124.38> 198 132<645.01 923.215 1206 1378.02> 988 108<1063.48 1222> 1008 120<875.936 1220.93> 1316 134<800.034 1313.18>
VStem: 137 147<269.281 747.726> 454 144<376.16 718.653> 1572 149<599.164 1085.44>
DStem2: 1100 330 1206 318 0.224646 0.97444<12.1192 171.192> 1166 750 1360 986 0.224646 0.97444<-263.834 244.497> 1314 142 1373.5 47 0.747409 0.664364<-183.932 12.8556>
LayerCount: 2
Fore
SplineSet
1062 1008 m 0,0,1
 896 1008 896 1008 761.5 883.5 c 128,-1,2
 627 759 627 759 602 574 c 0,3,4
 598 545 598 545 598 512 c 0,5,6
 598 330 598 330 778 330 c 0,7,8
 1057 330 1057 330 1166 750 c 1,9,-1
 1222 988 l 1,10,11
 1220 988 1220 988 1193.5 993 c 128,-1,12
 1167 998 1167 998 1129 1003 c 128,-1,13
 1091 1008 1091 1008 1062 1008 c 0,0,1
146 592 m 0,14,15
 172 776 172 776 257 937 c 128,-1,16
 342 1098 342 1098 464.5 1210 c 128,-1,17
 587 1322 587 1322 741 1386 c 128,-1,18
 895 1450 895 1450 1056 1450 c 0,19,20
 1252 1450 1252 1450 1400.5 1386 c 128,-1,21
 1549 1322 1549 1322 1635 1191 c 128,-1,22
 1721 1060 1721 1060 1721 877 c 0,23,24
 1721 819 1721 819 1712 756 c 0,25,26
 1693 621 1693 621 1644.5 516.5 c 128,-1,27
 1596 412 1596 412 1539.5 354 c 128,-1,28
 1483 296 1483 296 1414 259.5 c 128,-1,29
 1345 223 1345 223 1293 211.5 c 128,-1,30
 1241 200 1241 200 1194 200 c 0,31,32
 1141 201 1141 201 1119 224.5 c 128,-1,33
 1097 248 1097 248 1097 292 c 0,34,35
 1097 310 1097 310 1100 330 c 0,36,37
 1103 352 1103 352 1142 496 c 1,38,-1
 1132 498 l 1,39,40
 1130 492 1130 492 1126 481 c 128,-1,41
 1122 470 1122 470 1106.5 439 c 128,-1,42
 1091 408 1091 408 1072 379.5 c 128,-1,43
 1053 351 1053 351 1020 316.5 c 128,-1,44
 987 282 987 282 949 257 c 128,-1,45
 911 232 911 232 856 215 c 128,-1,46
 801 198 801 198 740 198 c 0,47,48
 606 198 606 198 530 281.5 c 128,-1,49
 454 365 454 365 454 510 c 0,50,51
 454 548 454 548 460 590 c 0,52,53
 473 688 473 688 527 784.5 c 128,-1,54
 581 881 581 881 660.5 957 c 128,-1,55
 740 1033 740 1033 846 1080.5 c 128,-1,56
 952 1128 952 1128 1062 1128 c 0,57,58
 1109 1128 1109 1128 1213.5 1112 c 128,-1,59
 1318 1096 1318 1096 1324 1096 c 1,60,-1
 1360 986 l 1,61,-1
 1206 318 l 1,62,63
 1242 318 1242 318 1277.5 326 c 128,-1,64
 1313 334 1313 334 1359.5 362 c 128,-1,65
 1406 390 1406 390 1443.5 435 c 128,-1,66
 1481 480 1481 480 1514.5 563.5 c 128,-1,67
 1548 647 1548 647 1564 758 c 0,68,69
 1572 811 1572 811 1572 870 c 0,70,71
 1572 1093 1572 1093 1433 1204.5 c 128,-1,72
 1294 1316 1294 1316 1044 1316 c 0,73,74
 896 1316 896 1316 763.5 1256.5 c 128,-1,75
 631 1197 631 1197 535.5 1096.5 c 128,-1,76
 440 996 440 996 376 864.5 c 128,-1,77
 312 733 312 733 292 588 c 0,78,79
 284 530 284 530 284 484 c 0,80,81
 284 262 284 262 430.5 133 c 128,-1,82
 577 4 577 4 848 4 c 0,83,84
 940 4 940 4 1023.5 20 c 128,-1,85
 1107 36 1107 36 1161 58.5 c 128,-1,86
 1215 81 1215 81 1255.5 103.5 c 128,-1,87
 1296 126 1296 126 1314 142 c 2,88,-1
 1332 158 l 1,89,90
 1376 92 1376 92 1394 68 c 1,91,92
 1387 60 1387 60 1373.5 47 c 128,-1,93
 1360 34 1360 34 1310 0.5 c 128,-1,94
 1260 -33 1260 -33 1200 -59 c 128,-1,95
 1140 -85 1140 -85 1038 -107 c 128,-1,96
 936 -129 936 -129 822 -130 c 1,97,98
 510 -130 510 -130 323.5 30 c 128,-1,99
 137 190 137 190 137 470 c 0,100,101
 137 529 137 529 146 592 c 0,14,15
EndSplineSet
EndChar

StartChar: A
Encoding: 65 65 36
Width: 1467
GlyphClass: 2
Flags: W
HStem: 0 21G<3 205.475 1085.05 1263> 387 104<403 1014> 1554 20G<698.055 999.393>
DStem2: 3 0 197 0 0.40829 0.912852<79.2082 499.442 611.526 611.526 1454.76 1611.86> 707 1574 740 1264 0.40829 0.912852<-1645.06 -1224.82 -1112.74 0> 996 1574 842 1521 0.167242 -0.985916<26.4982 1070.76 1176.14 1567.22>
LayerCount: 2
Fore
SplineSet
1031 387 m 1,0,-1
 361 387 l 1,1,-1
 197 0 l 1,2,-1
 3 0 l 1,3,-1
 707 1574 l 1,4,-1
 996 1574 l 1,5,-1
 1263 0 l 1,6,-1
 1088 0 l 1,7,-1
 1031 387 l 1,0,-1
842 1521 m 1,8,-1
 740 1264 l 1,9,-1
 403 491 l 1,10,-1
 1014 491 l 1,11,-1
 882 1272 l 1,12,-1
 842 1521 l 1,8,-1
EndSplineSet
EndChar

StartChar: B
Encoding: 66 66 37
Width: 1349
GlyphClass: 2
Flags: W
HStem: 0 144<302 873.641> 786 130<410 914.857> 1436 138<484 1020.77>
VStem: 1077 168<323.714 685.11> 1115 156<1053.69 1359.33>
DStem2: 100 0 281.762 0 0.139173 0.990268<170.712 818.989 950.229 1475.47>
LayerCount: 2
Fore
SplineSet
683 916 m 2,0,1
 760 916 760 916 821.5 923.5 c 128,-1,2
 883 931 883 931 939 951.5 c 128,-1,3
 995 972 995 972 1033 1004 c 128,-1,4
 1071 1036 1071 1036 1093 1088 c 128,-1,5
 1115 1140 1115 1140 1115 1208 c 2,6,-1
 1115 1244 l 2,7,8
 1115 1352 1115 1352 1019 1394 c 128,-1,9
 923 1436 923 1436 675 1436 c 2,10,-1
 484 1436 l 1,11,-1
 410 916 l 1,12,-1
 683 916 l 2,0,1
543 144 m 2,13,14
 610 144 610 144 661.5 147 c 128,-1,15
 713 150 713 150 771 160 c 128,-1,16
 829 170 829 170 871.5 187 c 128,-1,17
 914 204 914 204 954.5 233.5 c 128,-1,18
 995 263 995 263 1020.5 303 c 128,-1,19
 1046 343 1046 343 1061.5 401 c 128,-1,20
 1077 459 1077 459 1077 532 c 0,21,22
 1077 675 1077 675 979 730.5 c 128,-1,23
 881 786 881 786 669 786 c 2,24,-1
 392 786 l 1,25,-1
 302 144 l 1,26,-1
 543 144 l 2,13,14
1245 528 m 0,27,28
 1245 405 1245 405 1207 311.5 c 128,-1,29
 1169 218 1169 218 1104.5 159.5 c 128,-1,30
 1040 101 1040 101 945.5 64.5 c 128,-1,31
 851 28 851 28 749.5 14 c 128,-1,32
 648 0 648 0 523 0 c 2,33,-1
 100 0 l 1,34,-1
 324 1574 l 1,35,-1
 689 1574 l 2,36,37
 1008 1574 1008 1574 1139.5 1505.5 c 128,-1,38
 1271 1437 1271 1437 1271 1270 c 0,39,40
 1271 1202 1271 1202 1258 1145.5 c 128,-1,41
 1245 1089 1245 1089 1224.5 1050 c 128,-1,42
 1204 1011 1204 1011 1173 979 c 128,-1,43
 1142 947 1142 947 1112 928 c 128,-1,44
 1082 909 1082 909 1044.5 894.5 c 128,-1,45
 1007 880 1007 880 978.5 873.5 c 128,-1,46
 950 867 950 867 917 862 c 1,47,48
 960 857 960 857 1000 846.5 c 128,-1,49
 1040 836 1040 836 1086.5 811 c 128,-1,50
 1133 786 1133 786 1166.5 751 c 128,-1,51
 1200 716 1200 716 1222.5 658 c 128,-1,52
 1245 600 1245 600 1245 528 c 0,27,28
EndSplineSet
EndChar

StartChar: C
Encoding: 67 67 38
Width: 1232
GlyphClass: 2
Flags: W
HStem: -40 150<463.093 861.083> 1331 21G<1177.5 1221.03> 1458 152<670.459 1077.92>
VStem: 104 186<296.797 914.36>
DStem2: 1021 229 898 20 0.911062 0.412268<-374.626 -1.75087> 1150 1543 1083 1411 0.850798 -0.525493<-145.062 159.85>
LayerCount: 2
Fore
SplineSet
1083 1411 m 2,0,1
 1037 1440 1037 1440 989 1449 c 128,-1,2
 941 1458 941 1458 874 1458 c 0,3,4
 773 1458 773 1458 688 1421.5 c 128,-1,5
 603 1385 603 1385 544.5 1326.5 c 128,-1,6
 486 1268 486 1268 439.5 1187.5 c 128,-1,7
 393 1107 393 1107 366 1025 c 128,-1,8
 339 943 339 943 321 854 c 128,-1,9
 303 765 303 765 296.5 694.5 c 128,-1,10
 290 624 290 624 290 562 c 0,11,12
 290 436 290 436 316.5 346.5 c 128,-1,13
 343 257 343 257 394 206.5 c 128,-1,14
 445 156 445 156 510 133 c 128,-1,15
 575 110 575 110 660 110 c 0,16,17
 777 110 777 110 859 150 c 2,18,-1
 1021 229 l 1,19,-1
 1077 101 l 1,20,-1
 898 20 l 2,21,22
 845 -5 845 -5 768 -22.5 c 128,-1,23
 691 -40 691 -40 618 -40 c 0,24,25
 504 -40 504 -40 413 -7 c 128,-1,26
 322 26 322 26 251.5 95 c 128,-1,27
 181 164 181 164 142.5 281.5 c 128,-1,28
 104 399 104 399 104 558 c 0,29,30
 104 648 104 648 114.5 742 c 128,-1,31
 125 836 125 836 151.5 940.5 c 128,-1,32
 178 1045 178 1045 217.5 1139.5 c 128,-1,33
 257 1234 257 1234 320 1321 c 128,-1,34
 383 1408 383 1408 462 1471.5 c 128,-1,35
 541 1535 541 1535 650.5 1572.5 c 128,-1,36
 760 1610 760 1610 888 1610 c 0,37,38
 1040 1610 1040 1610 1150 1543 c 2,39,-1
 1286 1459 l 1,40,-1
 1209 1331 l 1,41,-1
 1083 1411 l 2,0,1
EndSplineSet
EndChar

StartChar: D
Encoding: 68 68 39
Width: 1477
GlyphClass: 2
Flags: W
HStem: 0 149<306 836.19> 1423 151<484 1016.04>
VStem: 1174 184<632.375 1256.75>
DStem2: 103 0 285.059 0 0.139173 0.990268<175.802 1462.18>
LayerCount: 2
Fore
SplineSet
639 149 m 2,0,1
 734 149 734 149 813 182.5 c 128,-1,2
 892 216 892 216 946 270 c 128,-1,3
 1000 324 1000 324 1042 399.5 c 128,-1,4
 1084 475 1084 475 1108 552.5 c 128,-1,5
 1132 630 1132 630 1147.5 717 c 128,-1,6
 1163 804 1163 804 1168.5 874 c 128,-1,7
 1174 944 1174 944 1174 1012 c 0,8,9
 1174 1233 1174 1233 1085.5 1328 c 128,-1,10
 997 1423 997 1423 817 1423 c 2,11,-1
 484 1423 l 1,12,-1
 306 149 l 1,13,-1
 639 149 l 2,0,1
1358 1010 m 0,14,15
 1358 933 1358 933 1350.5 852 c 128,-1,16
 1343 771 1343 771 1321.5 669.5 c 128,-1,17
 1300 568 1300 568 1266.5 477 c 128,-1,18
 1233 386 1233 386 1175 297 c 128,-1,19
 1117 208 1117 208 1042 143.5 c 128,-1,20
 967 79 967 79 857 39.5 c 128,-1,21
 747 0 747 0 616 0 c 2,22,-1
 103 0 l 1,23,-1
 327 1574 l 1,24,-1
 840 1574 l 2,25,26
 1358 1574 1358 1574 1358 1010 c 0,14,15
EndSplineSet
EndChar

StartChar: E
Encoding: 69 69 40
Width: 1185
GlyphClass: 2
Flags: W
HStem: 0 144<315 1029> 776 114<421 1035> 1436 138<497 1217>
DStem2: 113 0 294.762 0 0.139173 0.990268<170.712 809.087 924.204 1475.47>
LayerCount: 2
Fore
SplineSet
1029 0 m 1,0,-1
 113 0 l 1,1,-1
 337 1574 l 1,2,-1
 1237 1574 l 1,3,-1
 1217 1436 l 1,4,-1
 497 1436 l 1,5,-1
 421 890 l 1,6,-1
 1049 890 l 1,7,-1
 1035 776 l 1,8,-1
 405 776 l 1,9,-1
 315 144 l 1,10,-1
 1047 144 l 1,11,-1
 1029 0 l 1,0,-1
EndSplineSet
EndChar

StartChar: F
Encoding: 70 70 41
Width: 1101
GlyphClass: 2
Flags: W
HStem: 0 21G<128 312.887> 762 116<436 1059> 1436 138<514 1231>
DStem2: 128 0 310 0 0.139173 0.990268<25.3295 795.223 912.321 1475.75>
LayerCount: 2
Fore
SplineSet
420 762 m 1,0,-1
 310 0 l 1,1,-1
 128 0 l 1,2,-1
 352 1574 l 1,3,-1
 1251 1574 l 1,4,-1
 1231 1436 l 1,5,-1
 514 1436 l 1,6,-1
 436 878 l 1,7,-1
 1075 878 l 1,8,-1
 1059 762 l 1,9,-1
 420 762 l 1,0,-1
EndSplineSet
EndChar

StartChar: G
Encoding: 71 71 42
Width: 1366
GlyphClass: 2
Flags: W
HStem: -40 150<464.543 860.189> 0 21G<1066 1165.81> 684 128<731 1095> 1342 21G<1180 1229.85> 1458 152<667.168 1076.06>
VStem: 103 186<296.273 924.147> 1066 97<0 102.113>
DStem2: 996.989 -40 1157.38 -40 0.139173 0.990268<273.185 730.595> 1130 1553 1074 1415 0.896715 -0.442609<-176.204 173.968>
LayerCount: 2
Fore
SplineSet
1074 1415 m 2,0,1
 990 1458 990 1458 875 1458 c 0,2,3
 775 1458 775 1458 690 1423.5 c 128,-1,4
 605 1389 605 1389 546 1332 c 128,-1,5
 487 1275 487 1275 440.5 1197 c 128,-1,6
 394 1119 394 1119 366 1037.5 c 128,-1,7
 338 956 338 956 320 866 c 128,-1,8
 302 776 302 776 295.5 701 c 128,-1,9
 289 626 289 626 289 556 c 0,10,11
 289 321 289 321 384 215.5 c 128,-1,12
 479 110 479 110 657 110 c 0,13,14
 843 110 843 110 942.5 189 c 128,-1,15
 1042 268 1042 268 1057 387 c 2,16,-1
 1095 684 l 1,17,-1
 933 684 l 1,18,-1
 711 684 l 1,19,-1
 731 812 l 1,20,-1
 1277 812 l 1,21,-1
 1163 0 l 1,22,-1
 1066 0 l 1,23,-1
 1066 171 l 1,24,25
 1061 162 1061 162 1051.5 148 c 128,-1,26
 1042 134 1042 134 1004 97.5 c 128,-1,27
 966 61 966 61 920.5 33.5 c 128,-1,28
 875 6 875 6 795.5 -17 c 128,-1,29
 716 -40 716 -40 625 -40 c 0,30,31
 374 -40 374 -40 238.5 105 c 128,-1,32
 103 250 103 250 103 552 c 0,33,34
 103 643 103 643 113.5 737 c 128,-1,35
 124 831 124 831 150.5 936.5 c 128,-1,36
 177 1042 177 1042 217 1137 c 128,-1,37
 257 1232 257 1232 320 1319.5 c 128,-1,38
 383 1407 383 1407 462 1470.5 c 128,-1,39
 541 1534 541 1534 650.5 1572 c 128,-1,40
 760 1610 760 1610 889 1610 c 0,41,42
 1016 1610 1016 1610 1130 1553 c 2,43,-1
 1286 1476 l 1,44,-1
 1220 1342 l 1,45,-1
 1074 1415 l 2,0,1
EndSplineSet
EndChar

StartChar: H
Encoding: 72 72 43
Width: 1563
GlyphClass: 2
Flags: W
HStem: 0 21G<106 285.827 1062 1242.82> 764 114<407 1172> 1554 20G<327.154 505 1283.18 1462>
DStem2: 106 0 283 0 0.139173 0.990268<24.6336 796.229 911.346 1589.86> 1062 0 1240 0 0.139173 0.990268<24.7728 771.874 886.991 1589.86>
LayerCount: 2
Fore
SplineSet
1062 0 m 1,0,-1
 1172 764 l 1,1,-1
 391 764 l 1,2,-1
 283 0 l 1,3,-1
 106 0 l 1,4,-1
 330 1574 l 1,5,-1
 505 1574 l 1,6,-1
 407 878 l 1,7,-1
 1188 878 l 1,8,-1
 1286 1574 l 1,9,-1
 1462 1574 l 1,10,-1
 1240 0 l 1,11,-1
 1062 0 l 1,0,-1
EndSplineSet
EndChar

StartChar: I
Encoding: 73 73 44
Width: 833
GlyphClass: 2
Flags: W
HStem: 0 102<106 298 468 646> 1482 92<316 492 662 854>
DStem2: 283.665 0 453.665 0 0.139173 0.990268<126.662 1496.57>
LayerCount: 2
Fore
SplineSet
106 102 m 1,0,-1
 298 102 l 1,1,-1
 492 1482 l 1,2,-1
 302 1482 l 1,3,-1
 316 1574 l 1,4,-1
 866 1574 l 1,5,-1
 854 1482 l 1,6,-1
 662 1482 l 1,7,-1
 468 102 l 1,8,-1
 660 102 l 1,9,-1
 646 0 l 1,10,-1
 92 0 l 1,11,-1
 106 102 l 1,0,-1
EndSplineSet
EndChar

StartChar: J
Encoding: 74 74 45
Width: 834
GlyphClass: 2
Flags: W
HStem: 1554 20G<565.189 743>
DStem2: 2 -69 29 -205 0.98035 0.197266<0 305.335> 317.67 -205 490.578 -205 0.139173 0.990268<260.357 1796.53>
LayerCount: 2
Fore
SplineSet
117 -45 m 1,0,-1
 154 -39 l 1,1,2
 283 -9 283 -9 335 95 c 0,3,4
 370 164 370 164 393 331 c 0,5,6
 395 342 395 342 401 386 c 2,7,-1
 568 1574 l 1,8,-1
 743 1574 l 1,9,-1
 582 420 l 2,10,11
 575 370 575 370 570.5 340.5 c 128,-1,12
 566 311 566 311 556 260.5 c 128,-1,13
 546 210 546 210 536 177.5 c 128,-1,14
 526 145 526 145 509 99.5 c 128,-1,15
 492 54 492 54 472.5 23 c 128,-1,16
 453 -8 453 -8 425 -43 c 128,-1,17
 397 -78 397 -78 364 -101 c 128,-1,18
 331 -124 331 -124 287.5 -143.5 c 128,-1,19
 244 -163 244 -163 193 -172 c 2,20,-1
 147 -180 l 1,21,-1
 29 -205 l 1,22,-1
 2 -69 l 1,23,-1
 117 -45 l 1,0,-1
EndSplineSet
EndChar

StartChar: K
Encoding: 75 75 46
Width: 1273
GlyphClass: 2
Flags: W
HStem: 0 21G<128 312.811 1017.41 1226> 740 106<430 600> 1554 20G<349.154 532 1175.26 1394>
DStem2: 128 0 310 0 0.139173 0.990268<25.3295 772.602 879.797 1589.86> 768 784 600 740 0.504419 -0.863459<0 808.605> 618 846 768 784 0.621059 0.783764<44.5654 926.447>
LayerCount: 2
Fore
SplineSet
790 813 m 1,0,-1
 768 784 l 1,1,-1
 784 756 l 1,2,-1
 1226 0 l 1,3,-1
 1029 0 l 1,4,-1
 600 740 l 1,5,-1
 414 740 l 1,6,-1
 310 0 l 1,7,-1
 128 0 l 1,8,-1
 352 1574 l 1,9,-1
 532 1574 l 1,10,-1
 430 846 l 1,11,-1
 618 846 l 1,12,-1
 1191 1574 l 1,13,-1
 1394 1574 l 1,14,-1
 790 813 l 1,0,-1
EndSplineSet
EndChar

StartChar: L
Encoding: 76 76 47
Width: 1066
GlyphClass: 2
Flags: W
HStem: 0 144<315 989> 1554 20G<334.154 517>
DStem2: 113 0 294.762 0 0.139173 0.990268<170.712 1589.86>
LayerCount: 2
Fore
SplineSet
989 0 m 1,0,-1
 113 0 l 1,1,-1
 337 1574 l 1,2,-1
 517 1574 l 1,3,-1
 315 144 l 1,4,-1
 1009 144 l 1,5,-1
 989 0 l 1,0,-1
EndSplineSet
EndChar

StartChar: M
Encoding: 77 77 48
Width: 1956
GlyphClass: 2
Flags: W
HStem: 0 21G<113 294.183 763.683 992.016 1461 1639.41> 1554 20G<363.773 666.305 1529.05 1827>
DStem2: 113 0 291 0 0.159311 0.987228<28.3574 1502.05> 663 1574 525 1455 0.164069 -0.986449<94.7459 1451.15> 898 142 983 0 0.410804 0.911724<0 1514.49> 1461 0 1637 0 0.119842 0.992793<21.0921 1478.36>
LayerCount: 2
Fore
SplineSet
767 0 m 1,0,-1
 570 1188 l 1,1,-1
 525 1455 l 1,2,-1
 482 1200 l 1,3,-1
 291 0 l 1,4,-1
 113 0 l 1,5,-1
 367 1574 l 1,6,-1
 663 1574 l 1,7,-1
 877 279 l 1,8,-1
 898 142 l 1,9,-1
 954 270 l 1,10,-1
 1538 1575 l 1,11,-1
 1827 1574 l 1,12,-1
 1637 0 l 1,13,-1
 1461 0 l 1,14,-1
 1612 1227 l 1,15,-1
 1644 1467 l 1,16,-1
 1551 1260 l 1,17,-1
 983 0 l 1,18,-1
 767 0 l 1,0,-1
EndSplineSet
EndChar

StartChar: N
Encoding: 78 78 49
Width: 1566
GlyphClass: 2
Flags: W
DStem2: 93.8595 -1 249 -1 0.139173 0.990268<21.5914 1463.67> 576 1574 450 1427 0.355069 -0.93484<92.6828 1505.38> 1082.67 -1 1241.86 -1 0.139173 0.990268<167.631 1590.61>
LayerCount: 2
Fore
SplineSet
1106 165 m 1,0,-1
 576 1574 l 1,1,-1
 318 1574 l 1,2,-1
 94 0 l 1,3,-1
 249 -1 l 1,4,-1
 450 1427 l 1,5,-1
 992 0 l 1,6,-1
 1242 0 l 1,7,-1
 1468 1574 l 1,8,-1
 1305 1574 l 1,9,-1
 1106 165 l 1,0,-1
EndSplineSet
EndChar

StartChar: O
Encoding: 79 79 50
Width: 1504
GlyphClass: 2
Flags: W
HStem: -40 150<493.424 867.931> 1458 152<676.895 1056.41>
VStem: 145 186<292.389 939.6> 1213 186<626.404 1284.71>
LayerCount: 2
Fore
SplineSet
1399 1014 m 0,0,1
 1399 923 1399 923 1389.5 830 c 128,-1,2
 1380 737 1380 737 1355.5 631.5 c 128,-1,3
 1331 526 1331 526 1294 431.5 c 128,-1,4
 1257 337 1257 337 1197.5 249.5 c 128,-1,5
 1138 162 1138 162 1063.5 99 c 128,-1,6
 989 36 989 36 884.5 -2 c 128,-1,7
 780 -40 780 -40 657 -40 c 0,8,9
 540 -40 540 -40 449 -7.5 c 128,-1,10
 358 25 358 25 288.5 94 c 128,-1,11
 219 163 219 163 182 278.5 c 128,-1,12
 145 394 145 394 145 552 c 0,13,14
 145 643 145 643 154.5 736.5 c 128,-1,15
 164 830 164 830 188.5 935.5 c 128,-1,16
 213 1041 213 1041 250.5 1136 c 128,-1,17
 288 1231 288 1231 347.5 1319 c 128,-1,18
 407 1407 407 1407 481.5 1470.5 c 128,-1,19
 556 1534 556 1534 661 1572 c 128,-1,20
 766 1610 766 1610 889 1610 c 0,21,22
 1003 1610 1003 1610 1093.5 1577 c 128,-1,23
 1184 1544 1184 1544 1253.5 1474.5 c 128,-1,24
 1323 1405 1323 1405 1361 1288.5 c 128,-1,25
 1399 1172 1399 1172 1399 1014 c 0,0,1
679 110 m 0,26,27
 767 110 767 110 842.5 142.5 c 128,-1,28
 918 175 918 175 971.5 229.5 c 128,-1,29
 1025 284 1025 284 1067.5 359.5 c 128,-1,30
 1110 435 1110 435 1137 516 c 128,-1,31
 1164 597 1164 597 1181.5 687.5 c 128,-1,32
 1199 778 1199 778 1206 859 c 128,-1,33
 1213 940 1213 940 1213 1018 c 0,34,35
 1213 1249 1213 1249 1126.5 1353.5 c 128,-1,36
 1040 1458 1040 1458 869 1458 c 0,37,38
 780 1458 780 1458 704 1426 c 128,-1,39
 628 1394 628 1394 574 1340.5 c 128,-1,40
 520 1287 520 1287 477 1212.5 c 128,-1,41
 434 1138 434 1138 407 1057.5 c 128,-1,42
 380 977 380 977 362.5 887 c 128,-1,43
 345 797 345 797 338 717 c 128,-1,44
 331 637 331 637 331 558 c 0,45,46
 331 325 331 325 419.5 217.5 c 128,-1,47
 508 110 508 110 679 110 c 0,26,27
EndSplineSet
EndChar

StartChar: P
Encoding: 80 80 51
Width: 1272
GlyphClass: 2
Flags: W
HStem: 0 21G<113 297.759> 638 146<405 914.097> 1436 138<497 1013.18>
VStem: 1129 170<974.044 1338.12>
DStem2: 113 0 295 0 0.139173 0.990268<25.3295 669.368 817.009 1475.47>
LayerCount: 2
Fore
SplineSet
565 784 m 2,0,1
 684 784 684 784 769 794.5 c 128,-1,2
 854 805 854 805 925.5 832.5 c 128,-1,3
 997 860 997 860 1039.5 907 c 128,-1,4
 1082 954 1082 954 1105.5 1026.5 c 128,-1,5
 1129 1099 1129 1099 1129 1200 c 0,6,7
 1129 1285 1129 1285 1092 1335 c 128,-1,8
 1055 1385 1055 1385 960 1410.5 c 128,-1,9
 865 1436 865 1436 697 1436 c 2,10,-1
 497 1436 l 1,11,-1
 405 784 l 1,12,-1
 565 784 l 2,0,1
1299 1214 m 0,13,14
 1299 1079 1299 1079 1260.5 977.5 c 128,-1,15
 1222 876 1222 876 1156.5 812 c 128,-1,16
 1091 748 1091 748 992.5 708.5 c 128,-1,17
 894 669 894 669 786 653.5 c 128,-1,18
 678 638 678 638 543 638 c 2,19,-1
 383 638 l 1,20,-1
 295 0 l 1,21,-1
 113 0 l 1,22,-1
 337 1574 l 1,23,-1
 705 1574 l 2,24,25
 1024 1574 1024 1574 1161.5 1490 c 128,-1,26
 1299 1406 1299 1406 1299 1214 c 0,13,14
EndSplineSet
EndChar

StartChar: Q
Encoding: 81 81 52
Width: 1563
GlyphClass: 2
Flags: W
HStem: -424 21G<934.283 974.115> 1458 152<658.444 1043.34>
VStem: 123 186<295.696 935.979> 1207 184<624.852 1275.12>
DStem2: 771 -28 637 -117 0.719463 -0.694531<0 406.635>
LayerCount: 2
Fore
SplineSet
853 1458 m 0,0,1
 763 1458 763 1458 686.5 1426 c 128,-1,2
 610 1394 610 1394 555 1340.5 c 128,-1,3
 500 1287 500 1287 456.5 1212.5 c 128,-1,4
 413 1138 413 1138 386 1057.5 c 128,-1,5
 359 977 359 977 341 887.5 c 128,-1,6
 323 798 323 798 316 717.5 c 128,-1,7
 309 637 309 637 309 558 c 0,8,9
 309 328 309 328 398.5 219 c 128,-1,10
 488 110 488 110 665 110 c 0,11,12
 755 110 755 110 831.5 142 c 128,-1,13
 908 174 908 174 962.5 228 c 128,-1,14
 1017 282 1017 282 1060.5 356.5 c 128,-1,15
 1104 431 1104 431 1131 511.5 c 128,-1,16
 1158 592 1158 592 1175.5 682 c 128,-1,17
 1193 772 1193 772 1200 852.5 c 128,-1,18
 1207 933 1207 933 1207 1012 c 0,19,20
 1207 1242 1207 1242 1118.5 1350 c 128,-1,21
 1030 1458 1030 1458 853 1458 c 0,0,1
1391 1010 m 0,22,23
 1391 935 1391 935 1384 855 c 128,-1,24
 1377 775 1377 775 1358 678.5 c 128,-1,25
 1339 582 1339 582 1309.5 493.5 c 128,-1,26
 1280 405 1280 405 1230.5 317 c 128,-1,27
 1181 229 1181 229 1118.5 160.5 c 128,-1,28
 1056 92 1056 92 966.5 41.5 c 128,-1,29
 877 -9 877 -9 771 -28 c 1,30,-1
 1063 -311 l 1,31,-1
 955 -424 l 1,32,-1
 637 -117 l 1,33,-1
 551 -34 l 1,34,35
 456 -22 456 -22 380.5 16.5 c 128,-1,36
 305 55 305 55 246 124 c 128,-1,37
 187 193 187 193 155 302.5 c 128,-1,38
 123 412 123 412 123 556 c 0,39,40
 123 645 123 645 133 738 c 128,-1,41
 143 831 143 831 167.5 936 c 128,-1,42
 192 1041 192 1041 229.5 1135.5 c 128,-1,43
 267 1230 267 1230 327.5 1318 c 128,-1,44
 388 1406 388 1406 463.5 1470 c 128,-1,45
 539 1534 539 1534 645 1572 c 128,-1,46
 751 1610 751 1610 875 1610 c 0,47,48
 963 1610 963 1610 1038.5 1590.5 c 128,-1,49
 1114 1571 1114 1571 1180 1526.5 c 128,-1,50
 1246 1482 1246 1482 1292 1413.5 c 128,-1,51
 1338 1345 1338 1345 1364.5 1242.5 c 128,-1,52
 1391 1140 1391 1140 1391 1010 c 0,22,23
EndSplineSet
EndChar

StartChar: R
Encoding: 82 82 53
Width: 1351
GlyphClass: 2
Flags: W
HStem: 0 21G<113 297.834 973 1143.21> 734 128<417 856.031> 796 68.5<859 920.74> 1436 138<497 1040.03>
VStem: 1023 168<50.625 629.908> 1139 160<1031.39 1352.99>
DStem2: 113 0 295 0 0.139173 0.990268<25.3295 766.66 895.92 1475.47> 973 0 1141 0 0.139173 0.990268<23.3811 485.843>
LayerCount: 2
Fore
SplineSet
1299 1244 m 0,0,1
 1299 1142 1299 1142 1267 1061 c 128,-1,2
 1235 980 1235 980 1186.5 932 c 128,-1,3
 1138 884 1138 884 1076.5 852 c 128,-1,4
 1015 820 1015 820 961.5 808 c 128,-1,5
 908 796 908 796 859 796 c 1,6,7
 1029 776 1029 776 1110 701.5 c 128,-1,8
 1191 627 1191 627 1191 486 c 0,9,10
 1191 472 1191 472 1188 442.5 c 128,-1,11
 1185 413 1185 413 1185 398 c 1,12,-1
 1141 0 l 1,13,-1
 973 0 l 1,14,-1
 1017 412 l 2,15,16
 1017 418 1017 418 1020 444.5 c 128,-1,17
 1023 471 1023 471 1023 484 c 0,18,19
 1023 626 1023 626 917.5 680 c 128,-1,20
 812 734 812 734 567 734 c 2,21,-1
 399 734 l 1,22,-1
 295 0 l 1,23,-1
 113 0 l 1,24,-1
 337 1574 l 1,25,-1
 687 1574 l 2,26,27
 771 1574 771 1574 827 1572.5 c 128,-1,28
 883 1571 883 1571 953.5 1563.5 c 128,-1,29
 1024 1556 1024 1556 1069 1543 c 128,-1,30
 1114 1530 1114 1530 1162 1505.5 c 128,-1,31
 1210 1481 1210 1481 1237 1446.5 c 128,-1,32
 1264 1412 1264 1412 1281.5 1361 c 128,-1,33
 1299 1310 1299 1310 1299 1244 c 0,0,1
557 862 m 2,34,35
 636 862 636 862 694 864.5 c 128,-1,36
 752 867 752 867 816 876 c 128,-1,37
 880 885 880 885 925 900 c 128,-1,38
 970 915 970 915 1013 941.5 c 128,-1,39
 1056 968 1056 968 1082 1005 c 128,-1,40
 1108 1042 1108 1042 1123.5 1095 c 128,-1,41
 1139 1148 1139 1148 1139 1216 c 0,42,43
 1139 1267 1139 1267 1125.5 1304 c 128,-1,44
 1112 1341 1112 1341 1081 1365 c 128,-1,45
 1050 1389 1050 1389 1015 1403.5 c 128,-1,46
 980 1418 980 1418 920 1425 c 128,-1,47
 860 1432 860 1432 806 1434 c 128,-1,48
 752 1436 752 1436 667 1436 c 2,49,-1
 497 1436 l 1,50,-1
 417 862 l 1,51,-1
 557 862 l 2,34,35
EndSplineSet
EndChar

StartChar: S
Encoding: 83 83 54
Width: 1268
GlyphClass: 2
Flags: W
HStem: -40 150<346.05 794.516> 1458 152<550.531 978.193>
VStem: 215 170<1055.82 1315.61> 977 174<282.325 597.82>
DStem2: 171 226 112 73 0.925778 -0.378067<3.22326 401.984> 550 983 476 813 0.94217 -0.335134<-161.465 479.703> 1174 1487 1106 1350 0.894427 -0.447214<-328.802 0>
LayerCount: 2
Fore
SplineSet
362 148 m 1,0,1
 460 110 460 110 561 110 c 0,2,3
 657 110 657 110 731 130 c 0,4,5
 868 167 868 167 930 276 c 1,6,7
 977 350 977 350 977 457 c 0,8,9
 977 630 977 630 774 707 c 1,10,-1
 476 813 l 2,11,12
 359 855 359 855 284 940 c 0,13,14
 215 1019 215 1019 215 1150 c 0,15,16
 215 1355 215 1355 374.5 1482.5 c 128,-1,17
 534 1610 534 1610 784 1610 c 0,18,19
 928 1610 928 1610 1020 1564 c 2,20,-1
 1174 1487 l 1,21,-1
 1106 1350 l 1,22,-1
 961 1422 l 2,23,24
 888 1458 888 1458 770 1458 c 0,25,26
 601 1458 601 1458 493 1379.5 c 128,-1,27
 385 1301 385 1301 385 1173 c 0,28,29
 385 1040 385 1040 550 983 c 2,30,-1
 846 880 l 1,31,32
 973 834 973 834 1058 746 c 1,33,34
 1103 701 1103 701 1127 637 c 1,35,36
 1151 563 1151 563 1151 487 c 0,37,38
 1151 395 1151 395 1124 316 c 1,39,40
 1046 54 1046 54 755 -18 c 0,41,42
 667 -40 667 -40 526 -40 c 128,-1,43
 385 -40 385 -40 279 4 c 2,44,-1
 112 73 l 1,45,-1
 171 226 l 1,46,-1
 362 148 l 1,0,1
EndSplineSet
EndChar

StartChar: T
Encoding: 84 84 55
Width: 1045
GlyphClass: 2
Flags: W
HStem: 0 21G<381 561.813> 1436 138<175 585 761 1185>
DStem2: 381 0 559 0 0.139173 0.990268<24.7728 1450.42>
LayerCount: 2
Fore
SplineSet
1185 1436 m 1,0,-1
 761 1436 l 1,1,-1
 559 0 l 1,2,-1
 381 0 l 1,3,-1
 585 1436 l 1,4,-1
 155 1436 l 1,5,-1
 175 1574 l 1,6,-1
 1205 1574 l 1,7,-1
 1185 1436 l 1,0,-1
EndSplineSet
EndChar

StartChar: U
Encoding: 85 85 56
Width: 1563
GlyphClass: 2
Flags: W
HStem: -40 140<491.099 921.441> 1554 20G<323.163 504 1311.13 1494>
VStem: 186 176<231.297 873.625>
DStem2: 98.0322 -40 278.594 -40 0.139173 0.990268<541.985 1630.02> 1084.59 -40 1266.03 -40 0.139173 0.990268<408.12 1630.22>
LayerCount: 2
Fore
SplineSet
700 100 m 0,0,1
 810 100 810 100 888 129.5 c 128,-1,2
 966 159 966 159 1026.5 229.5 c 128,-1,3
 1087 300 1087 300 1126 417 c 128,-1,4
 1165 534 1165 534 1190 710 c 2,5,-1
 1314 1574 l 1,6,-1
 1494 1574 l 1,7,-1
 1372 714 l 2,8,9
 1347 538 1347 538 1298.5 405 c 128,-1,10
 1250 272 1250 272 1187 188.5 c 128,-1,11
 1124 105 1124 105 1040.5 52.5 c 128,-1,12
 957 0 957 0 870.5 -20 c 128,-1,13
 784 -40 784 -40 680 -40 c 0,14,15
 591 -40 591 -40 519.5 -25 c 128,-1,16
 448 -10 448 -10 384.5 27 c 128,-1,17
 321 64 321 64 278 123.5 c 128,-1,18
 235 183 235 183 210.5 275.5 c 128,-1,19
 186 368 186 368 186 490 c 0,20,21
 186 588 186 588 204 714 c 2,22,-1
 326 1574 l 1,23,-1
 504 1574 l 1,24,-1
 384 710 l 1,25,26
 362 538 362 538 362 468 c 0,27,28
 362 265 362 265 442 182.5 c 128,-1,29
 522 100 522 100 700 100 c 0,0,1
EndSplineSet
EndChar

StartChar: V
Encoding: 86 86 57
Width: 1256
GlyphClass: 2
Flags: W
HStem: 0 21G<440.976 705.602> 1554 20G<206 372.988 1202.39 1374>
DStem2: 370 1574 206 1574 0.149508 -0.988761<0 1479.84> 586 110 697 0 0.395116 0.918631<0 1591.82>
LayerCount: 2
Fore
SplineSet
697 0 m 1,0,-1
 444 0 l 1,1,-1
 206 1574 l 1,2,-1
 370 1574 l 1,3,-1
 543 416 l 1,4,-1
 586 110 l 1,5,-1
 711 413 l 1,6,-1
 1211 1574 l 1,7,-1
 1374 1574 l 1,8,-1
 697 0 l 1,0,-1
EndSplineSet
EndChar

StartChar: W
Encoding: 87 87 58
Width: 1953
GlyphClass: 2
Flags: W
HStem: 0 21G<279.856 567.597 1140.96 1408.01> 1554 20G<191 354.058 910.583 1215.98 1784.01 1953>
DStem2: 353 1574 191 1574 0.0570859 -0.998369<0 1509> 431 67 561 0 0.313231 0.949677<0 1579.74> 1280 244 1142 0 0.0518356 -0.998656<-1287.53 122.199> 1287 122 1401 0 0.330938 0.943653<0 1536.98>
LayerCount: 2
Fore
SplineSet
1287 122 m 1,0,-1
 1327 247 l 1,1,-1
 1791 1574 l 1,2,-1
 1953 1574 l 1,3,-1
 1401 0 l 1,4,-1
 1142 0 l 1,5,-1
 1063 1522 l 1,6,-1
 561 0 l 1,7,-1
 281 0 l 1,8,-1
 191 1574 l 1,9,-1
 353 1574 l 1,10,-1
 428 156 l 1,11,-1
 431 67 l 1,12,-1
 463 159 l 1,13,-1
 917 1574 l 1,14,-1
 1215 1574 l 1,15,-1
 1280 244 l 1,16,-1
 1287 122 l 1,0,-1
EndSplineSet
EndChar

StartChar: X
Encoding: 88 88 59
Width: 1268
GlyphClass: 2
Flags: W
HStem: 0 21G<29 235.114 922.646 1123> 1554 20G<249 445.385 1129.46 1343>
DStem2: 29 0 221 0 0.580455 0.814292<111.447 884.963 1150.84 1928.32> 437 1574 249 1574 0.399535 -0.916718<0 698.241 955.441 1640.28>
LayerCount: 2
Fore
SplineSet
667 632 m 1,0,-1
 221 0 l 1,1,-1
 29 0 l 1,2,-1
 589 790 l 1,3,-1
 249 1574 l 1,4,-1
 437 1574 l 1,5,-1
 707 930 l 1,6,-1
 1143 1574 l 1,7,-1
 1343 1574 l 1,8,-1
 781 790 l 1,9,-1
 1123 0 l 1,10,-1
 931 0 l 1,11,-1
 667 632 l 1,0,-1
EndSplineSet
EndChar

StartChar: Y
Encoding: 89 89 60
Width: 1173
GlyphClass: 2
Flags: W
HStem: 0 21G<439 619.798> 1554 20G<193 360.097 1127.49 1315>
DStem2: 354 1574 193 1574 0.287846 -0.957677<0 949.686> 439 0 617 0 0.139173 0.990268<24.7728 515.507> 1139 1574 1315 1574 0.501099 0.86539<-1042.2 0>
LayerCount: 2
Fore
SplineSet
735 872 m 1,0,-1
 1139 1574 l 1,1,-1
 1315 1574 l 1,2,-1
 685 486 l 1,3,-1
 617 0 l 1,4,-1
 439 0 l 1,5,-1
 511 516 l 1,6,-1
 193 1574 l 1,7,-1
 354 1574 l 1,8,-1
 568 872 l 1,9,-1
 629 665 l 1,10,-1
 735 872 l 1,0,-1
EndSplineSet
EndChar

StartChar: Z
Encoding: 90 90 61
Width: 1128
GlyphClass: 2
Flags: W
HStem: 0 144<236 1004> 1436 138<266 1023>
DStem2: 70 180 236 144 0.603593 0.797293<71.4939 1576.62>
LayerCount: 2
Fore
SplineSet
1224 1574 m 1,0,-1
 1202 1420 l 1,1,-1
 428 390 l 1,2,-1
 236 144 l 1,3,-1
 474 144 l 1,4,-1
 1024 144 l 1,5,-1
 1004 0 l 1,6,-1
 46 0 l 1,7,-1
 70 180 l 1,8,-1
 860 1226 l 1,9,-1
 1023 1436 l 1,10,-1
 796 1436 l 1,11,-1
 246 1436 l 1,12,-1
 266 1574 l 1,13,-1
 1224 1574 l 1,0,-1
EndSplineSet
EndChar

StartChar: bracketleft
Encoding: 91 91 62
Width: 1188
GlyphClass: 2
Flags: W
HStem: 0 144<482 900> 1436 144<662 1100>
DStem2: 280 0 461.762 0 0.139173 0.990268<170.712 1475.19>
LayerCount: 2
Fore
SplineSet
504 1580 m 1,0,-1
 1120 1580 l 1,1,-1
 1100 1436 l 1,2,-1
 662 1436 l 1,3,-1
 482 144 l 1,4,-1
 920 144 l 1,5,-1
 900 0 l 1,6,-1
 280 0 l 1,7,-1
 504 1580 l 1,0,-1
EndSplineSet
EndChar

StartChar: backslash
Encoding: 92 92 63
Width: 817
GlyphClass: 2
Flags: W
VStem: 136 469
DStem2: 285 1730 136 1707 0.169766 -0.985484<0 1896.2>
LayerCount: 2
Fore
SplineSet
285 1730 m 1,0,-1
 605 -139 l 1,1,-1
 459 -168 l 1,2,-1
 136 1707 l 1,3,-1
 285 1730 l 1,0,-1
EndSplineSet
EndChar

StartChar: bracketright
Encoding: 93 93 64
Width: 1132
GlyphClass: 2
Flags: W
HStem: 0 144<135 573> 1436 144<337 755>
DStem2: 552.762 0 733 0 0.139173 0.990268<145.415 1450.17>
LayerCount: 2
Fore
SplineSet
337 1580 m 1,0,-1
 953 1580 l 1,1,-1
 733 0 l 1,2,-1
 113 0 l 1,3,-1
 135 144 l 1,4,-1
 573 144 l 1,5,-1
 755 1436 l 1,6,-1
 317 1436 l 1,7,-1
 337 1580 l 1,0,-1
EndSplineSet
EndChar

StartChar: asciicircum
Encoding: 94 94 65
Width: 1324
GlyphClass: 2
Flags: W
HStem: 358 530<731 756>
VStem: 430 550
DStem2: 430 358 588 358 0.523918 0.851769<82.7791 454.758> 913 688 781 676 0.204987 -0.978765<-15.3131 308.848>
LayerCount: 2
Fore
SplineSet
869 888 m 1,0,-1
 913 688 l 1,1,-1
 980 358 l 1,2,-1
 844 358 l 1,3,-1
 798 592 l 1,4,-1
 781 676 l 1,5,-1
 725 581 l 1,6,-1
 588 358 l 1,7,-1
 430 358 l 1,8,-1
 632 688 l 1,9,-1
 756 888 l 1,10,-1
 869 888 l 1,0,-1
EndSplineSet
EndChar

StartChar: underscore
Encoding: 95 95 66
Width: 1168
GlyphClass: 2
Flags: W
HStem: -110 142<120 974>
LayerCount: 2
Fore
SplineSet
974 -110 m 1,0,-1
 100 -110 l 1,1,-1
 120 32 l 1,2,-1
 996 32 l 1,3,-1
 974 -110 l 1,0,-1
EndSplineSet
EndChar

StartChar: grave
Encoding: 96 96 67
Width: 714
GlyphClass: 2
Flags: W
HStem: 356 620<406 474>
VStem: 406 74<356 407.082>
LayerCount: 2
Fore
SplineSet
480 356 m 1,0,-1
 406 356 l 1,1,-1
 232 976 l 1,2,-1
 474 976 l 1,3,-1
 480 356 l 1,0,-1
EndSplineSet
EndChar

StartChar: a
Encoding: 97 97 68
Width: 1095
GlyphClass: 2
Flags: W
HStem: -20 130<342.722 620.714> 0 21G<780 912.846> 1002 128<547.002 882.711>
VStem: 101 162<194.568 653.949> 787 123<0 100.745>
DStem2: 745.27 -20 908.994 -20 0.139173 0.990268<257.552 1001.84>
LayerCount: 2
Fore
SplineSet
1056 1026 m 1,0,-1
 910 0 l 1,1,-1
 780 0 l 1,2,-1
 787 196 l 1,3,4
 731 93 731 93 640.5 36.5 c 128,-1,5
 550 -20 550 -20 448 -20 c 0,6,7
 356 -20 356 -20 287 13.5 c 128,-1,8
 218 47 218 47 178.5 106 c 128,-1,9
 139 165 139 165 120 238.5 c 128,-1,10
 101 312 101 312 101 400 c 0,11,12
 101 496 101 496 128.5 598.5 c 128,-1,13
 156 701 156 701 209 795.5 c 128,-1,14
 262 890 262 890 333.5 965 c 128,-1,15
 405 1040 405 1040 501 1085 c 128,-1,16
 597 1130 597 1130 701 1130 c 0,17,18
 775 1130 775 1130 863.5 1104 c 128,-1,19
 952 1078 952 1078 1004 1052 c 2,20,-1
 1056 1026 l 1,0,-1
263 406 m 0,21,22
 263 248 263 248 318.5 179 c 128,-1,23
 374 110 374 110 488 110 c 0,24,25
 538 110 538 110 587 130.5 c 128,-1,26
 636 151 636 151 674.5 183 c 128,-1,27
 713 215 713 215 740.5 245 c 128,-1,28
 768 275 768 275 787 304 c 1,29,-1
 883 960 l 2,30,31
 883 961 883 961 860 971 c 128,-1,32
 837 981 837 981 794 991.5 c 128,-1,33
 751 1002 751 1002 710 1002 c 0,34,35
 595 1002 595 1002 492 920.5 c 128,-1,36
 389 839 389 839 326 700.5 c 128,-1,37
 263 562 263 562 263 406 c 0,21,22
EndSplineSet
EndChar

StartChar: b
Encoding: 98 98 69
Width: 1134
GlyphClass: 2
Flags: W
HStem: -20 130<401.673 684.214> 0 21G<72 194.683> 998 132<588.056 830.578>
VStem: 72 117<0 50.4517> 879 160<405.453 948.654>
DStem2: 69.1892 -20 234.697 -20 0.139173 0.990268<282.01 819.789 880.515 1675.39>
LayerCount: 2
Fore
SplineSet
72 0 m 1,0,-1
 303 1639 l 1,1,-1
 473 1653 l 1,2,-1
 355 829 l 1,3,4
 399 938 399 938 511.5 1034 c 128,-1,5
 624 1130 624 1130 735 1130 c 0,6,7
 808 1130 808 1130 863 1105.5 c 128,-1,8
 918 1081 918 1081 951 1041.5 c 128,-1,9
 984 1002 984 1002 1004.5 943.5 c 128,-1,10
 1025 885 1025 885 1032 826 c 128,-1,11
 1039 767 1039 767 1039 694 c 0,12,13
 1039 615 1039 615 1026 534 c 128,-1,14
 1013 453 1013 453 987.5 372.5 c 128,-1,15
 962 292 962 292 920 221.5 c 128,-1,16
 878 151 878 151 825 97 c 128,-1,17
 772 43 772 43 698.5 11.5 c 128,-1,18
 625 -20 625 -20 541 -20 c 0,19,20
 348 -20 348 -20 241 183 c 1,21,-1
 189 0 l 1,22,-1
 72 0 l 1,0,-1
549 110 m 0,23,24
 615 110 615 110 669 144 c 128,-1,25
 723 178 723 178 757.5 234.5 c 128,-1,26
 792 291 792 291 817 356 c 128,-1,27
 842 421 842 421 855 491 c 128,-1,28
 868 561 868 561 873.5 613.5 c 128,-1,29
 879 666 879 666 879 706 c 0,30,31
 879 744 879 744 878.5 767.5 c 128,-1,32
 878 791 878 791 874.5 825.5 c 128,-1,33
 871 860 871 860 865 881.5 c 128,-1,34
 859 903 859 903 847 927.5 c 128,-1,35
 835 952 835 952 818 965.5 c 128,-1,36
 801 979 801 979 775.5 988.5 c 128,-1,37
 750 998 750 998 717 998 c 0,38,39
 666 998 666 998 606 964 c 128,-1,40
 546 930 546 930 494 879 c 128,-1,41
 442 828 442 828 401 777 c 128,-1,42
 360 726 360 726 333 682 c 1,43,-1
 277 281 l 1,44,45
 281 274 281 274 288.5 262.5 c 128,-1,46
 296 251 296 251 322.5 221.5 c 128,-1,47
 349 192 349 192 378 169.5 c 128,-1,48
 407 147 407 147 453.5 128.5 c 128,-1,49
 500 110 500 110 549 110 c 0,23,24
EndSplineSet
EndChar

StartChar: c
Encoding: 99 99 70
Width: 978
GlyphClass: 2
Flags: W
HStem: -22 132<385.176 705.161> 997 133<508.31 830.814>
VStem: 130 162<210.269 704.776>
DStem2: 795 209 734 26 0.855661 0.517537<-263.247 -1.98734> 946 1020 858 928 0.719401 -0.694595<-138.283 78.4892>
LayerCount: 2
Fore
SplineSet
858 928 m 2,0,1
 834 952 834 952 816 964.5 c 128,-1,2
 798 977 798 977 760 987 c 128,-1,3
 722 997 722 997 668 997 c 0,4,5
 584 997 584 997 517 958 c 128,-1,6
 450 919 450 919 409 858.5 c 128,-1,7
 368 798 368 798 340.5 718 c 128,-1,8
 313 638 313 638 302.5 562 c 128,-1,9
 292 486 292 486 292 410 c 0,10,11
 292 110 292 110 535 110 c 0,12,13
 633 110 633 110 700 151 c 2,14,-1
 795 209 l 1,15,-1
 858 101 l 1,16,-1
 734 26 l 2,17,18
 653 -22 653 -22 512 -22 c 0,19,20
 332 -22 332 -22 231 89 c 128,-1,21
 130 200 130 200 130 408 c 0,22,23
 130 464 130 464 137 525.5 c 128,-1,24
 144 587 144 587 162 658.5 c 128,-1,25
 180 730 180 730 206.5 795.5 c 128,-1,26
 233 861 233 861 276.5 923 c 128,-1,27
 320 985 320 985 374.5 1030 c 128,-1,28
 429 1075 429 1075 505.5 1102.5 c 128,-1,29
 582 1130 582 1130 672 1130 c 0,30,31
 834 1130 834 1130 946 1020 c 2,32,-1
 1002 965 l 1,33,-1
 916 872 l 1,34,-1
 858 928 l 2,0,1
EndSplineSet
EndChar

StartChar: d
Encoding: 100 100 71
Width: 1124
GlyphClass: 2
Flags: W
HStem: -20 130<336.432 603.678> 0 21G<791 906.843> 998 132<455.115 740.849>
VStem: 101 160<193.386 706.245> 791 113<0 100.84>
DStem2: 736.557 -20 901.189 -20 0.139173 0.990268<304.968 910.393 979.688 1674.21>
LayerCount: 2
Fore
SplineSet
101 416 m 0,0,1
 101 510 101 510 118.5 606.5 c 128,-1,2
 136 703 136 703 175.5 797.5 c 128,-1,3
 215 892 215 892 271.5 965.5 c 128,-1,4
 328 1039 328 1039 412.5 1084.5 c 128,-1,5
 497 1130 497 1130 597 1130 c 0,6,7
 649 1130 649 1130 696.5 1111.5 c 128,-1,8
 744 1093 744 1093 775 1066.5 c 128,-1,9
 806 1040 806 1040 829.5 1013.5 c 128,-1,10
 853 987 853 987 864 968 c 2,11,-1
 874 950 l 1,12,-1
 969 1638 l 1,13,-1
 1139 1653 l 1,14,-1
 904 0 l 1,15,-1
 791 0 l 1,16,-1
 791 182 l 1,17,18
 721 95 721 95 626.5 37.5 c 128,-1,19
 532 -20 532 -20 437 -20 c 0,20,21
 345 -20 345 -20 278 15.5 c 128,-1,22
 211 51 211 51 173.5 114 c 128,-1,23
 136 177 136 177 118.5 252 c 128,-1,24
 101 327 101 327 101 416 c 0,0,1
588 998 m 0,25,26
 514 998 514 998 454.5 953 c 128,-1,27
 395 908 395 908 360 841.5 c 128,-1,28
 325 775 325 775 301.5 691.5 c 128,-1,29
 278 608 278 608 269.5 537.5 c 128,-1,30
 261 467 261 467 261 408 c 128,-1,31
 261 349 261 349 270 300 c 128,-1,32
 279 251 279 251 299.5 206 c 128,-1,33
 320 161 320 161 361 135.5 c 128,-1,34
 402 110 402 110 459 110 c 0,35,36
 508 110 508 110 558.5 127.5 c 128,-1,37
 609 145 609 145 647 170.5 c 128,-1,38
 685 196 685 196 716 221.5 c 128,-1,39
 747 247 747 247 763 264 c 2,40,-1
 779 282 l 1,41,-1
 859 838 l 1,42,43
 855 845 855 845 847.5 855.5 c 128,-1,44
 840 866 840 866 814 893.5 c 128,-1,45
 788 921 788 921 758.5 942 c 128,-1,46
 729 963 729 963 683 980.5 c 128,-1,47
 637 998 637 998 588 998 c 0,25,26
EndSplineSet
EndChar

StartChar: e
Encoding: 101 101 72
Width: 1013
GlyphClass: 2
Flags: W
HStem: -21 131<342.284 654.765> 516 100<460 692.492> 999 131<535.295 798.833>
VStem: 91 164<200.58 515.388> 837 142<734.121 967.277>
DStem2: 698 180 736 62 0.847349 0.531036<-201.913 126.992>
LayerCount: 2
Fore
SplineSet
476 617 m 1,0,-1
 275 616 l 1,1,2
 325 770 325 770 442 883.5 c 128,-1,3
 559 997 559 997 684 999 c 0,4,5
 763 1000 763 1000 800 964.5 c 128,-1,6
 837 929 837 929 837 870 c 0,7,8
 837 806 837 806 808.5 757 c 128,-1,9
 780 708 780 708 729 678.5 c 128,-1,10
 678 649 678 649 614.5 634 c 128,-1,11
 551 619 551 619 476 617 c 1,0,-1
460 517 m 1,12,13
 568 516 568 516 659 536 c 128,-1,14
 750 556 750 556 823 598.5 c 128,-1,15
 896 641 896 641 937.5 715.5 c 128,-1,16
 979 790 979 790 979 890 c 0,17,18
 979 989 979 989 899.5 1059.5 c 128,-1,19
 820 1130 820 1130 686 1130 c 0,20,21
 572 1130 572 1130 463.5 1073.5 c 128,-1,22
 355 1017 355 1017 273 921.5 c 128,-1,23
 191 826 191 826 141 692 c 128,-1,24
 91 558 91 558 91 412 c 0,25,26
 91 214 91 214 186.5 96.5 c 128,-1,27
 282 -21 282 -21 461 -21 c 0,28,29
 514 -21 514 -21 556.5 -14.5 c 128,-1,30
 599 -8 599 -8 636 8.5 c 128,-1,31
 673 25 673 25 687.5 33 c 128,-1,32
 702 41 702 41 736 62 c 2,33,-1
 871 148 l 1,34,-1
 804 250 l 1,35,-1
 698 180 l 1,36,37
 590 110 590 110 491 110 c 0,38,39
 354 110 354 110 293.5 206.5 c 128,-1,40
 233 303 233 303 255 516 c 1,41,-1
 460 517 l 1,12,13
EndSplineSet
EndChar

StartChar: f
Encoding: 102 102 73
Width: 622
GlyphClass: 2
Flags: W
HStem: -411 21G<83 250.831> 1002 78<133 283 459 756> 1440 142<554.098 752.766>
DStem2: 82.8595 -411 248 -411 0.139173 0.990268<22.9831 1427.1 1528.84 1861.94>
LayerCount: 2
Fore
SplineSet
83 -410 m 1,0,-1
 283 1002 l 1,1,-1
 125 1002 l 1,2,-1
 133 1080 l 1,3,-1
 294 1080 l 1,4,-1
 306 1164 l 2,5,6
 324 1290 324 1290 358.5 1375.5 c 128,-1,7
 393 1461 393 1461 442.5 1504.5 c 128,-1,8
 492 1548 492 1548 544.5 1565 c 128,-1,9
 597 1582 597 1582 666 1582 c 0,10,11
 711 1582 711 1582 757.5 1560 c 128,-1,12
 804 1538 804 1538 829 1516.5 c 128,-1,13
 854 1495 854 1495 854 1490 c 1,14,-1
 782 1366 l 1,15,16
 720 1440 720 1440 648 1440 c 0,17,18
 597 1440 597 1440 566 1420.5 c 128,-1,19
 535 1401 535 1401 510.5 1340.5 c 128,-1,20
 486 1280 486 1280 471 1168 c 2,21,-1
 459 1080 l 1,22,-1
 765 1080 l 1,23,-1
 756 1002 l 1,24,-1
 448 1002 l 1,25,-1
 248 -411 l 1,26,-1
 83 -410 l 1,0,-1
EndSplineSet
EndChar

StartChar: g
Encoding: 103 103 74
Width: 1162
GlyphClass: 2
Flags: W
HStem: -430 136<250.396 764.234> 990 154<1010.16 1212> 1008 126<473.017 813.505>
VStem: 41 142<-234.669 -26.6548> 141 124<241.756 358.916> 219.5 152.5<626.336 907.191> 874 141<-204.853 11.6133> 886 147<662.922 940.635>
DStem2: 343 484 369 380 0.979877 0.199604<-106.37 111.996> 714 184 373 99 0.993767 -0.11148<-379.621 142.895>
LayerCount: 2
Fore
SplineSet
819.5 960 m 128,-1,1
 753 1008 753 1008 663 1008 c 0,2,3
 498 1009 498 1009 430 924 c 1,4,5
 373 859 373 859 372 759.5 c 128,-1,6
 371 660 371 660 430 614 c 128,-1,7
 489 568 489 568 570 568 c 1,8,9
 783 564 783 564 850 676 c 1,10,11
 886 733 886 733 886 822.5 c 128,-1,0
 886 912 886 912 819.5 960 c 128,-1,1
498 -294 m 0,12,13
 748 -294 748 -294 834 -202 c 0,14,15
 874 -159 874 -159 874 -98 c 0,16,17
 874 -57 874 -57 848 -10 c 0,18,19
 811 57 811 57 610 76 c 2,20,-1
 373 99 l 1,21,22
 183 -21 183 -21 183 -138 c 0,23,24
 183 -220 183 -220 262.5 -257 c 128,-1,25
 342 -294 342 -294 498 -294 c 0,12,13
714 184 m 2,26,27
 899 163 899 163 970 64 c 0,28,29
 1009 10 1009 10 1015 -78 c 0,30,31
 1021 -163 1021 -163 987 -234 c 0,32,33
 938 -338 938 -338 780 -384 c 1,34,35
 624 -431 624 -431 465 -430 c 0,36,37
 280 -429 280 -429 160.5 -358.5 c 128,-1,38
 41 -288 41 -288 41 -172 c 1,39,40
 47 -70 47 -70 97.5 -10 c 128,-1,41
 148 50 148 50 197 80.5 c 128,-1,42
 246 111 246 111 282 130 c 1,43,-1
 234 151 l 2,44,45
 139 192 139 192 141 312 c 0,46,47
 143 435 143 435 343 484 c 1,48,-1
 452 510 l 1,49,50
 352 529 352 529 285.5 590.5 c 128,-1,51
 219 652 219 652 219.5 755 c 128,-1,52
 220 858 220 858 266 938 c 1,53,54
 327 1057 327 1057 473 1105 c 1,55,56
 557 1134 557 1134 644 1134 c 1,57,58
 800 1131 800 1131 882 1072 c 2,59,-1
 910 1052 l 1,60,-1
 987 1090 l 1,61,62
 1078 1132 1078 1132 1195 1144 c 1,63,-1
 1212 1144 l 1,64,-1
 1212 990 l 1,65,-1
 959 990 l 1,66,-1
 991 947 l 1,67,68
 1033 880 1033 880 1033 818 c 0,69,70
 1033 684 1033 684 938 583 c 0,71,72
 836 475 836 475 639 435 c 2,73,-1
 369 380 l 2,74,75
 265 359 265 359 265 305 c 0,76,77
 265 260 265 260 306.5 242.5 c 128,-1,78
 348 225 348 225 402 219 c 2,79,-1
 714 184 l 2,26,27
EndSplineSet
EndChar

StartChar: h
Encoding: 104 104 75
Width: 1144
GlyphClass: 2
Flags: W
HStem: 0 21G<72 239.836 761 928.862> 999 131<597.043 835.191>
VStem: 865 174<477 959.471>
DStem2: 72 0 237 0 0.139173 0.990268<22.9636 794.462 885.492 1654.35> 761 0 926 0 0.139173 0.990268<22.9636 795.514>
LayerCount: 2
Fore
SplineSet
761 0 m 1,0,-1
 852 636 l 1,1,2
 865 718 865 718 865 791 c 0,3,4
 865 901 865 901 838 950 c 128,-1,5
 811 999 811 999 738 999 c 0,6,7
 553 999 553 999 334 684 c 1,8,-1
 237 0 l 1,9,-1
 72 0 l 1,10,-1
 304 1638 l 1,11,-1
 472 1653 l 1,12,-1
 358 854 l 1,13,14
 527 1130 527 1130 792 1130 c 0,15,16
 912 1130 912 1130 975.5 1053 c 128,-1,17
 1039 976 1039 976 1039 837 c 0,18,19
 1039 797 1039 797 1017 636 c 1,20,-1
 926 0 l 1,21,-1
 761 0 l 1,0,-1
EndSplineSet
EndChar

StartChar: i
Encoding: 105 105 76
Width: 645
GlyphClass: 2
Flags: W
HStem: 0 21G<159 323.811> 1090 20G<312.189 477> 1302 256<381.8 528.598>
VStem: 339 232<1344.1 1515.3>
DStem2: 159 0 321 0 0.139173 0.990268<22.546 1120.91>
LayerCount: 2
Fore
SplineSet
159 0 m 1,0,-1
 315 1110 l 1,1,-1
 477 1110 l 1,2,-1
 321 0 l 1,3,-1
 159 0 l 1,0,-1
571 1452 m 0,4,5
 571 1394 571 1394 530 1348 c 128,-1,6
 489 1302 489 1302 439 1302 c 0,7,8
 395 1302 395 1302 367 1333 c 128,-1,9
 339 1364 339 1364 339 1410 c 0,10,11
 339 1467 339 1467 380.5 1512.5 c 128,-1,12
 422 1558 422 1558 475 1558 c 0,13,14
 517 1558 517 1558 544 1527 c 128,-1,15
 571 1496 571 1496 571 1452 c 0,4,5
EndSplineSet
EndChar

StartChar: j
Encoding: 106 106 77
Width: 613
GlyphClass: 2
Flags: W
HStem: -372 114<39.9819 74.7734> 1090 20G<366.164 537> 1302 256<435.8 582.598>
VStem: 393 232<1344.1 1515.3>
DStem2: 159.546 -372 325.794 -372 0.139173 0.990268<267.265 1496.73>
LayerCount: 2
Fore
SplineSet
369 1110 m 1,0,-1
 537 1110 l 1,1,-1
 400 156 l 2,2,3
 369 -59 369 -59 270.5 -198.5 c 128,-1,4
 172 -338 172 -338 43 -372 c 1,5,-1
 19 -258 l 1,6,7
 78 -218 78 -218 115.5 -177 c 128,-1,8
 153 -136 153 -136 176.5 -80 c 128,-1,9
 200 -24 200 -24 211.5 28.5 c 128,-1,10
 223 81 223 81 236 172 c 2,11,-1
 369 1110 l 1,0,-1
625 1452 m 0,12,13
 625 1394 625 1394 584 1348 c 128,-1,14
 543 1302 543 1302 493 1302 c 0,15,16
 449 1302 449 1302 421 1333 c 128,-1,17
 393 1364 393 1364 393 1410 c 0,18,19
 393 1467 393 1467 434.5 1512.5 c 128,-1,20
 476 1558 476 1558 529 1558 c 0,21,22
 571 1558 571 1558 598 1527 c 128,-1,23
 625 1496 625 1496 625 1452 c 0,12,13
EndSplineSet
EndChar

StartChar: k
Encoding: 107 107 78
Width: 1008
GlyphClass: 2
Flags: W
DStem2: 72 0 237 0 0.139173 0.990268<22.9636 455.566 625.271 1655.2> 324 596 524 602 0.734297 0.678828<150.932 757.187> 524 602 420 524 0.543714 -0.839271<8.9169 631.383>
LayerCount: 2
Fore
SplineSet
524 602 m 1,0,-1
 1072 1110 l 1,1,-1
 880 1110 l 1,2,-1
 324 596 l 1,3,-1
 471 1653 l 1,4,-1
 303 1639 l 1,5,-1
 72 0 l 1,6,-1
 237 0 l 1,7,-1
 300 428 l 1,8,-1
 420 524 l 1,9,-1
 756 0 l 1,10,-1
 914 0 l 1,11,-1
 524 602 l 1,0,-1
EndSplineSet
EndChar

StartChar: l
Encoding: 108 108 79
Width: 588
GlyphClass: 2
Flags: W
HStem: 0 21G<168 335.831>
VStem: 168 399
DStem2: 168 0 333 0 0.139173 0.990268<22.9636 1654.21>
LayerCount: 2
Fore
SplineSet
168 0 m 1,0,-1
 399 1638 l 1,1,-1
 567 1653 l 1,2,-1
 333 0 l 1,3,-1
 168 0 l 1,0,-1
EndSplineSet
EndChar

StartChar: m
Encoding: 109 109 80
Width: 1732
GlyphClass: 2
Flags: W
HStem: 0 21G<72 239.836 721 885.874 1349 1516.87> 998 132<571.781 804.69 1201.79 1434.99> 1090 20G<227.153 352>
VStem: 230 122<1009.29 1110> 834 159<840 954.678> 1461 166<639.133 955.709>
DStem2: 72 0 237 0 0.139173 0.990268<22.9636 814.359> 721 0 883 0 0.139173 0.990268<22.546 834.354> 1349 0 1514 0 0.139173 0.990268<22.9636 840.074>
LayerCount: 2
Fore
SplineSet
981 682 m 1,0,-1
 883 0 l 1,1,-1
 721 0 l 1,2,-1
 825 724 l 2,3,4
 834 784 834 784 834 832 c 0,5,6
 834 914 834 914 807 956 c 128,-1,7
 780 998 780 998 708 998 c 0,8,9
 613 998 613 998 513 914.5 c 128,-1,10
 413 831 413 831 334 684 c 1,11,-1
 237 0 l 1,12,-1
 72 0 l 1,13,-1
 230 1110 l 1,14,-1
 352 1110 l 1,15,-1
 352 849 l 1,16,17
 423 992 423 992 528.5 1061 c 128,-1,18
 634 1130 634 1130 746 1130 c 0,19,20
 990 1130 990 1130 993 840 c 1,21,22
 1024 920 1024 920 1072 979 c 128,-1,23
 1120 1038 1120 1038 1173.5 1069.5 c 128,-1,24
 1227 1101 1227 1101 1278 1115.5 c 128,-1,25
 1329 1130 1329 1130 1379 1130 c 0,26,27
 1501 1130 1501 1130 1564 1053 c 128,-1,28
 1627 976 1627 976 1627 832 c 0,29,30
 1627 786 1627 786 1619 732 c 2,31,-1
 1514 0 l 1,32,-1
 1349 0 l 1,33,-1
 1453 728 l 2,34,35
 1461 789 1461 789 1461 834 c 0,36,37
 1461 916 1461 916 1434.5 957 c 128,-1,38
 1408 998 1408 998 1337 998 c 0,39,40
 1240 998 1240 998 1145.5 923 c 128,-1,41
 1051 848 1051 848 981 682 c 1,0,-1
EndSplineSet
EndChar

StartChar: n
Encoding: 110 110 81
Width: 1144
GlyphClass: 2
Flags: W
HStem: 0 21G<72 239.861 761 928.83> 999 131<600.002 835.445> 1090 20G<227.153 352>
VStem: 230 122<1009.29 1110> 865 174<486.938 959.794>
DStem2: 72 0 237 0 0.139173 0.990268<22.9636 795.327> 761 0 926 0 0.139173 0.990268<22.9636 795.514>
LayerCount: 2
Fore
SplineSet
761 0 m 1,0,-1
 852 636 l 1,1,2
 865 718 865 718 865 791 c 0,3,4
 865 901 865 901 838 950 c 128,-1,5
 811 999 811 999 738 999 c 0,6,7
 553 999 553 999 335 685 c 1,8,-1
 237 0 l 1,9,-1
 72 0 l 1,10,-1
 230 1110 l 1,11,-1
 352 1110 l 1,12,-1
 352 849 l 1,13,14
 525 1130 525 1130 796 1130 c 0,15,16
 916 1130 916 1130 977.5 1053.5 c 128,-1,17
 1039 977 1039 977 1039 837 c 0,18,19
 1039 805 1039 805 1016 636 c 2,20,-1
 926 0 l 1,21,-1
 761 0 l 1,0,-1
EndSplineSet
EndChar

StartChar: o
Encoding: 111 111 82
Width: 1126
GlyphClass: 2
Flags: W
HStem: -21 131<360.351 662.971> 998 132<477.686 778.051>
VStem: 101 162<218.922 708.516> 869 162<389.637 897.594>
LayerCount: 2
Fore
SplineSet
638 998 m 0,0,1
 567 998 567 998 507.5 969.5 c 128,-1,2
 448 941 448 941 408.5 892.5 c 128,-1,3
 369 844 369 844 339.5 785 c 128,-1,4
 310 726 310 726 294 660 c 128,-1,5
 278 594 278 594 270.5 536 c 128,-1,6
 263 478 263 478 263 426 c 0,7,8
 263 276 263 276 323.5 193 c 128,-1,9
 384 110 384 110 505 110 c 0,10,11
 576 110 576 110 634 138.5 c 128,-1,12
 692 167 692 167 730.5 215.5 c 128,-1,13
 769 264 769 264 797 322 c 128,-1,14
 825 380 825 380 840 447 c 128,-1,15
 855 514 855 514 862 571.5 c 128,-1,16
 869 629 869 629 869 682 c 0,17,18
 869 998 869 998 638 998 c 0,0,1
101 426 m 0,19,20
 101 495 101 495 113 569 c 128,-1,21
 125 643 125 643 149.5 724 c 128,-1,22
 174 805 174 805 217.5 876 c 128,-1,23
 261 947 261 947 319 1005 c 128,-1,24
 377 1063 377 1063 462 1096.5 c 128,-1,25
 547 1130 547 1130 647 1130 c 0,26,27
 749 1130 749 1130 824.5 1094.5 c 128,-1,28
 900 1059 900 1059 944.5 996 c 128,-1,29
 989 933 989 933 1010 854 c 128,-1,30
 1031 775 1031 775 1031 680 c 0,31,32
 1031 577 1031 577 1010 477.5 c 128,-1,33
 989 378 989 378 944.5 287.5 c 128,-1,34
 900 197 900 197 836.5 128.5 c 128,-1,35
 773 60 773 60 682.5 19.5 c 128,-1,36
 592 -21 592 -21 485 -21 c 0,37,38
 384 -21 384 -21 308.5 14 c 128,-1,39
 233 49 233 49 188.5 111.5 c 128,-1,40
 144 174 144 174 122.5 252.5 c 128,-1,41
 101 331 101 331 101 426 c 0,19,20
EndSplineSet
EndChar

StartChar: p
Encoding: 112 112 83
Width: 1133
GlyphClass: 2
Flags: W
HStem: -410 21G<4 173.797> -20 130<397.737 685.148> 998 132<580.196 823.098> 1090 20G<217.158 341>
VStem: 220 121<1009.12 1110> 872 160<395.615 947.668>
DStem2: 4 -410 171 -410 0.139173 0.990268<23.2419 600.809 673.945 1215.32>
LayerCount: 2
Fore
SplineSet
171 -410 m 1,0,-1
 4 -410 l 1,1,-1
 220 1110 l 1,2,-1
 341 1110 l 1,3,-1
 340 830 l 1,4,5
 401 957 401 957 516 1043.5 c 128,-1,6
 631 1130 631 1130 733 1130 c 0,7,8
 806 1130 806 1130 860.5 1105.5 c 128,-1,9
 915 1081 915 1081 947.5 1042 c 128,-1,10
 980 1003 980 1003 999.5 944 c 128,-1,11
 1019 885 1019 885 1025.5 827 c 128,-1,12
 1032 769 1032 769 1032 696 c 0,13,14
 1032 603 1032 603 1014.5 506.5 c 128,-1,15
 997 410 997 410 958 314.5 c 128,-1,16
 919 219 919 219 863 145.5 c 128,-1,17
 807 72 807 72 722.5 26 c 128,-1,18
 638 -20 638 -20 538 -20 c 0,19,20
 451 -20 451 -20 373.5 32 c 128,-1,21
 296 84 296 84 251 162 c 1,22,-1
 171 -410 l 1,0,-1
872 706 m 0,23,24
 872 745 872 745 871.5 769 c 128,-1,25
 871 793 871 793 867.5 827.5 c 128,-1,26
 864 862 864 862 857.5 883.5 c 128,-1,27
 851 905 851 905 839 929 c 128,-1,28
 827 953 827 953 810 966.5 c 128,-1,29
 793 980 793 980 767.5 989 c 128,-1,30
 742 998 742 998 709 998 c 0,31,32
 658 998 658 998 599 965.5 c 128,-1,33
 540 933 540 933 488 882.5 c 128,-1,34
 436 832 436 832 395 781.5 c 128,-1,35
 354 731 354 731 324 684 c 1,36,-1
 267 273 l 1,37,38
 272 266 272 266 280.5 255 c 128,-1,39
 289 244 289 244 318 216 c 128,-1,40
 347 188 347 188 378.5 166.5 c 128,-1,41
 410 145 410 145 458 127.5 c 128,-1,42
 506 110 506 110 555 110 c 0,43,44
 658 110 658 110 732 201 c 128,-1,45
 806 292 806 292 839 424 c 128,-1,46
 872 556 872 556 872 706 c 0,23,24
EndSplineSet
EndChar

StartChar: q
Encoding: 113 113 84
Width: 1108
GlyphClass: 2
Flags: W
HStem: -20 130<337.631 600.085> 998 132<440.494 721.147> 1090 20G<942.958 1067>
VStem: 101 160<195.812 706.211> 949 118<1062.54 1110>
DStem2: 673 -502 837.908 -502 0.139173 0.990268<45.167 669.769 785.877 1337.14>
LayerCount: 2
Fore
SplineSet
101 418 m 0,0,1
 101 506 101 506 117.5 599.5 c 128,-1,2
 134 693 134 693 172 789 c 128,-1,3
 210 885 210 885 265 960 c 128,-1,4
 320 1035 320 1035 404.5 1082.5 c 128,-1,5
 489 1130 489 1130 591 1130 c 0,6,7
 649 1130 649 1130 701.5 1108 c 128,-1,8
 754 1086 754 1086 787 1055 c 128,-1,9
 820 1024 820 1024 845 993 c 128,-1,10
 870 962 870 962 880 940 c 2,11,-1
 891 918 l 1,12,-1
 949 1110 l 1,13,-1
 1067 1110 l 1,14,-1
 841 -480 l 1,15,-1
 673 -502 l 1,16,-1
 768 161 l 1,17,18
 703 83 703 83 613.5 31.5 c 128,-1,19
 524 -20 524 -20 437 -20 c 0,20,21
 364 -20 364 -20 305.5 4.5 c 128,-1,22
 247 29 247 29 209.5 69.5 c 128,-1,23
 172 110 172 110 147 167 c 128,-1,24
 122 224 122 224 111.5 286 c 128,-1,25
 101 348 101 348 101 418 c 0,0,1
784 276 m 1,26,-1
 860 822 l 1,27,-1
 846 841 l 2,28,29
 837 853 837 853 807.5 883.5 c 128,-1,30
 778 914 778 914 746.5 937 c 128,-1,31
 715 960 715 960 667.5 979 c 128,-1,32
 620 998 620 998 573 998 c 0,33,34
 335 998 335 998 273 556 c 0,35,36
 261 464 261 464 261 408 c 0,37,38
 261 362 261 362 266.5 321.5 c 128,-1,39
 272 281 272 281 285.5 241 c 128,-1,40
 299 201 299 201 321 173 c 128,-1,41
 343 145 343 145 378 127.5 c 128,-1,42
 413 110 413 110 459 110 c 0,43,44
 508 110 508 110 559.5 127 c 128,-1,45
 611 144 611 144 649.5 168.5 c 128,-1,46
 688 193 688 193 719.5 217.5 c 128,-1,47
 751 242 751 242 768 259 c 2,48,-1
 784 276 l 1,26,-1
EndSplineSet
EndChar

StartChar: r
Encoding: 114 114 85
Width: 742
GlyphClass: 2
Flags: W
HStem: 0 21G<105 272.814> 970 160<600.844 792.091> 1090 20G<259.171 387>
VStem: 262 125<1008.64 1110>
DStem2: 105 0 270 0 0.139173 0.990268<22.9636 762.175>
LayerCount: 2
Fore
SplineSet
729 1130 m 0,0,1
 756 1130 756 1130 777 1127 c 128,-1,2
 798 1124 798 1124 806 1121 c 2,3,-1
 813 1118 l 1,4,-1
 791 963 l 1,5,6
 765 970 765 970 735 970 c 0,7,8
 684 970 684 970 627.5 945.5 c 128,-1,9
 571 921 571 921 527.5 886 c 128,-1,10
 484 851 484 851 448 816 c 128,-1,11
 412 781 412 781 392 756 c 2,12,-1
 373 732 l 1,13,-1
 270 0 l 1,14,-1
 105 0 l 1,15,-1
 262 1110 l 1,16,-1
 387 1110 l 1,17,-1
 387 849 l 1,18,19
 453 973 453 973 552.5 1051.5 c 128,-1,20
 652 1130 652 1130 729 1130 c 0,0,1
EndSplineSet
EndChar

StartChar: s
Encoding: 115 115 86
Width: 919
GlyphClass: 2
Flags: W
HStem: -22 132<228.823 581.891> 998 133<375.466 705.601>
VStem: 164 146<743.465 933.074> 661 154<189.648 415.995>
DStem2: 136 208 56 96 0.859984 -0.51032<0 263.407> 435 694 381 543 0.920874 -0.389859<-111.93 287.177> 776 1072 713 949 0.847998 -0.529999<-149.801 106.848>
LayerCount: 2
Fore
SplineSet
713 949 m 2,0,1
 640 998 640 998 537 998 c 0,2,3
 419 998 419 998 364.5 944 c 128,-1,4
 310 890 310 890 310 822 c 0,5,6
 310 774 310 774 336 750 c 1,7,8
 363 727 363 727 435 694 c 2,9,-1
 563 635 l 1,10,11
 633 601 633 601 673.5 576.5 c 128,-1,12
 714 552 714 552 749.5 518 c 128,-1,13
 785 484 785 484 800 443.5 c 128,-1,14
 815 403 815 403 815 349 c 0,15,16
 815 298 815 298 804 249.5 c 128,-1,17
 793 201 793 201 764.5 150.5 c 128,-1,18
 736 100 736 100 692 63 c 128,-1,19
 648 26 648 26 575 2 c 128,-1,20
 502 -22 502 -22 409 -22 c 0,21,22
 332 -22 332 -22 270 -8 c 0,23,24
 210 5 210 5 147 42 c 2,25,-1
 56 96 l 1,26,-1
 136 208 l 1,27,-1
 208 166 l 2,28,29
 304 110 304 110 421 110 c 0,30,31
 481 110 481 110 526.5 126.5 c 128,-1,32
 572 143 572 143 596.5 167 c 128,-1,33
 621 191 621 191 636.5 223.5 c 128,-1,34
 652 256 652 256 656.5 281.5 c 128,-1,35
 661 307 661 307 661 333 c 0,36,37
 661 385 661 385 631 417 c 0,38,39
 600 450 600 450 518 485 c 2,40,-1
 381 543 l 1,41,42
 312 571 312 571 266.5 604 c 128,-1,43
 221 637 221 637 200 673 c 128,-1,44
 179 709 179 709 171.5 739 c 128,-1,45
 164 769 164 769 164 805 c 0,46,47
 164 962 164 962 269 1046.5 c 128,-1,48
 374 1131 374 1131 535 1131 c 0,49,50
 682 1131 682 1131 776 1072 c 2,51,-1
 872 1012 l 1,52,-1
 792 896 l 1,53,-1
 713 949 l 2,0,1
EndSplineSet
EndChar

StartChar: t
Encoding: 116 116 87
Width: 780
GlyphClass: 2
Flags: W
HStem: -16 134<348.39 540.237>
VStem: 171 163<145.846 224 331 420.069>
DStem2: 131.562 -16 296.232 -16 0.139173 0.990268<253.314 1028.47 1130.07 1588.08> 533 158 597 52 0.853504 0.521087<-131.667 103.436>
LayerCount: 2
Fore
SplineSet
533 158 m 2,0,1
 495 133 495 133 467 125.5 c 128,-1,2
 439 118 439 118 402 118 c 0,3,4
 372 118 372 118 353 145 c 128,-1,5
 334 172 334 172 334 210 c 0,6,7
 334 253 334 253 345 331 c 2,8,-1
 442 1002 l 1,9,-1
 698 1002 l 1,10,-1
 710 1080 l 1,11,-1
 453 1080 l 1,12,-1
 526 1602 l 1,13,-1
 357 1556 l 1,14,-1
 289 1080 l 1,15,-1
 134 1080 l 1,16,-1
 124 1002 l 1,17,-1
 278 1002 l 1,18,-1
 183 350 l 2,19,20
 171 268 171 268 171 224 c 0,21,22
 171 112 171 112 229.5 48 c 128,-1,23
 288 -16 288 -16 383 -16 c 0,24,25
 444 -16 444 -16 488 -1.5 c 128,-1,26
 532 13 532 13 597 52 c 2,27,-1
 692 110 l 1,28,-1
 620 214 l 1,29,-1
 533 158 l 2,0,1
EndSplineSet
EndChar

StartChar: u
Encoding: 117 117 88
Width: 1120
GlyphClass: 2
Flags: W
HStem: -20 130<328.982 614.332> 0 21G<793 924.829> 1090 20G<208.126 374 912.15 1079>
VStem: 100 168<171.494 503.891> 793 129<0 101.356>
DStem2: 50.0053 -20 214.038 -20 0.139173 0.990268<368.275 1141.41> 754.605 -20 919.189 -20 0.139173 0.990268<326.174 1141.33>
LayerCount: 2
Fore
SplineSet
1079 1110 m 1,0,-1
 922 0 l 1,1,-1
 793 0 l 1,2,-1
 799 214 l 1,3,4
 665 -20 665 -20 425 -20 c 0,5,6
 277 -20 277 -20 188.5 61.5 c 128,-1,7
 100 143 100 143 100 306 c 0,8,9
 100 341 100 341 111 414 c 2,10,-1
 211 1110 l 1,11,-1
 374 1110 l 1,12,-1
 277 428 l 2,13,14
 268 360 268 360 268 320 c 0,15,16
 268 219 268 219 318 164.5 c 128,-1,17
 368 110 368 110 453 110 c 0,18,19
 508 110 508 110 564.5 130 c 128,-1,20
 621 150 621 150 661.5 178 c 128,-1,21
 702 206 702 206 734.5 234.5 c 128,-1,22
 767 263 767 263 784 283 c 2,23,-1
 800 303 l 1,24,-1
 915 1110 l 1,25,-1
 1079 1110 l 1,0,-1
EndSplineSet
EndChar

StartChar: v
Encoding: 118 118 89
Width: 944
GlyphClass: 2
Flags: W
HStem: 0 21G<289.631 493.937> 1090 20G<106 267.263 800.192 981>
DStem2: 264 1110 106 1110 0.166127 -0.986104<0 915.859> 411 206 485 0 0.407969 0.912996<0 987.72>
LayerCount: 2
Fore
SplineSet
432 254 m 1,0,-1
 809 1110 l 1,1,-1
 981 1110 l 1,2,-1
 485 0 l 1,3,-1
 293 0 l 1,4,-1
 106 1110 l 1,5,-1
 264 1110 l 1,6,-1
 403 258 l 1,7,-1
 411 206 l 1,8,-1
 432 254 l 1,0,-1
EndSplineSet
EndChar

StartChar: w
Encoding: 119 119 90
Width: 1417
GlyphClass: 2
Flags: W
HStem: 0 21G<225.928 422.168 815.742 1023.02> 1090 20G<113 268.593 683.898 866.471 1288.63 1460>
DStem2: 267 1110 113 1110 0.103052 -0.994676<0 977.847> 345 135 415 0 0.334438 0.942418<0 910.905> 865 1110 761 890 0.0736456 -0.997284<146.699 977.655> 937 135 1015 0 0.372111 0.928188<0 940.99>
LayerCount: 2
Fore
SplineSet
959 196 m 1,0,-1
 1296 1110 l 1,1,-1
 1460 1110 l 1,2,-1
 1015 0 l 1,3,-1
 817 0 l 1,4,-1
 761 890 l 1,5,-1
 758 955 l 1,6,-1
 739 904 l 1,7,-1
 415 0 l 1,8,-1
 228 0 l 1,9,-1
 113 1110 l 1,10,-1
 267 1110 l 1,11,-1
 339 206 l 1,12,-1
 345 135 l 1,13,-1
 370 206 l 1,14,-1
 691 1110 l 1,15,-1
 865 1110 l 1,16,-1
 932 199 l 1,17,-1
 937 135 l 1,18,-1
 959 196 l 1,0,-1
EndSplineSet
EndChar

StartChar: x
Encoding: 120 120 91
Width: 975
GlyphClass: 2
Flags: W
HStem: 0 21G<-16 180.505 657.471 842> 1090 20G<138 312.945 797.771 990>
DStem2: -16 0 166 0 0.596058 0.802942<108.482 641.323 843.931 1384.8> 304 1110 138 1110 0.436154 -0.899872<0 435.784 687.749 1156.75>
LayerCount: 2
Fore
SplineSet
526 708 m 1,0,-1
 812 1110 l 1,1,-1
 990 1110 l 1,2,-1
 589 586 l 1,3,-1
 566 556 l 1,4,-1
 583 520 l 1,5,-1
 842 0 l 1,6,-1
 666 0 l 1,7,-1
 492 408 l 1,8,-1
 482 432 l 1,9,-1
 478 432 l 1,10,-1
 459 404 l 1,11,-1
 166 0 l 1,12,-1
 -16 0 l 1,13,-1
 394 532 l 1,14,-1
 412 556 l 1,15,-1
 394 592 l 1,16,-1
 138 1110 l 1,17,-1
 304 1110 l 1,18,-1
 482 712 l 1,19,-1
 500 668 l 1,20,-1
 526 708 l 1,0,-1
EndSplineSet
EndChar

StartChar: y
Encoding: 121 121 92
Width: 977
GlyphClass: 2
Flags: W
HStem: -458 21G<30.4839 113.71> 1090 20G<109 287.044 812.538 995>
DStem2: 7 -334 35 -458 0.969201 0.246272<0 229.55> 283 1110 109 1110 0.204588 -0.978848<0 884.736> 341 0 430 -146 0.410244 0.911976<-329.065 0 267.876 1209.21>
LayerCount: 2
Fore
SplineSet
116 -303 m 2,0,1
 186 -283 186 -283 230.5 -218.5 c 128,-1,2
 275 -154 275 -154 341 0 c 1,3,-1
 109 1110 l 1,4,-1
 283 1110 l 1,5,-1
 412 472 l 2,6,7
 456 250 456 250 456 242 c 1,8,-1
 524 408 l 1,9,-1
 821 1110 l 1,10,-1
 995 1110 l 1,11,-1
 489 0 l 2,12,13
 481 -18 481 -18 463 -64 c 2,14,-1
 430 -146 l 2,15,16
 415 -183 415 -183 387 -231.5 c 128,-1,17
 359 -280 359 -280 329.5 -315.5 c 128,-1,18
 300 -351 300 -351 254.5 -382.5 c 128,-1,19
 209 -414 209 -414 157 -427 c 2,20,-1
 35 -458 l 1,21,-1
 7 -334 l 1,22,-1
 116 -303 l 2,0,1
EndSplineSet
EndChar

StartChar: z
Encoding: 122 122 93
Width: 893
GlyphClass: 2
Flags: W
HStem: 0 146<209 725> 974 136<221 719>
DStem2: 61 164 209 146 0.63052 0.776173<79.3459 1043.58>
LayerCount: 2
Fore
SplineSet
881 1110 m 1,0,-1
 859 946 l 1,1,-1
 523 532 l 1,2,-1
 209 146 l 1,3,-1
 375 146 l 1,4,-1
 745 146 l 1,5,-1
 725 0 l 1,6,-1
 41 0 l 1,7,-1
 61 164 l 1,8,-1
 433 620 l 1,9,-1
 719 974 l 1,10,-1
 549 974 l 1,11,-1
 201 974 l 1,12,-1
 221 1110 l 1,13,-1
 881 1110 l 1,0,-1
EndSplineSet
EndChar

StartChar: braceleft
Encoding: 123 123 94
Width: 914
GlyphClass: 2
Flags: W
HStem: -210 169<474.484 562.5> 1327 161.5<651.184 753.5>
VStem: 289.5 158.5<-14.2734 66 127.5 538.117>
LayerCount: 2
Fore
SplineSet
552 1002 m 0,0,1
 563 1078 563 1078 576.5 1132.5 c 128,-1,2
 590 1187 590 1187 609.5 1223 c 128,-1,3
 629 1259 629 1259 648.5 1280.5 c 128,-1,4
 668 1302 668 1302 697.5 1313 c 128,-1,5
 727 1324 727 1324 753.5 1327 c 128,-1,6
 780 1330 780 1330 821 1330 c 1,7,-1
 844 1499 l 1,8,9
 780 1499 780 1499 728 1488.5 c 128,-1,10
 676 1478 676 1478 620 1447.5 c 128,-1,11
 564 1417 564 1417 523 1366 c 128,-1,12
 482 1315 482 1315 448 1229 c 128,-1,13
 414 1143 414 1143 398 1027 c 0,14,15
 358 739 358 739 229 739 c 1,16,-1
 202 550 l 1,17,18
 331 550 331 550 291 262 c 0,19,20
 281 189 281 189 280.5 127.5 c 128,-1,21
 280 66 280 66 289.5 20 c 128,-1,22
 299 -26 299 -26 314.5 -62.5 c 128,-1,23
 330 -99 330 -99 354.5 -123.5 c 128,-1,24
 379 -148 379 -148 405.5 -165.5 c 128,-1,25
 432 -183 432 -183 466 -192.5 c 128,-1,26
 500 -202 500 -202 533 -206 c 128,-1,27
 566 -210 566 -210 604 -210 c 1,28,-1
 629 -41 l 1,29,30
 588 -41 588 -41 562.5 -38 c 128,-1,31
 537 -35 537 -35 510.5 -24 c 128,-1,32
 484 -13 484 -13 470.5 8.5 c 128,-1,33
 457 30 457 30 448 66 c 128,-1,34
 439 102 439 102 440.5 156.5 c 128,-1,35
 442 211 442 211 453 287 c 0,36,37
 475 445 475 445 436.5 531 c 128,-1,38
 398 617 398 617 333 645 c 1,39,40
 509 708 509 708 552 1002 c 0,0,1
EndSplineSet
EndChar

StartChar: bar
Encoding: 124 124 95
Width: 548
GlyphClass: 2
Flags: W
VStem: 152 420
DStem2: 152 -110 318 -110 0.139173 0.990268<23.1027 1823.77>
LayerCount: 2
Fore
SplineSet
152 -110 m 1,0,-1
 406 1696 l 1,1,-1
 572 1696 l 1,2,-1
 318 -110 l 1,3,-1
 152 -110 l 1,0,-1
EndSplineSet
EndChar

StartChar: braceright
Encoding: 125 125 96
Width: 904
GlyphClass: 2
Flags: W
HStem: -210 169<147 302.892> 1330 169<388 504.578>
VStem: 531 150.5<744.34 1303>
LayerCount: 2
Fore
SplineSet
517 1002 m 0,0,1
 531 1092 531 1092 531 1153.5 c 128,-1,2
 531 1215 531 1215 521.5 1250 c 128,-1,3
 512 1285 512 1285 486.5 1303 c 128,-1,4
 461 1321 461 1321 434 1325.5 c 128,-1,5
 407 1330 407 1330 361 1330 c 1,6,-1
 388 1499 l 1,7,8
 429 1499 429 1499 463.5 1494 c 128,-1,9
 498 1489 498 1489 533 1475 c 128,-1,10
 568 1461 568 1461 593.5 1439 c 128,-1,11
 619 1417 619 1417 640 1380.5 c 128,-1,12
 661 1344 661 1344 671.5 1295.5 c 128,-1,13
 682 1247 682 1247 681.5 1179 c 128,-1,14
 681 1111 681 1111 668 1027 c 0,15,16
 623 739 623 739 742 739 c 1,17,-1
 713 550 l 1,18,19
 593 550 593 550 548 262 c 0,20,21
 530 146 530 146 496.5 60 c 128,-1,22
 463 -26 463 -26 423 -77 c 128,-1,23
 383 -128 383 -128 330.5 -158.5 c 128,-1,24
 278 -189 278 -189 229.5 -199.5 c 128,-1,25
 181 -210 181 -210 122 -210 c 1,26,-1
 147 -41 l 1,27,28
 185 -41 185 -41 209.5 -38 c 128,-1,29
 234 -35 234 -35 262 -24 c 128,-1,30
 290 -13 290 -13 308.5 8.5 c 128,-1,31
 327 30 327 30 346 66 c 128,-1,32
 365 102 365 102 379 156.5 c 128,-1,33
 393 211 393 211 405 287 c 0,34,35
 418 370 418 370 442.5 436 c 128,-1,36
 467 502 467 502 498 543 c 128,-1,37
 529 584 529 584 558.5 608.5 c 128,-1,38
 588 633 588 633 619 645 c 1,39,40
 472 708 472 708 517 1002 c 0,0,1
EndSplineSet
EndChar

StartChar: asciitilde
Encoding: 126 126 97
Width: 708
GlyphClass: 2
Flags: W
HStem: 1268 142<477.997 638.688> 1388 146<226.027 378.27>
VStem: 60 146<1274 1357.57> 656 146<1418.77 1520>
DStem2: 372.5 1514.5 352 1358 0.906392 -0.422439<-33.3113 236.89>
LayerCount: 2
Fore
SplineSet
284 1534 m 0,0,1
 326 1534 326 1534 372.5 1514.5 c 128,-1,2
 419 1495 419 1495 451.5 1472 c 128,-1,3
 484 1449 484 1449 521.5 1429.5 c 128,-1,4
 559 1410 559 1410 586 1410 c 0,5,6
 619 1410 619 1410 634 1439.5 c 128,-1,7
 649 1469 649 1469 656 1520 c 1,8,-1
 802 1520 l 1,9,10
 802 1519 802 1519 801 1517 c 128,-1,11
 800 1515 800 1515 800 1514 c 0,12,13
 769 1286 769 1286 610 1270 c 0,14,15
 606 1270 606 1270 598 1269 c 128,-1,16
 590 1268 590 1268 586 1268 c 0,17,18
 530 1268 530 1268 466.5 1298 c 128,-1,19
 403 1328 403 1328 352 1358 c 128,-1,20
 301 1388 301 1388 276 1388 c 0,21,22
 243 1388 243 1388 228 1358.5 c 128,-1,23
 213 1329 213 1329 206 1274 c 1,24,-1
 60 1274 l 1,25,-1
 60 1280 l 1,26,27
 95 1534 95 1534 284 1534 c 0,0,1
EndSplineSet
EndChar

StartChar: exclamdown
Encoding: 161 161 99
Width: 770
GlyphClass: 2
Flags: W
HStem: -1 21G<222 435.587> 1344 256<461.283 608.716>
VStem: 419 232<1386.04 1557.9>
LayerCount: 2
Fore
SplineSet
419 1450 m 0,0,1
 419 1508 419 1508 460 1554 c 128,-1,2
 501 1600 501 1600 551 1600 c 0,3,4
 595 1600 595 1600 623 1569 c 128,-1,5
 651 1538 651 1538 651 1492 c 0,6,7
 651 1435 651 1435 610 1389.5 c 128,-1,8
 569 1344 569 1344 515 1344 c 0,9,10
 474 1344 474 1344 446.5 1375 c 128,-1,11
 419 1406 419 1406 419 1450 c 0,0,1
449 1179 m 1,12,-1
 549 1179 l 1,13,-1
 459 200 l 1,14,-1
 433 -1 l 1,15,-1
 222 -1 l 1,16,-1
 252 202 l 1,17,-1
 449 1179 l 1,12,-1
EndSplineSet
EndChar

StartChar: cent
Encoding: 162 162 100
Width: 1050
GlyphClass: 2
Flags: W
HStem: -20 142<422.321 542 662 836.273> 1042 142<527.335 692 812 985.125>
VStem: 140 169<237.096 737.559>
DStem2: 526 -136 624 -136 0.139173 0.990268<13.639 117.098 274.417 1193.6 1346.75 1448.16>
LayerCount: 2
Fore
SplineSet
542 -20 m 1,0,1
 354 -15 354 -15 247 104 c 128,-1,2
 140 223 140 223 140 440 c 0,3,4
 140 508 140 508 150 578 c 0,5,6
 172 734 172 734 226.5 853 c 128,-1,7
 281 972 281 972 357.5 1044 c 128,-1,8
 434 1116 434 1116 523 1152 c 128,-1,9
 612 1188 612 1188 712 1190 c 1,10,-1
 728 1298 l 1,11,-1
 828 1298 l 1,12,-1
 812 1184 l 1,13,14
 872 1177 872 1177 924 1161.5 c 128,-1,15
 976 1146 976 1146 998 1134 c 2,16,-1
 1020 1122 l 1,17,-1
 1024 978 l 1,18,19
 1014 984 1014 984 996 992.5 c 128,-1,20
 978 1001 978 1001 917 1018.5 c 128,-1,21
 856 1036 856 1036 790 1042 c 1,22,-1
 662 122 l 1,23,24
 727 127 727 127 790 143.5 c 128,-1,25
 853 160 853 160 884 174 c 2,26,-1
 914 188 l 1,27,-1
 868 38 l 1,28,29
 780 -4 780 -4 642 -18 c 1,30,-1
 624 -136 l 1,31,-1
 526 -136 l 1,32,-1
 542 -20 l 1,0,1
564 122 m 1,33,-1
 692 1046 l 1,34,35
 538 1040 538 1040 446 927.5 c 128,-1,36
 354 815 354 815 320 578 c 0,37,38
 309 506 309 506 309 436 c 0,39,40
 309 282 309 282 374 206.5 c 128,-1,41
 439 131 439 131 564 122 c 1,33,-1
EndSplineSet
EndChar

StartChar: sterling
Encoding: 163 163 101
Width: 1140
GlyphClass: 2
Flags: W
HStem: 1180 142<524.767 878.917>
VStem: 263 152<733.947 1068.21> 342 147<391.992 576>
LayerCount: 2
Fore
SplineSet
681 1322 m 0,0,1
 572 1322 572 1322 475 1263 c 128,-1,2
 378 1204 378 1204 320.5 1109.5 c 128,-1,3
 263 1015 263 1015 263 912 c 0,4,5
 263 892 263 892 265.5 871 c 128,-1,6
 268 850 268 850 272 832 c 128,-1,7
 276 814 276 814 281.5 796.5 c 128,-1,8
 287 779 287 779 293 765 c 2,9,-1
 305 738 l 2,10,11
 311 725 311 725 316 715.5 c 128,-1,12
 321 706 321 706 326 700 c 1,13,-1
 332 690 l 2,14,15
 335 686 335 686 335 687 c 1,16,-1
 175 687 l 1,17,-1
 159 576 l 1,18,-1
 342 576 l 1,19,20
 330 493 330 493 306 418.5 c 128,-1,21
 282 344 282 344 259 299.5 c 128,-1,22
 236 255 236 255 206.5 214.5 c 128,-1,23
 177 174 177 174 165.5 162 c 128,-1,24
 154 150 154 150 141 139 c 1,25,-1
 139 137 l 1,26,-1
 126 0 l 1,27,-1
 871 0 l 1,28,-1
 889 134 l 1,29,-1
 298 134 l 1,30,31
 304 139 304 139 314 150 c 128,-1,32
 324 161 324 161 352 200.5 c 128,-1,33
 380 240 380 240 403.5 286.5 c 128,-1,34
 427 333 427 333 452 411 c 128,-1,35
 477 489 477 489 489 576 c 1,36,-1
 887 576 l 1,37,-1
 903 687 l 1,38,-1
 488 687 l 1,39,40
 480 698 480 698 468 718 c 128,-1,41
 456 738 456 738 435.5 796.5 c 128,-1,42
 415 855 415 855 415 908 c 0,43,44
 415 960 415 960 430 1006.5 c 128,-1,45
 445 1053 445 1053 477 1093 c 128,-1,46
 509 1133 509 1133 566 1156.5 c 128,-1,47
 623 1180 623 1180 700 1180 c 0,48,49
 744 1180 744 1180 791.5 1167.5 c 128,-1,50
 839 1155 839 1155 875.5 1137 c 128,-1,51
 912 1119 912 1119 942 1101 c 128,-1,52
 972 1083 972 1083 988 1070 c 1,53,-1
 1005 1058 l 1,54,-1
 1070 1189 l 1,55,-1
 1056 1202 l 2,56,57
 1043 1214 1043 1214 1011.5 1234.5 c 128,-1,58
 980 1255 980 1255 937 1274.5 c 128,-1,59
 894 1294 894 1294 826 1308 c 128,-1,60
 758 1322 758 1322 681 1322 c 0,0,1
EndSplineSet
EndChar

StartChar: currency
Encoding: 164 164 102
Width: 1315
GlyphClass: 2
Flags: W
HStem: 558 141<559.627 834.459> 1266 143<639.203 915.142>
VStem: 335 134<790.901 1092.65> 1004 135<874.065 1175.59>
DStem2: 170 555 268 430 0.730588 0.682819<0 274.335 1142.43 1409.76> 422 1526 289 1402 0.619461 -0.785027<14.9551 251.141 989.457 1237.39>
LayerCount: 2
Fore
SplineSet
785 1266 m 0,0,1
 668 1266 668 1266 568.5 1164 c 128,-1,2
 469 1062 469 1062 469 935 c 0,3,4
 469 833 469 833 534 766 c 128,-1,5
 599 699 599 699 689 699 c 0,6,7
 765 699 765 699 838.5 746 c 128,-1,8
 912 793 912 793 958 870.5 c 128,-1,9
 1004 948 1004 948 1004 1032 c 0,10,11
 1004 1133 1004 1133 939.5 1199.5 c 128,-1,12
 875 1266 875 1266 785 1266 c 0,0,1
1139 1064 m 0,13,14
 1139 897 1139 897 1030 757 c 1,15,-1
 1189 555 l 1,16,-1
 1056 430 l 1,17,-1
 896 633 l 1,18,19
 782 558 782 558 662 558 c 0,20,21
 554 558 554 558 470 619 c 1,22,-1
 268 430 l 1,23,-1
 170 555 l 1,24,-1
 370 742 l 1,25,26
 335 815 335 815 335 905 c 0,27,28
 335 1069 335 1069 442 1208 c 1,29,-1
 289 1402 l 1,30,-1
 422 1526 l 1,31,-1
 575 1333 l 1,32,33
 688 1409 688 1409 812 1409 c 0,34,35
 926 1409 926 1409 1012 1341 c 1,36,-1
 1210 1526 l 1,37,-1
 1308 1402 l 1,38,-1
 1108 1215 l 1,39,40
 1139 1147 1139 1147 1139 1064 c 0,13,14
EndSplineSet
EndChar

StartChar: yen
Encoding: 165 165 103
Width: 1143
GlyphClass: 2
Flags: W
HStem: 0 21G<426 605.817> 355 131<214 476 671 928> 616 131<250 509 730 965> 1559 20G<210 379.031 1088.09 1263>
DStem2: 372 1579 210 1579 0.338199 -0.941075<0 774.843> 426 0 603 0 0.139173 0.990268<24.6336 358.504 515.368 622.113> 629 848 730 747 0.539427 0.842032<0 870.135>
LayerCount: 2
Fore
SplineSet
629 848 m 1,0,-1
 1101 1579 l 1,1,-1
 1263 1579 l 1,2,-1
 730 747 l 1,3,-1
 983 747 l 1,4,-1
 965 616 l 1,5,-1
 689 616 l 1,6,-1
 671 486 l 1,7,-1
 947 486 l 1,8,-1
 928 355 l 1,9,-1
 653 355 l 1,10,-1
 603 0 l 1,11,-1
 426 0 l 1,12,-1
 476 355 l 1,13,-1
 195 355 l 1,14,-1
 214 486 l 1,15,-1
 495 486 l 1,16,-1
 513 616 l 1,17,-1
 232 616 l 1,18,-1
 250 747 l 1,19,-1
 509 747 l 1,20,-1
 210 1579 l 1,21,-1
 372 1579 l 1,22,-1
 629 848 l 1,0,-1
EndSplineSet
EndChar

StartChar: brokenbar
Encoding: 166 166 104
Width: 548
GlyphClass: 2
Flags: W
HStem: 0 21G<158 336.783> 1560 20G<378 553.168>
VStem: 158 398
DStem2: 158 0 334 0 0.139173 0.990268<24.4945 694.943 921.11 1589.3>
LayerCount: 2
Fore
SplineSet
282 888 m 1,0,-1
 378 1574 l 1,1,-1
 556 1580 l 1,2,-1
 458 888 l 1,3,-1
 282 888 l 1,0,-1
158 0 m 1,4,-1
 256 688 l 1,5,-1
 430 690 l 1,6,-1
 334 0 l 1,7,-1
 158 0 l 1,4,-1
EndSplineSet
EndChar

StartChar: section
Encoding: 167 167 105
Width: 1048
GlyphClass: 2
Flags: W
HStem: -99 146<263.926 619.967> 1313 21G<852.5 919.735> 1421 145<473.438 823.778>
VStem: 194 144<632.645 844.123> 266 147<1178.2 1362.19> 702 158<125.318 348.27> 783 150<659.827 868.684>
LayerCount: 2
Fore
SplineSet
860 274 m 0,0,1
 860 105 860 105 742.5 3 c 128,-1,2
 625 -99 625 -99 425 -99 c 0,3,4
 336 -99 336 -99 239.5 -62 c 128,-1,5
 143 -25 143 -25 103 17 c 1,6,-1
 178 155 l 1,7,8
 226 104 226 104 299.5 75.5 c 128,-1,9
 373 47 373 47 434 47 c 0,10,11
 498 47 498 47 547 60.5 c 128,-1,12
 596 74 596 74 624.5 94.5 c 128,-1,13
 653 115 653 115 671.5 143 c 128,-1,14
 690 171 690 171 696 196.5 c 128,-1,15
 702 222 702 222 702 249 c 0,16,17
 702 309 702 309 665.5 342 c 128,-1,18
 629 375 629 375 557 402 c 2,19,-1
 416 456 l 2,20,21
 291 504 291 504 242.5 560.5 c 128,-1,22
 194 617 194 617 194 700 c 0,23,24
 194 767 194 767 214.5 819 c 128,-1,25
 235 871 235 871 263.5 901 c 128,-1,26
 292 931 292 931 332.5 951.5 c 128,-1,27
 373 972 373 972 403.5 980 c 128,-1,28
 434 988 434 988 467 992 c 1,29,30
 354 1042 354 1042 310 1097 c 128,-1,31
 266 1152 266 1152 266 1224 c 0,32,33
 266 1369 266 1369 372 1467.5 c 128,-1,34
 478 1566 478 1566 662 1566 c 0,35,36
 759 1566 759 1566 853.5 1525.5 c 128,-1,37
 948 1485 948 1485 982 1449 c 1,38,-1
 909 1313 l 1,39,40
 796 1421 796 1421 651 1421 c 0,41,42
 580 1421 580 1421 530 1405 c 128,-1,43
 480 1389 480 1389 456 1361.5 c 128,-1,44
 432 1334 432 1334 422.5 1307.5 c 128,-1,45
 413 1281 413 1281 413 1252 c 0,46,47
 413 1217 413 1217 441 1191 c 128,-1,48
 469 1165 469 1165 541 1136 c 2,49,-1
 677 1080 l 2,50,51
 823 1020 823 1020 878 956 c 128,-1,52
 933 892 933 892 933 808 c 0,53,54
 933 742 933 742 913 690 c 128,-1,55
 893 638 893 638 863.5 608 c 128,-1,56
 834 578 834 578 795.5 557.5 c 128,-1,57
 757 537 757 537 726 529 c 128,-1,58
 695 521 695 521 665 519 c 1,59,60
 860 441 860 441 860 274 c 0,0,1
580 903 m 0,61,62
 338 903 338 903 338 724 c 0,63,64
 338 597 338 597 537 597 c 0,65,66
 611 597 611 597 662.5 614 c 128,-1,67
 714 631 714 631 738.5 660 c 128,-1,68
 763 689 763 689 773 717 c 128,-1,69
 783 745 783 745 783 776 c 0,70,71
 783 810 783 810 768.5 835 c 128,-1,72
 754 860 754 860 733.5 872.5 c 128,-1,73
 713 885 713 885 682.5 892.5 c 128,-1,74
 652 900 652 900 630 901.5 c 128,-1,75
 608 903 608 903 580 903 c 0,61,62
EndSplineSet
EndChar

StartChar: dieresis
Encoding: 168 168 106
Width: 952
GlyphClass: 2
Flags: W
HStem: 345 256<172.284 319.717 590.004 736.992>
VStem: 130 232<387.099 558.96> 546 232<385.099 556.96>
LayerCount: 2
Fore
SplineSet
362 495 m 0,0,1
 362 437 362 437 321 391 c 128,-1,2
 280 345 280 345 230 345 c 0,3,4
 186 345 186 345 158 376 c 128,-1,5
 130 407 130 407 130 453 c 0,6,7
 130 510 130 510 171 555.5 c 128,-1,8
 212 601 212 601 266 601 c 0,9,10
 307 601 307 601 334.5 570 c 128,-1,11
 362 539 362 539 362 495 c 0,0,1
778 493 m 0,12,13
 778 435 778 435 737 389 c 128,-1,14
 696 343 696 343 646 343 c 0,15,16
 602 343 602 343 574 374 c 128,-1,17
 546 405 546 405 546 451 c 0,18,19
 546 508 546 508 587 553.5 c 128,-1,20
 628 599 628 599 682 599 c 0,21,22
 723 599 723 599 750.5 568 c 128,-1,23
 778 537 778 537 778 493 c 0,12,13
EndSplineSet
EndChar

StartChar: copyright
Encoding: 169 169 107
Width: 1854
GlyphClass: 2
Flags: W
HStem: -18 118<611.996 1084.55> 280 120<743.322 1079.16> 1190 118<844.683 1232.44> 1490 120<802.154 1270.6>
VStem: 157 131<432.255 945.69> 514 137<493.125 941.727> 1592 133<639.514 1147.8>
LayerCount: 2
Fore
SplineSet
1584 794 m 0,0,1
 1592 852 1592 852 1592 903 c 0,2,3
 1592 1020 1592 1020 1555.5 1125 c 128,-1,4
 1519 1230 1519 1230 1451.5 1312 c 128,-1,5
 1384 1394 1384 1394 1277.5 1442 c 128,-1,6
 1171 1490 1171 1490 1040 1490 c 0,7,8
 905 1490 905 1490 777.5 1435.5 c 128,-1,9
 650 1381 650 1381 551.5 1288.5 c 128,-1,10
 453 1196 453 1196 385 1067 c 128,-1,11
 317 938 317 938 296 794 c 0,12,13
 288 741 288 741 288 678 c 0,14,15
 288 424 288 424 441.5 262 c 128,-1,16
 595 100 595 100 846 100 c 0,17,18
 976 100 976 100 1100 150.5 c 128,-1,19
 1224 201 1224 201 1323.5 290.5 c 128,-1,20
 1423 380 1423 380 1492.5 511 c 128,-1,21
 1562 642 1562 642 1584 794 c 0,0,1
1716 794 m 0,22,23
 1691 613 1691 613 1603 458 c 128,-1,24
 1515 303 1515 303 1392 200.5 c 128,-1,25
 1269 98 1269 98 1121.5 40 c 128,-1,26
 974 -18 974 -18 826 -18 c 0,27,28
 633 -18 633 -18 480 69.5 c 128,-1,29
 327 157 327 157 242 313 c 128,-1,30
 157 469 157 469 157 666 c 0,31,32
 157 728 157 728 166 794 c 0,33,34
 190 964 190 964 273 1116 c 128,-1,35
 356 1268 356 1268 475.5 1376 c 128,-1,36
 595 1484 595 1484 746 1547 c 128,-1,37
 897 1610 897 1610 1054 1610 c 0,38,39
 1208 1610 1208 1610 1336 1553.5 c 128,-1,40
 1464 1497 1464 1497 1548 1401 c 128,-1,41
 1632 1305 1632 1305 1678.5 1179.5 c 128,-1,42
 1725 1054 1725 1054 1725 914 c 0,43,44
 1725 854 1725 854 1716 794 c 0,22,23
1164 468 m 1,45,-1
 1140 352 l 1,46,47
 996 280 996 280 880 280 c 0,48,49
 782 280 782 280 709.5 312 c 128,-1,50
 637 344 637 344 595.5 400.5 c 128,-1,51
 554 457 554 457 534 527.5 c 128,-1,52
 514 598 514 598 514 682 c 0,53,54
 514 733 514 733 522 794 c 0,55,56
 553 1024 553 1024 685 1166 c 128,-1,57
 817 1308 817 1308 1024 1308 c 0,58,59
 1080 1308 1080 1308 1139 1293 c 128,-1,60
 1198 1278 1198 1278 1228 1265 c 128,-1,61
 1258 1252 1258 1252 1266 1246 c 1,62,-1
 1258 1134 l 1,63,64
 1247 1140 1247 1140 1226 1149.5 c 128,-1,65
 1205 1159 1205 1159 1141 1174.5 c 128,-1,66
 1077 1190 1077 1190 1014 1190 c 0,67,68
 932 1190 932 1190 868 1159.5 c 128,-1,69
 804 1129 804 1129 763 1073 c 128,-1,70
 722 1017 722 1017 697 948.5 c 128,-1,71
 672 880 672 880 660 794 c 0,72,73
 651 732 651 732 651 677 c 0,74,75
 651 400 651 400 902 400 c 0,76,77
 1028 400 1028 400 1164 468 c 1,45,-1
EndSplineSet
EndChar

StartChar: ordfeminine
Encoding: 170 170 108
Width: 1094
GlyphClass: 2
Flags: W
HStem: 396 129<238 856> 668 113<421.746 663.141> 1158 100<474.844 821.898> 1513 125<498.109 822.551>
VStem: 238 152<812.345 1075.91> 797 108<686 788.214> 851 142<1115.28 1487.33>
DStem2: 719.746 396 864.243 396 0.139173 0.990268<463.574 753.161 830.041 991.29>
LayerCount: 2
Fore
SplineSet
238 525 m 1,0,-1
 874 525 l 1,1,-1
 856 396 l 1,2,-1
 220 396 l 1,3,-1
 238 525 l 1,0,-1
658 1158 m 0,4,5
 390 1158 390 1158 390 924 c 0,6,7
 390 781 390 781 547 781 c 0,8,9
 610 781 610 781 668.5 814 c 128,-1,10
 727 847 727 847 791 903 c 1,11,-1
 824 1141 l 1,12,13
 728 1158 728 1158 658 1158 c 0,4,5
238 901 m 0,14,15
 238 1060 238 1060 341 1159 c 128,-1,16
 444 1258 444 1258 618 1258 c 0,17,18
 671 1258 671 1258 734.5 1246.5 c 128,-1,19
 798 1235 798 1235 835 1218 c 1,20,-1
 840 1256 l 2,21,22
 851 1335 851 1335 851 1380 c 0,23,24
 851 1456 851 1456 816.5 1484.5 c 128,-1,25
 782 1513 782 1513 693 1513 c 0,26,27
 629 1513 629 1513 557.5 1489.5 c 128,-1,28
 486 1466 486 1466 450.5 1447 c 128,-1,29
 415 1428 415 1428 410 1423 c 1,30,-1
 375 1532 l 1,31,-1
 384 1538 l 1,32,-1
 410 1552 l 2,33,34
 427 1562 427 1562 449.5 1573.5 c 128,-1,35
 472 1585 472 1585 501.5 1596 c 128,-1,36
 531 1607 531 1607 562 1616.5 c 128,-1,37
 593 1626 593 1626 630.5 1632 c 128,-1,38
 668 1638 668 1638 703 1638 c 0,39,40
 859 1638 859 1638 926 1576 c 128,-1,41
 993 1514 993 1514 993 1373 c 0,42,43
 993 1317 993 1317 982 1235 c 2,44,-1
 905 686 l 1,45,-1
 797 686 l 1,46,-1
 797 828 l 1,47,48
 667 668 667 668 496 668 c 0,49,50
 373 668 373 668 305.5 728 c 128,-1,51
 238 788 238 788 238 901 c 0,14,15
EndSplineSet
EndChar

StartChar: guillemotleft
Encoding: 171 171 109
Width: 1526
GlyphClass: 2
Flags: W
DStem2: 345 577 180 481 0.802059 -0.597245<0 464.23> 206 666 345 577 0.850762 0.525551<71.4818 595.297> 910 577 745 481 0.802059 -0.597245<0 464.23> 771 666 910 577 0.850762 0.525551<71.4818 595.297>
LayerCount: 2
Fore
SplineSet
1362 842 m 1,0,-1
 910 577 l 1,1,-1
 1287 306 l 1,2,-1
 1258 99 l 1,3,-1
 745 481 l 1,4,-1
 771 666 l 1,5,-1
 1391 1049 l 1,6,-1
 1362 842 l 1,0,-1
797 842 m 1,7,-1
 345 577 l 1,8,-1
 722 306 l 1,9,-1
 693 99 l 1,10,-1
 180 481 l 1,11,-1
 206 666 l 1,12,-1
 826 1049 l 1,13,-1
 797 842 l 1,7,-1
EndSplineSet
EndChar

StartChar: logicalnot
Encoding: 172 172 110
Width: 1595
GlyphClass: 2
Flags: W
DStem2: 1229 338 1392 338 0.139173 0.990268<22.6852 691.694>
LayerCount: 2
Fore
SplineSet
1392 338 m 1,0,-1
 1510 1174 l 1,1,-1
 251 1174 l 1,2,-1
 229 1023 l 1,3,-1
 1325 1023 l 1,4,-1
 1229 338 l 1,5,-1
 1392 338 l 1,0,-1
EndSplineSet
EndChar

StartChar: uni00AD
Encoding: 173 173 111
Width: 796
GlyphClass: 2
Flags: W
HStem: 508 130<176 704>
VStem: 158 564
LayerCount: 2
Fore
SplineSet
704 508 m 1,0,-1
 158 508 l 1,1,-1
 176 638 l 1,2,-1
 722 638 l 1,3,-1
 704 508 l 1,0,-1
EndSplineSet
EndChar

StartChar: registered
Encoding: 174 174 112
Width: 1262
GlyphClass: 2
Flags: W
HStem: 584 92<480.895 856.695> 1072 74<658 706.076> 1328 74<682 813.345> 1538 94<587.995 963.084>
VStem: 211 94<855.43 1245.55> 851 91<1169.64 1315.99> 1141 94<969.875 1356.48>
DStem2: 483.427 584 575.427 584 0.139173 0.990268<261.222 505.877 580.827 769.523>
LayerCount: 2
Fore
SplineSet
658 1146 m 1,0,-1
 708 1146 l 2,1,2
 776 1146 776 1146 809 1170 c 128,-1,3
 842 1194 842 1194 850 1246 c 0,4,5
 851 1252 851 1252 851 1264 c 0,6,7
 851 1303 851 1303 814.5 1315.5 c 128,-1,8
 778 1328 778 1328 682 1328 c 1,9,-1
 658 1146 l 1,0,-1
812 1016 m 2,10,-1
 898 856 l 1,11,-1
 802 808 l 1,12,13
 798 816 798 816 753.5 924 c 128,-1,14
 709 1032 709 1032 690 1072 c 1,15,-1
 646 1072 l 1,16,-1
 610 830 l 1,17,-1
 518 830 l 1,18,-1
 600 1402 l 1,19,-1
 702 1402 l 2,20,21
 829 1402 829 1402 885.5 1370.5 c 128,-1,22
 942 1339 942 1339 942 1271 c 0,23,24
 942 1262 942 1262 940 1244 c 0,25,26
 930 1175 930 1175 884.5 1137.5 c 128,-1,27
 839 1100 839 1100 764 1082 c 1,28,29
 771 1074 771 1074 790 1047 c 128,-1,30
 809 1020 809 1020 812 1016 c 2,10,-1
216 1108 m 0,31,32
 236 1251 236 1251 320.5 1372 c 128,-1,33
 405 1493 405 1493 531.5 1562.5 c 128,-1,34
 658 1632 658 1632 796 1632 c 0,35,36
 989 1632 989 1632 1112 1505 c 128,-1,37
 1235 1378 1235 1378 1235 1185 c 0,38,39
 1235 1140 1235 1140 1230 1108 c 0,40,41
 1210 964 1210 964 1126.5 843.5 c 128,-1,42
 1043 723 1043 723 916.5 653.5 c 128,-1,43
 790 584 790 584 650 584 c 0,44,45
 460 584 460 584 335.5 712 c 128,-1,46
 211 840 211 840 211 1032 c 0,47,48
 211 1076 211 1076 216 1108 c 0,31,32
310 1106 m 0,49,50
 305 1068 305 1068 305 1039 c 0,51,52
 305 880 305 880 405 778 c 128,-1,53
 505 676 505 676 662 676 c 0,54,55
 777 676 777 676 879.5 731.5 c 128,-1,56
 982 787 982 787 1050.5 886 c 128,-1,57
 1119 985 1119 985 1136 1106 c 0,58,59
 1141 1144 1141 1144 1141 1172 c 0,60,61
 1141 1332 1141 1332 1040.5 1435 c 128,-1,62
 940 1538 940 1538 782 1538 c 0,63,64
 608 1538 608 1538 471.5 1414 c 128,-1,65
 335 1290 335 1290 310 1106 c 0,49,50
EndSplineSet
EndChar

StartChar: macron
Encoding: 175 175 113
Width: 924
GlyphClass: 2
Flags: W
HStem: 0 144<110 744>
VStem: 92 670
LayerCount: 2
Fore
SplineSet
744 0 m 1,0,-1
 92 0 l 1,1,-1
 110 144 l 1,2,-1
 762 144 l 1,3,-1
 744 0 l 1,0,-1
EndSplineSet
EndChar

StartChar: degree
Encoding: 176 176 114
Width: 625
GlyphClass: 2
Flags: W
HStem: 716 67<259.265 422.905> 1059 68<288.353 453.203>
VStem: 163 69<824.77 1001.12> 478 69<840.375 1017.75>
LayerCount: 2
Fore
SplineSet
376 1059 m 0,0,1
 321 1059 321 1059 280.5 1018 c 128,-1,2
 240 977 240 977 232 921 c 0,3,4
 224 864 224 864 253.5 823.5 c 128,-1,5
 283 783 283 783 338 783 c 0,6,7
 391 783 391 783 430.5 823.5 c 128,-1,8
 470 864 470 864 478 921 c 0,9,10
 486 979 486 979 458 1019 c 128,-1,11
 430 1059 430 1059 376 1059 c 0,0,1
387 1127 m 0,12,13
 471 1127 471 1127 515.5 1068.5 c 128,-1,14
 560 1010 560 1010 547 921 c 0,15,16
 535 833 535 833 474 774.5 c 128,-1,17
 413 716 413 716 329 716 c 0,18,19
 243 716 243 716 197 775 c 128,-1,20
 151 834 151 834 163 921 c 128,-1,21
 175 1008 175 1008 238 1067.5 c 128,-1,22
 301 1127 301 1127 387 1127 c 0,12,13
EndSplineSet
EndChar

StartChar: plusminus
Encoding: 177 177 115
Width: 1031
GlyphClass: 2
Flags: W
HStem: -56 144<174 806> 518 134<222 494 644 916>
DStem2: 411.676 -56 545.676 -56 0.139173 0.990268<250.91 579.871 733.443 1062.68>
LayerCount: 2
Fore
SplineSet
916 518 m 1,0,-1
 626 518 l 1,1,-1
 578 174 l 1,2,-1
 444 174 l 1,3,-1
 494 518 l 1,4,-1
 204 518 l 1,5,-1
 222 652 l 1,6,-1
 512 652 l 1,7,-1
 562 996 l 1,8,-1
 692 996 l 1,9,-1
 644 652 l 1,10,-1
 936 652 l 1,11,-1
 916 518 l 1,0,-1
806 -56 m 1,12,-1
 154 -56 l 1,13,-1
 174 88 l 1,14,-1
 826 88 l 1,15,-1
 806 -56 l 1,12,-1
EndSplineSet
EndChar

StartChar: uni00B2
Encoding: 178 178 116
Width: 1102
GlyphClass: 2
Flags: W
HStem: 0 150<324 826> 1059 139<369.969 768.313>
VStem: 835 144<723.761 995.984>
DStem2: 274 262 324 150 0.791505 0.611162<-28.8749 678.546> 278 1116 317 993 0.916696 0.399585<0 253.29>
LayerCount: 2
Fore
SplineSet
592 508 m 1,0,1
 691 586 691 586 763 682 c 128,-1,2
 835 778 835 778 835 878 c 0,3,4
 835 965 835 965 773 1012 c 128,-1,5
 711 1059 711 1059 596 1059 c 0,6,7
 533 1059 533 1059 463.5 1042.5 c 128,-1,8
 394 1026 394 1026 356 1010 c 2,9,-1
 317 993 l 1,10,-1
 278 1116 l 1,11,12
 284 1119 284 1119 296 1124.5 c 128,-1,13
 308 1130 308 1130 346 1144.5 c 128,-1,14
 384 1159 384 1159 424 1169.5 c 128,-1,15
 464 1180 464 1180 522.5 1189 c 128,-1,16
 581 1198 581 1198 638 1198 c 0,17,18
 810 1198 810 1198 894.5 1112 c 128,-1,19
 979 1026 979 1026 979 878 c 0,20,21
 979 641 979 641 673 412 c 2,22,-1
 324 150 l 1,23,-1
 846 152 l 1,24,-1
 826 0 l 1,25,-1
 100 0 l 1,26,-1
 118 142 l 1,27,28
 173 187 173 187 274 262 c 1,29,-1
 592 508 l 1,0,1
EndSplineSet
EndChar

StartChar: uni00B3
Encoding: 179 179 117
Width: 1072
GlyphClass: 2
Flags: W
HStem: -198 148<210.95 652.785> 1057 149<375.26 788.919>
VStem: 771 166<70.0891 368.289> 841 157<734.237 1005.28>
DStem2: 145 21 148.5 -136 0.919279 -0.393607<0 279.097> 336 1147.5 313 992 0.917857 0.396911<-55.7412 183.481>
LayerCount: 2
Fore
SplineSet
515 614 m 1,0,1
 592 614 592 614 652 632.5 c 128,-1,2
 712 651 712 651 746.5 679 c 128,-1,3
 781 707 781 707 803.5 745 c 128,-1,4
 826 783 826 783 833.5 817.5 c 128,-1,5
 841 852 841 852 841 889 c 0,6,7
 841 978 841 978 781.5 1017.5 c 128,-1,8
 722 1057 722 1057 599 1057 c 0,9,10
 531 1057 531 1057 459.5 1040.5 c 128,-1,11
 388 1024 388 1024 350 1008 c 2,12,-1
 313 992 l 1,13,-1
 285 1125 l 1,14,15
 304 1134 304 1134 336 1147.5 c 128,-1,16
 368 1161 368 1161 457.5 1183.5 c 128,-1,17
 547 1206 547 1206 625 1206 c 0,18,19
 676 1206 676 1206 723.5 1199 c 128,-1,20
 771 1192 771 1192 822.5 1172.5 c 128,-1,21
 874 1153 874 1153 911.5 1122.5 c 128,-1,22
 949 1092 949 1092 973.5 1040.5 c 128,-1,23
 998 989 998 989 998 923 c 0,24,25
 998 835 998 835 965.5 760 c 128,-1,26
 933 685 933 685 884 640 c 128,-1,27
 835 595 835 595 781 570 c 128,-1,28
 727 545 727 545 680 545 c 1,29,30
 722 536 722 536 761 518 c 128,-1,31
 800 500 800 500 842.5 466 c 128,-1,32
 885 432 885 432 911 373 c 128,-1,33
 937 314 937 314 937 237 c 0,34,35
 937 150 937 150 908 76.5 c 128,-1,36
 879 3 879 3 830.5 -46.5 c 128,-1,37
 782 -96 782 -96 718 -131 c 128,-1,38
 654 -166 654 -166 585 -182 c 128,-1,39
 516 -198 516 -198 445 -198 c 0,40,41
 385 -198 385 -198 325.5 -188 c 128,-1,42
 266 -178 266 -178 224 -164 c 128,-1,43
 182 -150 182 -150 148.5 -136 c 128,-1,44
 115 -122 115 -122 98 -112 c 2,45,-1
 82 -102 l 1,46,-1
 145 21 l 1,47,48
 163 13 163 13 193.5 1 c 128,-1,49
 224 -11 224 -11 309.5 -30.5 c 128,-1,50
 395 -50 395 -50 469 -50 c 0,51,52
 555 -50 555 -50 617 -23.5 c 128,-1,53
 679 3 679 3 711 47 c 128,-1,54
 743 91 743 91 757 137 c 128,-1,55
 771 183 771 183 771 234 c 0,56,57
 771 438 771 438 495 471 c 1,58,-1
 515 614 l 1,0,1
EndSplineSet
EndChar

StartChar: acute
Encoding: 180 180 118
Width: 739
GlyphClass: 2
Flags: W
HStem: 352 622
VStem: 234 431
LayerCount: 2
Fore
SplineSet
366 352 m 1,0,-1
 234 352 l 1,1,-1
 425 974 l 1,2,-1
 665 974 l 1,3,-1
 366 352 l 1,0,-1
EndSplineSet
EndChar

StartChar: uni00B5
Encoding: 181 181 119
Width: 1146
GlyphClass: 2
Flags: W
HStem: -32 142<344.475 620.42> -12 21G<802.238 932> 1090 20G<258.246 406 913.232 1088>
VStem: 802 130<4 105.639>
DStem2: 68.1892 -290 210 -290 0.139173 0.990268<20.1966 374.991 626.07 1413.21> 721.016 -290 890.681 -290 0.139173 0.990268<567.523 1413.51>
LayerCount: 2
Fore
SplineSet
71 -270 m 1,0,-1
 261 1110 l 1,1,-1
 406 1110 l 1,2,-1
 310 416 l 2,3,4
 301 356 301 356 301 308 c 0,5,6
 301 206 301 206 341.5 158 c 128,-1,7
 382 110 382 110 466 110 c 0,8,9
 521 110 521 110 576 126.5 c 128,-1,10
 631 143 631 143 669.5 167 c 128,-1,11
 708 191 708 191 739 215 c 128,-1,12
 770 239 770 239 785 256 c 2,13,-1
 800 272 l 1,14,-1
 916 1110 l 1,15,-1
 1088 1110 l 1,16,-1
 932 4 l 1,17,-1
 802 -12 l 1,18,-1
 804 156 l 1,19,20
 627 -32 627 -32 444 -32 c 0,21,22
 400 -32 400 -32 364.5 -22.5 c 128,-1,23
 329 -13 329 -13 310 1 c 128,-1,24
 291 15 291 15 278.5 29 c 128,-1,25
 266 43 266 43 262 52 c 2,26,-1
 258 62 l 1,27,-1
 210 -290 l 1,28,-1
 71 -270 l 1,0,-1
EndSplineSet
EndChar

StartChar: paragraph
Encoding: 182 182 120
Width: 1129
GlyphClass: 2
Flags: W
DStem2: 417 0 593 0 0.139173 0.990268<24.4945 913.868> 719 0 892 0 0.139173 0.990268<24.0769 1442.08>
LayerCount: 2
Fore
SplineSet
680 1577 m 2,0,1
 592 1577 592 1577 524 1570 c 128,-1,2
 456 1563 456 1563 386 1542 c 128,-1,3
 316 1521 316 1521 268 1486 c 128,-1,4
 220 1451 220 1451 184.5 1391 c 128,-1,5
 149 1331 149 1331 138 1250 c 0,6,7
 134 1222 134 1222 134 1190 c 0,8,9
 134 1126 134 1126 156.5 1076.5 c 128,-1,10
 179 1027 179 1027 216.5 995 c 128,-1,11
 254 963 254 963 307.5 942.5 c 128,-1,12
 361 922 361 922 418.5 913.5 c 128,-1,13
 476 905 476 905 544 905 c 1,14,-1
 417 0 l 1,15,-1
 593 0 l 1,16,-1
 794 1428 l 1,17,-1
 920 1428 l 1,18,-1
 719 0 l 1,19,-1
 892 0 l 1,20,-1
 1114 1578 l 1,21,-1
 680 1577 l 2,0,1
EndSplineSet
EndChar

StartChar: periodcentered
Encoding: 183 183 121
Width: 518
GlyphClass: 2
Flags: W
HStem: 531 256<238.284 385.717>
VStem: 196 232<573.099 744.96>
LayerCount: 2
Fore
SplineSet
428 681 m 0,0,1
 428 623 428 623 387 577 c 128,-1,2
 346 531 346 531 296 531 c 0,3,4
 252 531 252 531 224 562 c 128,-1,5
 196 593 196 593 196 639 c 0,6,7
 196 696 196 696 237 741.5 c 128,-1,8
 278 787 278 787 332 787 c 0,9,10
 373 787 373 787 400.5 756 c 128,-1,11
 428 725 428 725 428 681 c 0,0,1
EndSplineSet
EndChar

StartChar: cedilla
Encoding: 184 184 122
Width: 535
GlyphClass: 2
Flags: W
HStem: -530 114<41.373 321.464> -186 88<207 312.707>
VStem: 163 114<27.8457 76> 354 123<-386.023 -227.784>
LayerCount: 2
Fore
SplineSet
475 -310 m 1,0,1
 460 -414 460 -414 386 -472 c 128,-1,2
 312 -530 312 -530 209 -530 c 0,3,4
 157 -530 157 -530 112.5 -517.5 c 128,-1,5
 68 -505 68 -505 50 -492 c 1,6,-1
 31 -480 l 1,7,-1
 35 -368 l 1,8,9
 137 -416 137 -416 219 -416 c 0,10,11
 286 -416 286 -416 317.5 -383.5 c 128,-1,12
 349 -351 349 -351 353 -316 c 0,13,14
 354 -310 354 -310 354 -299 c 0,15,16
 354 -277 354 -277 346.5 -261 c 128,-1,17
 339 -245 339 -245 320.5 -234 c 128,-1,18
 302 -223 302 -223 284 -215.5 c 128,-1,19
 266 -208 266 -208 230.5 -202.5 c 128,-1,20
 195 -197 195 -197 170 -194 c 2,21,-1
 96 -187 l 2,22,23
 89 -186 89 -186 85 -186 c 1,24,-1
 163 76 l 1,25,-1
 277 76 l 1,26,27
 213 -76 213 -76 207 -98 c 1,28,29
 241 -98 241 -98 274 -102 c 128,-1,30
 307 -106 307 -106 345 -118 c 128,-1,31
 383 -130 383 -130 411 -149 c 128,-1,32
 439 -168 439 -168 458 -201.5 c 128,-1,33
 477 -235 477 -235 477 -279 c 0,34,35
 477 -288 477 -288 475 -310 c 1,0,1
EndSplineSet
EndChar

StartChar: uni00B9
Encoding: 185 185 123
Width: 831
GlyphClass: 2
Flags: W
HStem: 0 21G<303 469.803>
VStem: 203 428
DStem2: 203 1084 231 966 0.938963 0.344017<0 223.23> 303 0 467 0 0.139173 0.990268<22.8244 1066.32>
LayerCount: 2
Fore
SplineSet
303 0 m 1,0,-1
 451 1056 l 1,1,-1
 231 966 l 1,2,-1
 203 1084 l 1,3,-1
 435 1169 l 1,4,-1
 631 1170 l 1,5,-1
 467 0 l 1,6,-1
 303 0 l 1,0,-1
EndSplineSet
EndChar

StartChar: ordmasculine
Encoding: 186 186 124
Width: 1178
GlyphClass: 2
Flags: W
HStem: 386 129<232 850> 670 125<451.331 731.161> 1512 126<543.39 822.09>
VStem: 235 145<871.699 1298.86> 894 146<1005.13 1434.11>
LayerCount: 2
Fore
SplineSet
232 515 m 1,0,-1
 868 515 l 1,1,-1
 850 386 l 1,2,-1
 213 386 l 1,3,-1
 232 515 l 1,0,-1
688 1512 m 0,4,5
 618 1512 618 1512 562 1479 c 128,-1,6
 506 1446 506 1446 473 1396 c 128,-1,7
 440 1346 440 1346 418 1281.5 c 128,-1,8
 396 1217 396 1217 388 1160 c 128,-1,9
 380 1103 380 1103 380 1050 c 0,10,11
 380 931 380 931 430.5 863 c 128,-1,12
 481 795 481 795 587 795 c 0,13,14
 657 795 657 795 712.5 827.5 c 128,-1,15
 768 860 768 860 801 909.5 c 128,-1,16
 834 959 834 959 856 1023 c 128,-1,17
 878 1087 878 1087 886 1144 c 128,-1,18
 894 1201 894 1201 894 1255 c 0,19,20
 894 1375 894 1375 844 1443.5 c 128,-1,21
 794 1512 794 1512 688 1512 c 0,4,5
235 1045 m 0,22,23
 235 1116 235 1116 249 1192 c 128,-1,24
 263 1268 263 1268 298 1349 c 128,-1,25
 333 1430 333 1430 384.5 1493 c 128,-1,26
 436 1556 436 1556 519.5 1597 c 128,-1,27
 603 1638 603 1638 705 1638 c 0,28,29
 872 1638 872 1638 956 1533.5 c 128,-1,30
 1040 1429 1040 1429 1040 1258 c 0,31,32
 1040 1176 1040 1176 1023 1095 c 128,-1,33
 1006 1014 1006 1014 968.5 936.5 c 128,-1,34
 931 859 931 859 877.5 800.5 c 128,-1,35
 824 742 824 742 744 706 c 128,-1,36
 664 670 664 670 569 670 c 0,37,38
 402 670 402 670 318.5 773 c 128,-1,39
 235 876 235 876 235 1045 c 0,22,23
EndSplineSet
EndChar

StartChar: guillemotright
Encoding: 187 187 125
Width: 1518
GlyphClass: 2
Flags: W
DStem2: 166 306 137 99 0.850997 0.525171<0 527.823> 270 1049 241 842 0.80075 -0.598999<100.771 562.189> 731 306 702 99 0.850997 0.525171<0 527.823> 835 1049 806 842 0.80075 -0.598999<100.771 562.189>
LayerCount: 2
Fore
SplineSet
241 842 m 1,0,-1
 619 577 l 1,1,-1
 166 306 l 1,2,-1
 137 99 l 1,3,-1
 756 481 l 1,4,-1
 782 666 l 1,5,-1
 270 1049 l 1,6,-1
 241 842 l 1,0,-1
806 842 m 1,7,-1
 1184 577 l 1,8,-1
 731 306 l 1,9,-1
 702 99 l 1,10,-1
 1321 481 l 1,11,-1
 1347 666 l 1,12,-1
 835 1049 l 1,13,-1
 806 842 l 1,7,-1
EndSplineSet
EndChar

StartChar: Agrave
Encoding: 192 192 126
Width: 1467
GlyphClass: 2
Flags: W
HStem: 0 21G<3 205.475 1085.05 1263> 387 104<403 1014> 1554 20G<698.055 999.393>
VStem: 845 74<1732 1783.08>
DStem2: 3 0 197 0 0.40829 0.912852<79.2082 499.442 611.526 611.526 1454.76 1611.86> 707 1574 740 1264 0.40829 0.912852<-1645.06 -1224.82 -1112.74 0> 996 1574 842 1521 0.167242 -0.985916<26.4982 1070.76 1176.14 1567.22>
LayerCount: 2
Fore
SplineSet
1031 387 m 1,0,-1
 361 387 l 1,1,-1
 197 0 l 1,2,-1
 3 0 l 1,3,-1
 707 1574 l 1,4,-1
 996 1574 l 1,5,-1
 1263 0 l 1,6,-1
 1088 0 l 1,7,-1
 1031 387 l 1,0,-1
842 1521 m 1,8,-1
 740 1264 l 1,9,-1
 403 491 l 1,10,-1
 1014 491 l 1,11,-1
 882 1272 l 1,12,-1
 842 1521 l 1,8,-1
919 1732 m 5,13,-1
 845 1732 l 5,14,-1
 671 2352 l 5,15,-1
 913 2352 l 5,16,-1
 919 1732 l 5,13,-1
EndSplineSet
EndChar

StartChar: Aacute
Encoding: 193 193 127
Width: 1467
GlyphClass: 2
Flags: W
HStem: 0 21G<3 205.475 1085.05 1263> 387 104<403 1014> 1554 20G<698.055 999.393>
DStem2: 3 0 197 0 0.40829 0.912852<79.2082 499.442 611.526 611.526 1454.76 1611.86> 707 1574 740 1264 0.40829 0.912852<-1645.06 -1224.82 -1112.74 0> 996 1574 842 1521 0.167242 -0.985916<26.4982 1070.76 1176.14 1567.22>
LayerCount: 2
Fore
SplineSet
1031 387 m 1,0,-1
 361 387 l 1,1,-1
 197 0 l 1,2,-1
 3 0 l 1,3,-1
 707 1574 l 1,4,-1
 996 1574 l 1,5,-1
 1263 0 l 1,6,-1
 1088 0 l 1,7,-1
 1031 387 l 1,0,-1
842 1521 m 1,8,-1
 740 1264 l 1,9,-1
 403 491 l 1,10,-1
 1014 491 l 1,11,-1
 882 1272 l 1,12,-1
 842 1521 l 1,8,-1
958 1732 m 5,13,-1
 826 1732 l 5,14,-1
 1017 2354 l 5,15,-1
 1257 2354 l 5,16,-1
 958 1732 l 5,13,-1
EndSplineSet
EndChar

StartChar: Acircumflex
Encoding: 194 194 128
Width: 1467
GlyphClass: 2
Flags: W
HStem: 0 21G<3 205.475 1085.05 1263> 387 104<403 1014> 1554 20G<698.055 999.393>
DStem2: 3 0 197 0 0.40829 0.912852<79.2082 499.442 611.526 611.526 1454.76 1611.86> 587 1732 745 1732 0.523918 0.851769<82.7791 454.758> 707 1574 740 1264 0.40829 0.912852<-1645.06 -1224.82 -1112.74 0> 996 1574 842 1521 0.167242 -0.985916<26.4982 1070.76 1176.14 1567.22> 1070 2062 938 2050 0.204987 -0.978765<-15.3131 308.848>
LayerCount: 2
Fore
SplineSet
1031 387 m 1,0,-1
 361 387 l 1,1,-1
 197 0 l 1,2,-1
 3 0 l 1,3,-1
 707 1574 l 1,4,-1
 996 1574 l 1,5,-1
 1263 0 l 1,6,-1
 1088 0 l 1,7,-1
 1031 387 l 1,0,-1
842 1521 m 1,8,-1
 740 1264 l 1,9,-1
 403 491 l 1,10,-1
 1014 491 l 1,11,-1
 882 1272 l 1,12,-1
 842 1521 l 1,8,-1
1026 2262 m 5,13,-1
 1070 2062 l 5,14,-1
 1137 1732 l 5,15,-1
 1001 1732 l 5,16,-1
 955 1966 l 5,17,-1
 938 2050 l 5,18,-1
 882 1955 l 5,19,-1
 745 1732 l 5,20,-1
 587 1732 l 5,21,-1
 789 2062 l 5,22,-1
 913 2262 l 5,23,-1
 1026 2262 l 5,13,-1
EndSplineSet
EndChar

StartChar: Atilde
Encoding: 195 195 129
Width: 1467
GlyphClass: 2
Flags: W
HStem: 0 21G<3 205.475 1085.05 1263> 387 104<403 1014> 1554 20G<698.055 999.393> 1732 142<926.997 1087.32> 1852 146<675.027 827.27>
VStem: 509 146<1738 1821.57> 1105 146<1882.93 1984>
DStem2: 3 0 197 0 0.40829 0.912852<79.2082 499.442 611.526 611.526 1454.76 1611.86> 707 1574 740 1264 0.40829 0.912852<-1645.06 -1224.82 -1112.74 0> 821.5 1978.5 801 1822 0.906392 -0.422439<-33.3113 236.89> 996 1574 842 1521 0.167242 -0.985916<26.4982 1070.76 1176.14 1567.22>
LayerCount: 2
Fore
SplineSet
1031 387 m 1,0,-1
 361 387 l 1,1,-1
 197 0 l 1,2,-1
 3 0 l 1,3,-1
 707 1574 l 1,4,-1
 996 1574 l 1,5,-1
 1263 0 l 1,6,-1
 1088 0 l 1,7,-1
 1031 387 l 1,0,-1
842 1521 m 1,8,-1
 740 1264 l 1,9,-1
 403 491 l 1,10,-1
 1014 491 l 1,11,-1
 882 1272 l 1,12,-1
 842 1521 l 1,8,-1
733 1998 m 4,13,14
 775 1998 775 1998 821.5 1978.5 c 132,-1,15
 868 1959 868 1959 900.5 1936 c 132,-1,16
 933 1913 933 1913 970.5 1893.5 c 132,-1,17
 1008 1874 1008 1874 1035 1874 c 4,18,19
 1068 1874 1068 1874 1083 1903.5 c 132,-1,20
 1098 1933 1098 1933 1105 1984 c 5,21,-1
 1251 1984 l 5,22,23
 1251 1983 1251 1983 1250 1981 c 132,-1,24
 1249 1979 1249 1979 1249 1978 c 4,25,26
 1215.82 1734 1215.82 1734 1059 1734 c 4,27,28
 1055 1734 1055 1734 1047 1733 c 132,-1,29
 1039 1732 1039 1732 1035 1732 c 4,30,31
 979 1732 979 1732 915.5 1762 c 132,-1,32
 852 1792 852 1792 801 1822 c 132,-1,33
 750 1852 750 1852 725 1852 c 4,34,35
 692 1852 692 1852 677 1822.5 c 132,-1,36
 662 1793 662 1793 655 1738 c 5,37,-1
 509 1738 l 5,38,-1
 509 1744 l 5,39,40
 544 1998 544 1998 733 1998 c 4,13,14
EndSplineSet
EndChar

StartChar: Adieresis
Encoding: 196 196 130
Width: 1467
GlyphClass: 2
Flags: W
HStem: 0 21G<3 205.475 1085.05 1263> 387 104<403 1014> 1554 20G<698.055 999.393> 1734 256<598.284 745.717 1016 1162.99>
VStem: 556 232<1776.1 1947.96> 972 232<1774.1 1945.96>
DStem2: 3 0 197 0 0.40829 0.912852<79.2082 499.442 611.526 611.526 1454.76 1611.86> 707 1574 740 1264 0.40829 0.912852<-1645.06 -1224.82 -1112.74 0> 996 1574 842 1521 0.167242 -0.985916<26.4982 1070.76 1176.14 1567.22>
LayerCount: 2
Fore
SplineSet
1031 387 m 1,0,-1
 361 387 l 1,1,-1
 197 0 l 1,2,-1
 3 0 l 1,3,-1
 707 1574 l 1,4,-1
 996 1574 l 1,5,-1
 1263 0 l 1,6,-1
 1088 0 l 1,7,-1
 1031 387 l 1,0,-1
842 1521 m 1,8,-1
 740 1264 l 1,9,-1
 403 491 l 1,10,-1
 1014 491 l 1,11,-1
 882 1272 l 1,12,-1
 842 1521 l 1,8,-1
788 1884 m 4,13,14
 788 1826 788 1826 747 1780 c 132,-1,15
 706 1734 706 1734 656 1734 c 4,16,17
 612 1734 612 1734 584 1765 c 132,-1,18
 556 1796 556 1796 556 1842 c 4,19,20
 556 1899 556 1899 597 1944.5 c 132,-1,21
 638 1990 638 1990 692 1990 c 4,22,23
 733 1990 733 1990 760.5 1959 c 132,-1,24
 788 1928 788 1928 788 1884 c 4,13,14
1204 1882 m 4,25,26
 1204 1824 1204 1824 1163 1778 c 132,-1,27
 1122 1732 1122 1732 1072 1732 c 4,28,29
 1028 1732 1028 1732 1000 1763 c 132,-1,30
 972 1794 972 1794 972 1840 c 4,31,32
 972 1897 972 1897 1013 1942.5 c 132,-1,33
 1054 1988 1054 1988 1108 1988 c 4,34,35
 1149 1988 1149 1988 1176.5 1957 c 132,-1,36
 1204 1926 1204 1926 1204 1882 c 4,25,26
EndSplineSet
EndChar

StartChar: Aring
Encoding: 197 197 131
Width: 1467
GlyphClass: 2
Flags: W
HStem: 0 21G<3 205.475 1085.05 1263> 387 104<403 1014> 1847 68<800.353 965.203>
VStem: 675 69<1612.77 1789.12> 990 69<1628.25 1805.75>
DStem2: 3 0 197 0 0.40829 0.912852<79.2082 499.442 611.526 611.526 1454.76 1611.86> 704.671 1568.79 740 1264 0.40829 0.912852<-1639.35 -1219.12 -1107.04 12.2285> 996.194 1572.86 842 1521 0.167242 -0.985916<25.3386 1069.6 1174.98 1566.06>
LayerCount: 2
Fore
SplineSet
899 1915 m 0,0,1
 983 1915 983 1915 1027.5 1856.5 c 0,2,3
 1071.64 1798.48 1071.64 1798.48 1059 1709 c 0,4,5
 1047.59 1628.22 1047.59 1628.22 996.194 1572.86 c 1,6,-1
 1263 0 l 1,7,-1
 1088 0 l 1,8,-1
 1031 387 l 1,9,-1
 361 387 l 1,10,-1
 197 0 l 1,11,-1
 3 0 l 1,12,-1
 704.671 1568.79 l 1,13,14
 663.582 1626.22 663.582 1626.22 675 1709 c 0,15,16
 687 1796 687 1796 750 1855.5 c 128,-1,17
 813 1915 813 1915 899 1915 c 0,0,1
888 1847 m 0,18,19
 833 1847 833 1847 792.5 1806 c 128,-1,20
 752 1765 752 1765 744 1709 c 0,21,22
 736 1652 736 1652 765.5 1611.5 c 128,-1,23
 795 1571 795 1571 850 1571 c 0,24,25
 903 1571 903 1571 942.5 1611.5 c 128,-1,26
 982 1652 982 1652 990 1709 c 0,27,28
 998 1767 998 1767 970 1807 c 128,-1,29
 942 1847 942 1847 888 1847 c 0,18,19
842 1521 m 1,30,-1
 740 1264 l 1,31,-1
 403 491 l 1,32,-1
 1014 491 l 1,33,-1
 882 1272 l 1,34,-1
 842 1521 l 1,30,-1
EndSplineSet
EndChar

StartChar: AE
Encoding: 198 198 132
Width: 1950
GlyphClass: 2
Flags: W
HStem: 0 144<1108 1837> 382 104<538 975> 776 114<1214 1843> 1436 138<1290 2025>
DStem2: 18 0 208 0 0.552744 0.833351<105.021 559.889 692.435 1786.94> 921 0 1087.76 0 0.139173 0.990268<168.624 385.798 490.873 806.999 922.116 1429.36>
LayerCount: 2
Fore
SplineSet
1062 1574 m 1,0,-1
 2045 1574 l 1,1,-1
 2025 1436 l 1,2,-1
 1290 1436 l 1,3,-1
 1214 890 l 1,4,-1
 1857 890 l 1,5,-1
 1843 776 l 1,6,-1
 1198 776 l 1,7,-1
 1108 144 l 1,8,-1
 1855 144 l 1,9,-1
 1837 0 l 1,10,-1
 921 0 l 1,11,-1
 975 382 l 1,12,-1
 455 382 l 1,13,-1
 208 0 l 1,14,-1
 18 0 l 1,15,-1
 1062 1574 l 1,0,-1
1116 1416 m 1,16,-1
 538 486 l 1,17,-1
 990 486 l 1,18,-1
 1116 1416 l 1,16,-1
EndSplineSet
EndChar

StartChar: Ccedilla
Encoding: 199 199 133
Width: 1232
GlyphClass: 2
Flags: W
HStem: -626 114<380.373 660.464> -282 88<546 651.707> -40 150<589.853 860.635> 1331 21G<1177.5 1221.03> 1458 152<670.459 1077.92>
VStem: 104 186<296.797 914.36> 693 123<-482.023 -323.784>
DStem2: 1021 229 898 20 0.911062 0.412268<-374.626 -1.75087> 1150 1543 1083 1411 0.850798 -0.525493<-145.062 159.85>
LayerCount: 2
Fore
SplineSet
814 -406 m 1,0,1
 799 -510 799 -510 725 -568 c 128,-1,2
 651 -626 651 -626 548 -626 c 0,3,4
 496 -626 496 -626 451.5 -613.5 c 128,-1,5
 407 -601 407 -601 389 -588 c 1,6,-1
 370 -576 l 1,7,-1
 374 -464 l 1,8,9
 476 -512 476 -512 558 -512 c 0,10,11
 625 -512 625 -512 656.5 -479.5 c 128,-1,12
 688 -447 688 -447 692 -412 c 0,13,14
 693 -406 693 -406 693 -395 c 0,15,16
 693 -373 693 -373 685.5 -357 c 128,-1,17
 678 -341 678 -341 659.5 -330 c 128,-1,18
 641 -319 641 -319 623 -311.5 c 128,-1,19
 605 -304 605 -304 569.5 -298.5 c 128,-1,20
 534 -293 534 -293 509 -290 c 2,21,-1
 435 -283 l 2,22,23
 428 -282 428 -282 424 -282 c 1,24,-1
 499.045 -29.9255 l 1,25,26
 453.72 -21.7666 453.72 -21.7666 413 -7 c 0,27,28
 322 26 322 26 251.5 95 c 128,-1,29
 181 164 181 164 142.5 281.5 c 128,-1,30
 104 399 104 399 104 558 c 0,31,32
 104 648 104 648 114.5 742 c 128,-1,33
 125 836 125 836 151.5 940.5 c 128,-1,34
 178 1045 178 1045 217.5 1139.5 c 128,-1,35
 257 1234 257 1234 320 1321 c 128,-1,36
 383 1408 383 1408 462 1471.5 c 128,-1,37
 541 1535 541 1535 650.5 1572.5 c 128,-1,38
 760 1610 760 1610 888 1610 c 0,39,40
 1040 1610 1040 1610 1150 1543 c 2,41,-1
 1286 1459 l 1,42,-1
 1209 1331 l 1,43,-1
 1083 1411 l 2,44,45
 1037 1440 1037 1440 989 1449 c 128,-1,46
 941 1458 941 1458 874 1458 c 0,47,48
 773 1458 773 1458 688 1421.5 c 128,-1,49
 603 1385 603 1385 544.5 1326.5 c 128,-1,50
 486 1268 486 1268 439.5 1187.5 c 128,-1,51
 393 1107 393 1107 366 1025 c 128,-1,52
 339 943 339 943 321 854 c 128,-1,53
 303 765 303 765 296.5 694.5 c 128,-1,54
 290 624 290 624 290 562 c 0,55,56
 290 436 290 436 316.5 346.5 c 128,-1,57
 343 257 343 257 394 206.5 c 128,-1,58
 445 156 445 156 510 133 c 128,-1,59
 575 110 575 110 660 110 c 0,60,61
 777 110 777 110 859 150 c 2,62,-1
 1021 229 l 1,63,-1
 1077 101 l 1,64,-1
 898 20 l 2,65,66
 845 -5 845 -5 768 -22.5 c 128,-1,67
 691 -40 691 -40 618 -40 c 0,68,69
 612.787 -40 612.787 -40 607.623 -39.931 c 1,70,71
 551.595 -173.485 551.595 -173.485 546 -194 c 1,72,73
 580 -194 580 -194 613 -198 c 128,-1,74
 646 -202 646 -202 684 -214 c 128,-1,75
 722 -226 722 -226 750 -245 c 128,-1,76
 778 -264 778 -264 797 -297.5 c 128,-1,77
 816 -331 816 -331 816 -375 c 0,78,79
 816 -384 816 -384 814 -406 c 1,0,1
EndSplineSet
EndChar

StartChar: Egrave
Encoding: 200 200 134
Width: 1185
GlyphClass: 2
Flags: W
HStem: 0 144<315 1029> 776 114<421 1035> 1436 138<497 1217>
VStem: 772 74<1732 1783.08>
DStem2: 113 0 294.762 0 0.139173 0.990268<170.712 809.087 924.204 1475.47>
LayerCount: 2
Fore
SplineSet
1029 0 m 1,0,-1
 113 0 l 1,1,-1
 337 1574 l 1,2,-1
 1237 1574 l 1,3,-1
 1217 1436 l 1,4,-1
 497 1436 l 1,5,-1
 421 890 l 1,6,-1
 1049 890 l 1,7,-1
 1035 776 l 1,8,-1
 405 776 l 1,9,-1
 315 144 l 1,10,-1
 1047 144 l 1,11,-1
 1029 0 l 1,0,-1
846 1732 m 1,12,-1
 772 1732 l 1,13,-1
 598 2352 l 1,14,-1
 840 2352 l 1,15,-1
 846 1732 l 1,12,-1
EndSplineSet
EndChar

StartChar: Eacute
Encoding: 201 201 135
Width: 1185
GlyphClass: 2
Flags: W
HStem: 0 144<315 1029> 776 114<421 1035> 1436 138<497 1217>
DStem2: 113 0 294.762 0 0.139173 0.990268<170.712 809.087 924.204 1475.47>
LayerCount: 2
Fore
SplineSet
1029 0 m 1,0,-1
 113 0 l 1,1,-1
 337 1574 l 1,2,-1
 1237 1574 l 1,3,-1
 1217 1436 l 1,4,-1
 497 1436 l 1,5,-1
 421 890 l 1,6,-1
 1049 890 l 1,7,-1
 1035 776 l 1,8,-1
 405 776 l 1,9,-1
 315 144 l 1,10,-1
 1047 144 l 1,11,-1
 1029 0 l 1,0,-1
825 1732 m 5,12,-1
 743 1732 l 5,13,-1
 934 2354 l 5,14,-1
 1174 2354 l 5,15,-1
 825 1732 l 5,12,-1
EndSplineSet
EndChar

StartChar: Ecircumflex
Encoding: 202 202 136
Width: 1185
GlyphClass: 2
Flags: W
HStem: 0 144<315 1029> 776 114<421 1035> 1436 138<497 1217>
DStem2: 113 0 294.762 0 0.139173 0.990268<170.712 809.087 924.204 1475.47> 534 1732 692 1732 0.523918 0.851769<82.7791 454.758> 1017 2062 885 2050 0.204987 -0.978765<-15.3131 308.848>
LayerCount: 2
Fore
SplineSet
1029 0 m 1,0,-1
 113 0 l 1,1,-1
 337 1574 l 1,2,-1
 1237 1574 l 1,3,-1
 1217 1436 l 1,4,-1
 497 1436 l 1,5,-1
 421 890 l 1,6,-1
 1049 890 l 1,7,-1
 1035 776 l 1,8,-1
 405 776 l 1,9,-1
 315 144 l 1,10,-1
 1047 144 l 1,11,-1
 1029 0 l 1,0,-1
973 2262 m 1,12,-1
 1017 2062 l 1,13,-1
 1084 1732 l 1,14,-1
 948 1732 l 1,15,-1
 902 1966 l 1,16,-1
 885 2050 l 1,17,-1
 829 1955 l 1,18,-1
 692 1732 l 1,19,-1
 534 1732 l 1,20,-1
 736 2062 l 1,21,-1
 860 2262 l 1,22,-1
 973 2262 l 1,12,-1
EndSplineSet
EndChar

StartChar: Edieresis
Encoding: 203 203 137
Width: 1185
GlyphClass: 2
Flags: W
HStem: 0 144<315 1029> 776 114<421 1035> 1436 138<497 1217> 1734 256<546.284 693.717 964.004 1110.99>
VStem: 504 232<1776.1 1947.96> 920 232<1774.1 1945.96>
DStem2: 113 0 294.762 0 0.139173 0.990268<170.712 809.087 924.204 1475.47>
LayerCount: 2
Fore
SplineSet
1029 0 m 1,0,-1
 113 0 l 1,1,-1
 337 1574 l 1,2,-1
 1237 1574 l 1,3,-1
 1217 1436 l 1,4,-1
 497 1436 l 1,5,-1
 421 890 l 1,6,-1
 1049 890 l 1,7,-1
 1035 776 l 1,8,-1
 405 776 l 1,9,-1
 315 144 l 1,10,-1
 1047 144 l 1,11,-1
 1029 0 l 1,0,-1
736 1884 m 0,12,13
 736 1826 736 1826 695 1780 c 128,-1,14
 654 1734 654 1734 604 1734 c 0,15,16
 560 1734 560 1734 532 1765 c 128,-1,17
 504 1796 504 1796 504 1842 c 0,18,19
 504 1899 504 1899 545 1944.5 c 128,-1,20
 586 1990 586 1990 640 1990 c 0,21,22
 681 1990 681 1990 708.5 1959 c 128,-1,23
 736 1928 736 1928 736 1884 c 0,12,13
1152 1882 m 0,24,25
 1152 1824 1152 1824 1111 1778 c 128,-1,26
 1070 1732 1070 1732 1020 1732 c 0,27,28
 976 1732 976 1732 948 1763 c 128,-1,29
 920 1794 920 1794 920 1840 c 0,30,31
 920 1897 920 1897 961 1942.5 c 128,-1,32
 1002 1988 1002 1988 1056 1988 c 0,33,34
 1097 1988 1097 1988 1124.5 1957 c 128,-1,35
 1152 1926 1152 1926 1152 1882 c 0,24,25
EndSplineSet
EndChar

StartChar: Igrave
Encoding: 204 204 138
Width: 833
GlyphClass: 2
Flags: W
HStem: 0 102<106 298 468 646> 1482 92<316 492 662 854>
VStem: 576 74<1732 1783.08>
DStem2: 283.665 0 453.665 0 0.139173 0.990268<126.662 1496.57>
LayerCount: 2
Fore
SplineSet
106 102 m 1,0,-1
 298 102 l 1,1,-1
 492 1482 l 1,2,-1
 302 1482 l 1,3,-1
 316 1574 l 1,4,-1
 866 1574 l 1,5,-1
 854 1482 l 1,6,-1
 662 1482 l 1,7,-1
 468 102 l 1,8,-1
 660 102 l 1,9,-1
 646 0 l 1,10,-1
 92 0 l 1,11,-1
 106 102 l 1,0,-1
650 1732 m 1,12,-1
 576 1732 l 1,13,-1
 402 2352 l 1,14,-1
 644 2352 l 1,15,-1
 650 1732 l 1,12,-1
EndSplineSet
EndChar

StartChar: Iacute
Encoding: 205 205 139
Width: 833
GlyphClass: 2
Flags: W
HStem: 0 102<106 298 468 646> 1482 92<316 492 662 854>
DStem2: 283.665 0 453.665 0 0.139173 0.990268<126.662 1496.57>
LayerCount: 2
Fore
SplineSet
665 1732 m 5,0,-1
 583 1732 l 5,1,-1
 774 2354 l 5,2,-1
 1014 2354 l 5,3,-1
 665 1732 l 5,0,-1
106 102 m 1,4,-1
 298 102 l 1,5,-1
 492 1482 l 1,6,-1
 302 1482 l 1,7,-1
 316 1574 l 1,8,-1
 866 1574 l 1,9,-1
 854 1482 l 1,10,-1
 662 1482 l 1,11,-1
 468 102 l 1,12,-1
 660 102 l 1,13,-1
 646 0 l 1,14,-1
 92 0 l 1,15,-1
 106 102 l 1,4,-1
EndSplineSet
EndChar

StartChar: Icircumflex
Encoding: 206 206 140
Width: 833
GlyphClass: 2
Flags: W
HStem: 0 102<106 298 468 646> 1482 92<316 492 662 854>
DStem2: 283.665 0 453.665 0 0.139173 0.990268<126.662 1496.57> 338 1732 496 1732 0.523918 0.851769<82.7791 454.758> 821 2062 689 2050 0.204987 -0.978765<-15.3131 308.848>
LayerCount: 2
Fore
SplineSet
106 102 m 1,0,-1
 298 102 l 1,1,-1
 492 1482 l 1,2,-1
 302 1482 l 1,3,-1
 316 1574 l 1,4,-1
 866 1574 l 1,5,-1
 854 1482 l 1,6,-1
 662 1482 l 1,7,-1
 468 102 l 1,8,-1
 660 102 l 1,9,-1
 646 0 l 1,10,-1
 92 0 l 1,11,-1
 106 102 l 1,0,-1
777 2262 m 1,12,-1
 821 2062 l 1,13,-1
 888 1732 l 1,14,-1
 752 1732 l 1,15,-1
 706 1966 l 1,16,-1
 689 2050 l 1,17,-1
 633 1955 l 1,18,-1
 496 1732 l 1,19,-1
 338 1732 l 1,20,-1
 540 2062 l 1,21,-1
 664 2262 l 1,22,-1
 777 2262 l 1,12,-1
EndSplineSet
EndChar

StartChar: Idieresis
Encoding: 207 207 141
Width: 833
GlyphClass: 2
Flags: W
HStem: 0 102<106 298 468 646> 1482 92<316 492 662 854> 1734 256<350.284 497.717 768.004 914.992>
VStem: 308 232<1776.1 1947.96> 724 232<1774.1 1945.96>
DStem2: 283.665 0 453.665 0 0.139173 0.990268<126.662 1496.57>
LayerCount: 2
Fore
SplineSet
106 102 m 1,0,-1
 298 102 l 1,1,-1
 492 1482 l 1,2,-1
 302 1482 l 1,3,-1
 316 1574 l 1,4,-1
 866 1574 l 1,5,-1
 854 1482 l 1,6,-1
 662 1482 l 1,7,-1
 468 102 l 1,8,-1
 660 102 l 1,9,-1
 646 0 l 1,10,-1
 92 0 l 1,11,-1
 106 102 l 1,0,-1
540 1884 m 0,12,13
 540 1826 540 1826 499 1780 c 128,-1,14
 458 1734 458 1734 408 1734 c 0,15,16
 364 1734 364 1734 336 1765 c 128,-1,17
 308 1796 308 1796 308 1842 c 0,18,19
 308 1899 308 1899 349 1944.5 c 128,-1,20
 390 1990 390 1990 444 1990 c 0,21,22
 485 1990 485 1990 512.5 1959 c 128,-1,23
 540 1928 540 1928 540 1884 c 0,12,13
956 1882 m 0,24,25
 956 1824 956 1824 915 1778 c 128,-1,26
 874 1732 874 1732 824 1732 c 0,27,28
 780 1732 780 1732 752 1763 c 128,-1,29
 724 1794 724 1794 724 1840 c 0,30,31
 724 1897 724 1897 765 1942.5 c 128,-1,32
 806 1988 806 1988 860 1988 c 0,33,34
 901 1988 901 1988 928.5 1957 c 128,-1,35
 956 1926 956 1926 956 1882 c 0,24,25
EndSplineSet
EndChar

StartChar: Eth
Encoding: 208 208 142
Width: 1514
GlyphClass: 2
Flags: W
HStem: 0 149<306 836.19> 737 144<125 207.884 408.273 759> 1423 151<484 1016.04>
VStem: 1174 184<632.375 1256.75>
DStem2: 103 0 285.059 0 0.139173 0.990268<175.802 744.425 914.912 1462.18>
LayerCount: 2
Fore
SplineSet
1358 1010 m 0,0,1
 1358 933 1358 933 1350.5 852 c 128,-1,2
 1343 771 1343 771 1321.5 669.5 c 128,-1,3
 1300 568 1300 568 1266.5 477 c 128,-1,4
 1233 386 1233 386 1175 297 c 128,-1,5
 1117 208 1117 208 1042 143.5 c 128,-1,6
 967 79 967 79 857 39.5 c 128,-1,7
 747 0 747 0 616 0 c 2,8,-1
 103 0 l 1,9,-1
 207.884 737 l 1,10,-1
 107 737 l 1,11,-1
 125 881 l 1,12,-1
 228.377 881 l 1,13,-1
 327 1574 l 1,14,-1
 840 1574 l 2,15,16
 1358 1574 1358 1574 1358 1010 c 0,0,1
639 149 m 2,17,18
 734 149 734 149 813 182.5 c 128,-1,19
 892 216 892 216 946 270 c 128,-1,20
 1000 324 1000 324 1042 399.5 c 128,-1,21
 1084 475 1084 475 1108 552.5 c 128,-1,22
 1132 630 1132 630 1147.5 717 c 128,-1,23
 1163 804 1163 804 1168.5 874 c 128,-1,24
 1174 944 1174 944 1174 1012 c 0,25,26
 1174 1233 1174 1233 1085.5 1328 c 128,-1,27
 997 1423 997 1423 817 1423 c 2,28,-1
 484 1423 l 1,29,-1
 408.273 881 l 1,30,-1
 777 881 l 1,31,-1
 759 737 l 1,32,-1
 388.154 737 l 1,33,-1
 306 149 l 1,34,-1
 639 149 l 2,17,18
EndSplineSet
EndChar

StartChar: Ntilde
Encoding: 209 209 143
Width: 1566
GlyphClass: 2
Flags: W
HStem: 1732 142<949.997 1110.32> 1852 146<698.027 850.27>
VStem: 532 146<1738 1821.57> 1128 146<1882.93 1984>
DStem2: 93.8595 -1 249 -1 0.139173 0.990268<21.5914 1463.67> 576 1574 450 1427 0.355069 -0.93484<92.6828 1505.38> 844.5 1978.5 824 1822 0.906392 -0.422439<-33.3113 236.89> 1082.67 -1 1241.86 -1 0.139173 0.990268<167.631 1590.61>
LayerCount: 2
Fore
SplineSet
1106 165 m 1,0,-1
 576 1574 l 1,1,-1
 318 1574 l 1,2,-1
 94 0 l 1,3,-1
 249 -1 l 1,4,-1
 450 1427 l 1,5,-1
 992 0 l 1,6,-1
 1242 0 l 1,7,-1
 1468 1574 l 1,8,-1
 1305 1574 l 1,9,-1
 1106 165 l 1,0,-1
756 1998 m 4,10,11
 798 1998 798 1998 844.5 1978.5 c 132,-1,12
 891 1959 891 1959 923.5 1936 c 132,-1,13
 956 1913 956 1913 993.5 1893.5 c 132,-1,14
 1031 1874 1031 1874 1058 1874 c 4,15,16
 1091 1874 1091 1874 1106 1903.5 c 132,-1,17
 1121 1933 1121 1933 1128 1984 c 5,18,-1
 1274 1984 l 5,19,20
 1274 1983 1274 1983 1273 1981 c 132,-1,21
 1272 1979 1272 1979 1272 1978 c 4,22,23
 1238.82 1734 1238.82 1734 1082 1734 c 4,24,25
 1078 1734 1078 1734 1070 1733 c 132,-1,26
 1062 1732 1062 1732 1058 1732 c 4,27,28
 1002 1732 1002 1732 938.5 1762 c 132,-1,29
 875 1792 875 1792 824 1822 c 132,-1,30
 773 1852 773 1852 748 1852 c 4,31,32
 715 1852 715 1852 700 1822.5 c 132,-1,33
 685 1793 685 1793 678 1738 c 5,34,-1
 532 1738 l 5,35,-1
 532 1744 l 5,36,37
 567 1998 567 1998 756 1998 c 4,10,11
EndSplineSet
EndChar

StartChar: Ograve
Encoding: 210 210 144
Width: 1504
GlyphClass: 2
Flags: W
HStem: -40 150<493.424 867.931> 1458 152<676.895 1056.41>
VStem: 145 186<292.389 939.6> 847 74<1732 1783.08> 1213 186<626.404 1284.71>
LayerCount: 2
Fore
SplineSet
1399 1014 m 0,0,1
 1399 923 1399 923 1389.5 830 c 128,-1,2
 1380 737 1380 737 1355.5 631.5 c 128,-1,3
 1331 526 1331 526 1294 431.5 c 128,-1,4
 1257 337 1257 337 1197.5 249.5 c 128,-1,5
 1138 162 1138 162 1063.5 99 c 128,-1,6
 989 36 989 36 884.5 -2 c 128,-1,7
 780 -40 780 -40 657 -40 c 0,8,9
 540 -40 540 -40 449 -7.5 c 128,-1,10
 358 25 358 25 288.5 94 c 128,-1,11
 219 163 219 163 182 278.5 c 128,-1,12
 145 394 145 394 145 552 c 0,13,14
 145 643 145 643 154.5 736.5 c 128,-1,15
 164 830 164 830 188.5 935.5 c 128,-1,16
 213 1041 213 1041 250.5 1136 c 128,-1,17
 288 1231 288 1231 347.5 1319 c 128,-1,18
 407 1407 407 1407 481.5 1470.5 c 128,-1,19
 556 1534 556 1534 661 1572 c 128,-1,20
 766 1610 766 1610 889 1610 c 0,21,22
 1003 1610 1003 1610 1093.5 1577 c 128,-1,23
 1184 1544 1184 1544 1253.5 1474.5 c 128,-1,24
 1323 1405 1323 1405 1361 1288.5 c 128,-1,25
 1399 1172 1399 1172 1399 1014 c 0,0,1
679 110 m 0,26,27
 767 110 767 110 842.5 142.5 c 128,-1,28
 918 175 918 175 971.5 229.5 c 128,-1,29
 1025 284 1025 284 1067.5 359.5 c 128,-1,30
 1110 435 1110 435 1137 516 c 128,-1,31
 1164 597 1164 597 1181.5 687.5 c 128,-1,32
 1199 778 1199 778 1206 859 c 128,-1,33
 1213 940 1213 940 1213 1018 c 0,34,35
 1213 1249 1213 1249 1126.5 1353.5 c 128,-1,36
 1040 1458 1040 1458 869 1458 c 0,37,38
 780 1458 780 1458 704 1426 c 128,-1,39
 628 1394 628 1394 574 1340.5 c 128,-1,40
 520 1287 520 1287 477 1212.5 c 128,-1,41
 434 1138 434 1138 407 1057.5 c 128,-1,42
 380 977 380 977 362.5 887 c 128,-1,43
 345 797 345 797 338 717 c 128,-1,44
 331 637 331 637 331 558 c 0,45,46
 331 325 331 325 419.5 217.5 c 128,-1,47
 508 110 508 110 679 110 c 0,26,27
921 1732 m 1,48,-1
 847 1732 l 1,49,-1
 673 2352 l 1,50,-1
 915 2352 l 1,51,-1
 921 1732 l 1,48,-1
EndSplineSet
EndChar

StartChar: Oacute
Encoding: 211 211 145
Width: 1504
GlyphClass: 2
Flags: W
HStem: -40 150<493.424 867.931> 1458 152<676.895 1056.41>
VStem: 145 186<292.389 939.6> 1213 186<626.404 1284.71>
LayerCount: 2
Fore
SplineSet
985 1732 m 5,0,-1
 903 1732 l 5,1,-1
 1094 2354 l 5,2,-1
 1334 2354 l 5,3,-1
 985 1732 l 5,0,-1
1399 1014 m 0,4,5
 1399 923 1399 923 1389.5 830 c 128,-1,6
 1380 737 1380 737 1355.5 631.5 c 128,-1,7
 1331 526 1331 526 1294 431.5 c 128,-1,8
 1257 337 1257 337 1197.5 249.5 c 128,-1,9
 1138 162 1138 162 1063.5 99 c 128,-1,10
 989 36 989 36 884.5 -2 c 128,-1,11
 780 -40 780 -40 657 -40 c 0,12,13
 540 -40 540 -40 449 -7.5 c 128,-1,14
 358 25 358 25 288.5 94 c 128,-1,15
 219 163 219 163 182 278.5 c 128,-1,16
 145 394 145 394 145 552 c 0,17,18
 145 643 145 643 154.5 736.5 c 128,-1,19
 164 830 164 830 188.5 935.5 c 128,-1,20
 213 1041 213 1041 250.5 1136 c 128,-1,21
 288 1231 288 1231 347.5 1319 c 128,-1,22
 407 1407 407 1407 481.5 1470.5 c 128,-1,23
 556 1534 556 1534 661 1572 c 128,-1,24
 766 1610 766 1610 889 1610 c 0,25,26
 1003 1610 1003 1610 1093.5 1577 c 128,-1,27
 1184 1544 1184 1544 1253.5 1474.5 c 128,-1,28
 1323 1405 1323 1405 1361 1288.5 c 128,-1,29
 1399 1172 1399 1172 1399 1014 c 0,4,5
679 110 m 0,30,31
 767 110 767 110 842.5 142.5 c 128,-1,32
 918 175 918 175 971.5 229.5 c 128,-1,33
 1025 284 1025 284 1067.5 359.5 c 128,-1,34
 1110 435 1110 435 1137 516 c 128,-1,35
 1164 597 1164 597 1181.5 687.5 c 128,-1,36
 1199 778 1199 778 1206 859 c 128,-1,37
 1213 940 1213 940 1213 1018 c 0,38,39
 1213 1249 1213 1249 1126.5 1353.5 c 128,-1,40
 1040 1458 1040 1458 869 1458 c 0,41,42
 780 1458 780 1458 704 1426 c 128,-1,43
 628 1394 628 1394 574 1340.5 c 128,-1,44
 520 1287 520 1287 477 1212.5 c 128,-1,45
 434 1138 434 1138 407 1057.5 c 128,-1,46
 380 977 380 977 362.5 887 c 128,-1,47
 345 797 345 797 338 717 c 128,-1,48
 331 637 331 637 331 558 c 0,49,50
 331 325 331 325 419.5 217.5 c 128,-1,51
 508 110 508 110 679 110 c 0,30,31
EndSplineSet
EndChar

StartChar: Ocircumflex
Encoding: 212 212 146
Width: 1504
GlyphClass: 2
Flags: W
HStem: -40 150<493.424 867.931> 1458 152<676.895 1056.41>
VStem: 145 186<292.389 939.6> 1213 186<626.404 1284.71>
DStem2: 609 1732 767 1732 0.528785 0.848756<83.548 455.508> 1092 2062 960 2050 0.204987 -0.978765<-15.3131 308.848>
LayerCount: 2
Fore
SplineSet
1399 1014 m 0,0,1
 1399 923 1399 923 1389.5 830 c 128,-1,2
 1380 737 1380 737 1355.5 631.5 c 128,-1,3
 1331 526 1331 526 1294 431.5 c 128,-1,4
 1257 337 1257 337 1197.5 249.5 c 128,-1,5
 1138 162 1138 162 1063.5 99 c 128,-1,6
 989 36 989 36 884.5 -2 c 128,-1,7
 780 -40 780 -40 657 -40 c 0,8,9
 540 -40 540 -40 449 -7.5 c 128,-1,10
 358 25 358 25 288.5 94 c 128,-1,11
 219 163 219 163 182 278.5 c 128,-1,12
 145 394 145 394 145 552 c 0,13,14
 145 643 145 643 154.5 736.5 c 128,-1,15
 164 830 164 830 188.5 935.5 c 128,-1,16
 213 1041 213 1041 250.5 1136 c 128,-1,17
 288 1231 288 1231 347.5 1319 c 128,-1,18
 407 1407 407 1407 481.5 1470.5 c 128,-1,19
 556 1534 556 1534 661 1572 c 128,-1,20
 766 1610 766 1610 889 1610 c 0,21,22
 1003 1610 1003 1610 1093.5 1577 c 128,-1,23
 1184 1544 1184 1544 1253.5 1474.5 c 128,-1,24
 1323 1405 1323 1405 1361 1288.5 c 128,-1,25
 1399 1172 1399 1172 1399 1014 c 0,0,1
679 110 m 0,26,27
 767 110 767 110 842.5 142.5 c 128,-1,28
 918 175 918 175 971.5 229.5 c 128,-1,29
 1025 284 1025 284 1067.5 359.5 c 128,-1,30
 1110 435 1110 435 1137 516 c 128,-1,31
 1164 597 1164 597 1181.5 687.5 c 128,-1,32
 1199 778 1199 778 1206 859 c 128,-1,33
 1213 940 1213 940 1213 1018 c 0,34,35
 1213 1249 1213 1249 1126.5 1353.5 c 128,-1,36
 1040 1458 1040 1458 869 1458 c 0,37,38
 780 1458 780 1458 704 1426 c 128,-1,39
 628 1394 628 1394 574 1340.5 c 128,-1,40
 520 1287 520 1287 477 1212.5 c 128,-1,41
 434 1138 434 1138 407 1057.5 c 128,-1,42
 380 977 380 977 362.5 887 c 128,-1,43
 345 797 345 797 338 717 c 128,-1,44
 331 637 331 637 331 558 c 0,45,46
 331 325 331 325 419.5 217.5 c 128,-1,47
 508 110 508 110 679 110 c 0,26,27
1048 2262 m 1,48,-1
 1092 2062 l 1,49,-1
 1159 1732 l 1,50,-1
 1023 1732 l 1,51,-1
 977 1966 l 1,52,-1
 960 2050 l 1,53,-1
 904 1955 l 1,54,-1
 767 1732 l 1,55,-1
 609 1732 l 1,56,-1
 811 2062 l 1,57,-1
 935 2262 l 1,58,-1
 1048 2262 l 1,48,-1
EndSplineSet
EndChar

StartChar: Otilde
Encoding: 213 213 147
Width: 1504
GlyphClass: 2
Flags: W
HStem: -40 150<493.424 867.931> 1458 152<676.895 1056.41> 1732 142<949.997 1110.69> 1852 146<698.027 850.27>
VStem: 145 186<292.389 939.6> 532 146<1738 1821.57> 1128 146<1882.77 1984> 1213 186<626.404 1284.71>
DStem2: 844.5 1978.5 824 1822 0.906392 -0.422439<-33.3113 236.89>
LayerCount: 2
Fore
SplineSet
1399 1014 m 0,0,1
 1399 923 1399 923 1389.5 830 c 128,-1,2
 1380 737 1380 737 1355.5 631.5 c 128,-1,3
 1331 526 1331 526 1294 431.5 c 128,-1,4
 1257 337 1257 337 1197.5 249.5 c 128,-1,5
 1138 162 1138 162 1063.5 99 c 128,-1,6
 989 36 989 36 884.5 -2 c 128,-1,7
 780 -40 780 -40 657 -40 c 0,8,9
 540 -40 540 -40 449 -7.5 c 128,-1,10
 358 25 358 25 288.5 94 c 128,-1,11
 219 163 219 163 182 278.5 c 128,-1,12
 145 394 145 394 145 552 c 0,13,14
 145 643 145 643 154.5 736.5 c 128,-1,15
 164 830 164 830 188.5 935.5 c 128,-1,16
 213 1041 213 1041 250.5 1136 c 128,-1,17
 288 1231 288 1231 347.5 1319 c 128,-1,18
 407 1407 407 1407 481.5 1470.5 c 128,-1,19
 556 1534 556 1534 661 1572 c 128,-1,20
 766 1610 766 1610 889 1610 c 0,21,22
 1003 1610 1003 1610 1093.5 1577 c 128,-1,23
 1184 1544 1184 1544 1253.5 1474.5 c 128,-1,24
 1323 1405 1323 1405 1361 1288.5 c 128,-1,25
 1399 1172 1399 1172 1399 1014 c 0,0,1
679 110 m 0,26,27
 767 110 767 110 842.5 142.5 c 128,-1,28
 918 175 918 175 971.5 229.5 c 128,-1,29
 1025 284 1025 284 1067.5 359.5 c 128,-1,30
 1110 435 1110 435 1137 516 c 128,-1,31
 1164 597 1164 597 1181.5 687.5 c 128,-1,32
 1199 778 1199 778 1206 859 c 128,-1,33
 1213 940 1213 940 1213 1018 c 0,34,35
 1213 1249 1213 1249 1126.5 1353.5 c 128,-1,36
 1040 1458 1040 1458 869 1458 c 0,37,38
 780 1458 780 1458 704 1426 c 128,-1,39
 628 1394 628 1394 574 1340.5 c 128,-1,40
 520 1287 520 1287 477 1212.5 c 128,-1,41
 434 1138 434 1138 407 1057.5 c 128,-1,42
 380 977 380 977 362.5 887 c 128,-1,43
 345 797 345 797 338 717 c 128,-1,44
 331 637 331 637 331 558 c 0,45,46
 331 325 331 325 419.5 217.5 c 128,-1,47
 508 110 508 110 679 110 c 0,26,27
756 1998 m 0,48,49
 798 1998 798 1998 844.5 1978.5 c 128,-1,50
 891 1959 891 1959 923.5 1936 c 128,-1,51
 956 1913 956 1913 993.5 1893.5 c 128,-1,52
 1031 1874 1031 1874 1058 1874 c 0,53,54
 1091 1874 1091 1874 1106 1903.5 c 128,-1,55
 1121 1933 1121 1933 1128 1984 c 1,56,-1
 1274 1984 l 1,57,58
 1274 1983 1274 1983 1273 1981 c 128,-1,59
 1272 1979 1272 1979 1272 1978 c 0,60,61
 1241 1750 1241 1750 1082 1734 c 0,62,63
 1078 1734 1078 1734 1070 1733 c 128,-1,64
 1062 1732 1062 1732 1058 1732 c 0,65,66
 1002 1732 1002 1732 938.5 1762 c 128,-1,67
 875 1792 875 1792 824 1822 c 128,-1,68
 773 1852 773 1852 748 1852 c 0,69,70
 715 1852 715 1852 700 1822.5 c 128,-1,71
 685 1793 685 1793 678 1738 c 1,72,-1
 532 1738 l 1,73,-1
 532 1744 l 1,74,75
 567 1998 567 1998 756 1998 c 0,48,49
EndSplineSet
EndChar

StartChar: Odieresis
Encoding: 214 214 148
Width: 1504
GlyphClass: 2
Flags: W
HStem: -40 150<493.424 867.931> 1458 152<676.895 1056.41> 1734 256<621.284 768.717 1039 1185.99>
VStem: 145 186<292.389 939.6> 579 232<1776.1 1947.96> 995 232<1774.1 1945.96> 1213 186<626.404 1284.71>
LayerCount: 2
Fore
SplineSet
1399 1014 m 0,0,1
 1399 923 1399 923 1389.5 830 c 128,-1,2
 1380 737 1380 737 1355.5 631.5 c 128,-1,3
 1331 526 1331 526 1294 431.5 c 128,-1,4
 1257 337 1257 337 1197.5 249.5 c 128,-1,5
 1138 162 1138 162 1063.5 99 c 128,-1,6
 989 36 989 36 884.5 -2 c 128,-1,7
 780 -40 780 -40 657 -40 c 0,8,9
 540 -40 540 -40 449 -7.5 c 128,-1,10
 358 25 358 25 288.5 94 c 128,-1,11
 219 163 219 163 182 278.5 c 128,-1,12
 145 394 145 394 145 552 c 0,13,14
 145 643 145 643 154.5 736.5 c 128,-1,15
 164 830 164 830 188.5 935.5 c 128,-1,16
 213 1041 213 1041 250.5 1136 c 128,-1,17
 288 1231 288 1231 347.5 1319 c 128,-1,18
 407 1407 407 1407 481.5 1470.5 c 128,-1,19
 556 1534 556 1534 661 1572 c 128,-1,20
 766 1610 766 1610 889 1610 c 0,21,22
 1003 1610 1003 1610 1093.5 1577 c 128,-1,23
 1184 1544 1184 1544 1253.5 1474.5 c 128,-1,24
 1323 1405 1323 1405 1361 1288.5 c 128,-1,25
 1399 1172 1399 1172 1399 1014 c 0,0,1
679 110 m 0,26,27
 767 110 767 110 842.5 142.5 c 128,-1,28
 918 175 918 175 971.5 229.5 c 128,-1,29
 1025 284 1025 284 1067.5 359.5 c 128,-1,30
 1110 435 1110 435 1137 516 c 128,-1,31
 1164 597 1164 597 1181.5 687.5 c 128,-1,32
 1199 778 1199 778 1206 859 c 128,-1,33
 1213 940 1213 940 1213 1018 c 0,34,35
 1213 1249 1213 1249 1126.5 1353.5 c 128,-1,36
 1040 1458 1040 1458 869 1458 c 0,37,38
 780 1458 780 1458 704 1426 c 128,-1,39
 628 1394 628 1394 574 1340.5 c 128,-1,40
 520 1287 520 1287 477 1212.5 c 128,-1,41
 434 1138 434 1138 407 1057.5 c 128,-1,42
 380 977 380 977 362.5 887 c 128,-1,43
 345 797 345 797 338 717 c 128,-1,44
 331 637 331 637 331 558 c 0,45,46
 331 325 331 325 419.5 217.5 c 128,-1,47
 508 110 508 110 679 110 c 0,26,27
811 1884 m 0,48,49
 811 1826 811 1826 770 1780 c 128,-1,50
 729 1734 729 1734 679 1734 c 0,51,52
 635 1734 635 1734 607 1765 c 128,-1,53
 579 1796 579 1796 579 1842 c 0,54,55
 579 1899 579 1899 620 1944.5 c 128,-1,56
 661 1990 661 1990 715 1990 c 0,57,58
 756 1990 756 1990 783.5 1959 c 128,-1,59
 811 1928 811 1928 811 1884 c 0,48,49
1227 1882 m 0,60,61
 1227 1824 1227 1824 1186 1778 c 128,-1,62
 1145 1732 1145 1732 1095 1732 c 0,63,64
 1051 1732 1051 1732 1023 1763 c 128,-1,65
 995 1794 995 1794 995 1840 c 0,66,67
 995 1897 995 1897 1036 1942.5 c 128,-1,68
 1077 1988 1077 1988 1131 1988 c 0,69,70
 1172 1988 1172 1988 1199.5 1957 c 128,-1,71
 1227 1926 1227 1926 1227 1882 c 0,60,61
EndSplineSet
EndChar

StartChar: multiply
Encoding: 215 215 149
Width: 1167
GlyphClass: 2
Flags: W
DStem2: 195 229 275 127 0.730376 0.683045<0 452.882 613.404 1066.29> 393 965 284 863 0.618952 -0.785429<12.648 403.719 545.997 937.068>
LayerCount: 2
Fore
SplineSet
284 863 m 1,0,-1
 393 965 l 1,1,-1
 643 648 l 1,2,-1
 982 965 l 1,3,-1
 1062 863 l 1,4,-1
 723 546 l 1,5,-1
 973 229 l 1,6,-1
 864 127 l 1,7,-1
 614 444 l 1,8,-1
 275 127 l 1,9,-1
 195 229 l 1,10,-1
 534 546 l 1,11,-1
 284 863 l 1,0,-1
EndSplineSet
EndChar

StartChar: Oslash
Encoding: 216 216 150
Width: 1417
GlyphClass: 2
Flags: W
HStem: -40 150<574.667 845.931> 1458 152<654.895 1033.77>
VStem: 123 186<292.389 939.6> 1191 186<626.404 1282.52>
DStem2: 349 -113 450 -159 0.411547 0.911389<0 128.24 302.564 1632.86 1837.1 2000.99>
LayerCount: 2
Fore
SplineSet
657 110 m 0,0,1
 745 110 745 110 820.5 142.5 c 128,-1,2
 896 175 896 175 949.5 229.5 c 128,-1,3
 1003 284 1003 284 1045.5 359.5 c 128,-1,4
 1088 435 1088 435 1115 516 c 128,-1,5
 1142 597 1142 597 1159.5 687.5 c 128,-1,6
 1177 778 1177 778 1184 859 c 128,-1,7
 1191 940 1191 940 1191 1018 c 0,8,9
 1191 1224.1 1191 1224.1 1122.15 1329.5 c 1,10,-1
 574.667 117.08 l 1,11,12
 613.117 110 613.117 110 657 110 c 0,0,1
1377 1014 m 0,13,14
 1377 923 1377 923 1367.5 830 c 128,-1,15
 1358 737 1358 737 1333.5 631.5 c 128,-1,16
 1309 526 1309 526 1272 431.5 c 128,-1,17
 1235 337 1235 337 1175.5 249.5 c 128,-1,18
 1116 162 1116 162 1041.5 99 c 128,-1,19
 967 36 967 36 862.5 -2 c 128,-1,20
 758 -40 758 -40 635 -40 c 0,21,22
 567.482 -40 567.482 -40 508.623 -29.177 c 1,23,-1
 450 -159 l 1,24,-1
 349 -113 l 1,25,-1
 401.309 2.58642 l 1,26,27
 326.02 34.9082 326.02 34.9082 266.5 94 c 0,28,29
 197 163 197 163 160 278.5 c 128,-1,30
 123 394 123 394 123 552 c 0,31,32
 123 643 123 643 132.5 736.5 c 128,-1,33
 142 830 142 830 166.5 935.5 c 128,-1,34
 191 1041 191 1041 228.5 1136 c 128,-1,35
 266 1231 266 1231 325.5 1319 c 128,-1,36
 385 1407 385 1407 459.5 1470.5 c 128,-1,37
 534 1534 534 1534 639 1572 c 128,-1,38
 744 1610 744 1610 867 1610 c 0,39,40
 981 1610 981 1610 1071.5 1577 c 0,41,42
 1089.74 1570.35 1089.74 1570.35 1107.12 1562.22 c 1,43,-1
 1174 1710 l 1,44,-1
 1275 1668 l 1,45,-1
 1200.43 1502.87 l 1,46,47
 1216.46 1489.54 1216.46 1489.54 1231.5 1474.5 c 0,48,49
 1301 1405 1301 1405 1339 1288.5 c 128,-1,50
 1377 1172 1377 1172 1377 1014 c 0,13,14
470.279 154.99 m 1,51,-1
 1038.61 1410.84 l 1,52,53
 961.875 1458 961.875 1458 847 1458 c 0,54,55
 758 1458 758 1458 682 1426 c 128,-1,56
 606 1394 606 1394 552 1340.5 c 128,-1,57
 498 1287 498 1287 455 1212.5 c 128,-1,58
 412 1138 412 1138 385 1057.5 c 128,-1,59
 358 977 358 977 340.5 887 c 128,-1,60
 323 797 323 797 316 717 c 128,-1,61
 309 637 309 637 309 558 c 0,62,63
 309 325 309 325 397.5 217.5 c 0,64,65
 428.747 179.544 428.747 179.544 470.279 154.99 c 1,51,-1
EndSplineSet
EndChar

StartChar: Ugrave
Encoding: 217 217 151
Width: 1563
GlyphClass: 2
Flags: W
HStem: -40 140<491.099 921.441> 1554 20G<323.163 504 1311.13 1494>
VStem: 186 176<231.297 873.625> 863 74<1732 1783.08>
DStem2: 98.0322 -40 278.594 -40 0.139173 0.990268<541.985 1630.02> 1084.59 -40 1266.03 -40 0.139173 0.990268<408.12 1630.22>
LayerCount: 2
Fore
SplineSet
700 100 m 0,0,1
 810 100 810 100 888 129.5 c 128,-1,2
 966 159 966 159 1026.5 229.5 c 128,-1,3
 1087 300 1087 300 1126 417 c 128,-1,4
 1165 534 1165 534 1190 710 c 2,5,-1
 1314 1574 l 1,6,-1
 1494 1574 l 1,7,-1
 1372 714 l 2,8,9
 1347 538 1347 538 1298.5 405 c 128,-1,10
 1250 272 1250 272 1187 188.5 c 128,-1,11
 1124 105 1124 105 1040.5 52.5 c 128,-1,12
 957 0 957 0 870.5 -20 c 128,-1,13
 784 -40 784 -40 680 -40 c 0,14,15
 591 -40 591 -40 519.5 -25 c 128,-1,16
 448 -10 448 -10 384.5 27 c 128,-1,17
 321 64 321 64 278 123.5 c 128,-1,18
 235 183 235 183 210.5 275.5 c 128,-1,19
 186 368 186 368 186 490 c 0,20,21
 186 588 186 588 204 714 c 2,22,-1
 326 1574 l 1,23,-1
 504 1574 l 1,24,-1
 384 710 l 1,25,26
 362 538 362 538 362 468 c 0,27,28
 362 265 362 265 442 182.5 c 128,-1,29
 522 100 522 100 700 100 c 0,0,1
937 1732 m 1,30,-1
 863 1732 l 1,31,-1
 689 2352 l 1,32,-1
 931 2352 l 1,33,-1
 937 1732 l 1,30,-1
EndSplineSet
EndChar

StartChar: Uacute
Encoding: 218 218 152
Width: 1563
GlyphClass: 2
Flags: W
HStem: -40 140<491.099 921.441> 1554 20G<323.163 504 1311.13 1494>
VStem: 186 176<231.297 873.625>
DStem2: 98.0322 -40 278.594 -40 0.139173 0.990268<541.985 1630.02> 1084.59 -40 1266.03 -40 0.139173 0.990268<408.12 1630.22>
LayerCount: 2
Fore
SplineSet
964 1732 m 5,0,-1
 882 1732 l 5,1,-1
 1073 2354 l 5,2,-1
 1313 2354 l 5,3,-1
 964 1732 l 5,0,-1
700 100 m 0,4,5
 810 100 810 100 888 129.5 c 128,-1,6
 966 159 966 159 1026.5 229.5 c 128,-1,7
 1087 300 1087 300 1126 417 c 128,-1,8
 1165 534 1165 534 1190 710 c 2,9,-1
 1314 1574 l 1,10,-1
 1494 1574 l 1,11,-1
 1372 714 l 2,12,13
 1347 538 1347 538 1298.5 405 c 128,-1,14
 1250 272 1250 272 1187 188.5 c 128,-1,15
 1124 105 1124 105 1040.5 52.5 c 128,-1,16
 957 0 957 0 870.5 -20 c 128,-1,17
 784 -40 784 -40 680 -40 c 0,18,19
 591 -40 591 -40 519.5 -25 c 128,-1,20
 448 -10 448 -10 384.5 27 c 128,-1,21
 321 64 321 64 278 123.5 c 128,-1,22
 235 183 235 183 210.5 275.5 c 128,-1,23
 186 368 186 368 186 490 c 0,24,25
 186 588 186 588 204 714 c 2,26,-1
 326 1574 l 1,27,-1
 504 1574 l 1,28,-1
 384 710 l 1,29,30
 362 538 362 538 362 468 c 0,31,32
 362 265 362 265 442 182.5 c 128,-1,33
 522 100 522 100 700 100 c 0,4,5
EndSplineSet
EndChar

StartChar: Ucircumflex
Encoding: 219 219 153
Width: 1563
GlyphClass: 2
Flags: W
HStem: -40 140<491.099 921.441> 1554 20G<323.163 504 1311.13 1494>
VStem: 186 176<231.297 873.625>
DStem2: 98.0322 -40 278.594 -40 0.139173 0.990268<541.985 1630.02> 655 1732 813 1732 0.523918 0.851769<82.7791 454.758> 1138 2062 1006 2050 0.204987 -0.978765<-15.3131 308.848> 1084.59 -40 1266.03 -40 0.139173 0.990268<408.12 1630.22>
LayerCount: 2
Fore
SplineSet
700 100 m 0,0,1
 810 100 810 100 888 129.5 c 128,-1,2
 966 159 966 159 1026.5 229.5 c 128,-1,3
 1087 300 1087 300 1126 417 c 128,-1,4
 1165 534 1165 534 1190 710 c 2,5,-1
 1314 1574 l 1,6,-1
 1494 1574 l 1,7,-1
 1372 714 l 2,8,9
 1347 538 1347 538 1298.5 405 c 128,-1,10
 1250 272 1250 272 1187 188.5 c 128,-1,11
 1124 105 1124 105 1040.5 52.5 c 128,-1,12
 957 0 957 0 870.5 -20 c 128,-1,13
 784 -40 784 -40 680 -40 c 0,14,15
 591 -40 591 -40 519.5 -25 c 128,-1,16
 448 -10 448 -10 384.5 27 c 128,-1,17
 321 64 321 64 278 123.5 c 128,-1,18
 235 183 235 183 210.5 275.5 c 128,-1,19
 186 368 186 368 186 490 c 0,20,21
 186 588 186 588 204 714 c 2,22,-1
 326 1574 l 1,23,-1
 504 1574 l 1,24,-1
 384 710 l 1,25,26
 362 538 362 538 362 468 c 0,27,28
 362 265 362 265 442 182.5 c 128,-1,29
 522 100 522 100 700 100 c 0,0,1
1094 2262 m 5,30,-1
 1138 2062 l 5,31,-1
 1205 1732 l 5,32,-1
 1069 1732 l 5,33,-1
 1023 1966 l 5,34,-1
 1006 2050 l 5,35,-1
 950 1955 l 5,36,-1
 813 1732 l 5,37,-1
 655 1732 l 5,38,-1
 857 2062 l 5,39,-1
 981 2262 l 5,40,-1
 1094 2262 l 5,30,-1
EndSplineSet
EndChar

StartChar: Udieresis
Encoding: 220 220 154
Width: 1563
GlyphClass: 2
Flags: W
HStem: -40 140<491.099 921.441> 1554 20G<323.163 504 1311.13 1494> 1734 256<667.284 814.717 1085 1231.99>
VStem: 186 176<231.297 873.625> 625 232<1776.1 1947.96> 1041 232<1774.1 1945.96>
DStem2: 98.0322 -40 278.594 -40 0.139173 0.990268<541.985 1630.02> 1084.59 -40 1266.03 -40 0.139173 0.990268<408.12 1630.22>
LayerCount: 2
Fore
SplineSet
700 100 m 0,0,1
 810 100 810 100 888 129.5 c 128,-1,2
 966 159 966 159 1026.5 229.5 c 128,-1,3
 1087 300 1087 300 1126 417 c 128,-1,4
 1165 534 1165 534 1190 710 c 2,5,-1
 1314 1574 l 1,6,-1
 1494 1574 l 1,7,-1
 1372 714 l 2,8,9
 1347 538 1347 538 1298.5 405 c 128,-1,10
 1250 272 1250 272 1187 188.5 c 128,-1,11
 1124 105 1124 105 1040.5 52.5 c 128,-1,12
 957 0 957 0 870.5 -20 c 128,-1,13
 784 -40 784 -40 680 -40 c 0,14,15
 591 -40 591 -40 519.5 -25 c 128,-1,16
 448 -10 448 -10 384.5 27 c 128,-1,17
 321 64 321 64 278 123.5 c 128,-1,18
 235 183 235 183 210.5 275.5 c 128,-1,19
 186 368 186 368 186 490 c 0,20,21
 186 588 186 588 204 714 c 2,22,-1
 326 1574 l 1,23,-1
 504 1574 l 1,24,-1
 384 710 l 1,25,26
 362 538 362 538 362 468 c 0,27,28
 362 265 362 265 442 182.5 c 128,-1,29
 522 100 522 100 700 100 c 0,0,1
857 1884 m 4,30,31
 857 1826 857 1826 816 1780 c 132,-1,32
 775 1734 775 1734 725 1734 c 4,33,34
 681 1734 681 1734 653 1765 c 132,-1,35
 625 1796 625 1796 625 1842 c 4,36,37
 625 1899 625 1899 666 1944.5 c 132,-1,38
 707 1990 707 1990 761 1990 c 4,39,40
 802 1990 802 1990 829.5 1959 c 132,-1,41
 857 1928 857 1928 857 1884 c 4,30,31
1273 1882 m 4,42,43
 1273 1824 1273 1824 1232 1778 c 132,-1,44
 1191 1732 1191 1732 1141 1732 c 4,45,46
 1097 1732 1097 1732 1069 1763 c 132,-1,47
 1041 1794 1041 1794 1041 1840 c 4,48,49
 1041 1897 1041 1897 1082 1942.5 c 132,-1,50
 1123 1988 1123 1988 1177 1988 c 4,51,52
 1218 1988 1218 1988 1245.5 1957 c 132,-1,53
 1273 1926 1273 1926 1273 1882 c 4,42,43
EndSplineSet
EndChar

StartChar: Yacute
Encoding: 221 221 155
Width: 1173
GlyphClass: 2
Flags: W
HStem: 0 21G<439 619.798> 1554 20G<193 360.097 1127.49 1315>
DStem2: 354 1574 193 1574 0.287846 -0.957677<0 949.686> 439 0 617 0 0.139173 0.990268<24.7728 515.507> 1139 1574 1315 1574 0.501099 0.86539<-1042.2 0>
LayerCount: 2
Fore
SplineSet
775 1732 m 5,0,-1
 693 1732 l 5,1,-1
 884 2354 l 5,2,-1
 1124 2354 l 5,3,-1
 775 1732 l 5,0,-1
735 872 m 1,4,-1
 1139 1574 l 1,5,-1
 1315 1574 l 1,6,-1
 685 486 l 1,7,-1
 617 0 l 1,8,-1
 439 0 l 1,9,-1
 511 516 l 1,10,-1
 193 1574 l 1,11,-1
 354 1574 l 1,12,-1
 568 872 l 1,13,-1
 629 665 l 1,14,-1
 735 872 l 1,4,-1
EndSplineSet
EndChar

StartChar: Thorn
Encoding: 222 222 156
Width: 1344
GlyphClass: 2
Flags: W
HStem: 0 21G<142 326.778> 504 146<414 908.148> 1300 144<526 1007.18> 1560 20G<361.19 544>
VStem: 1129 171<838.91 1199.85>
DStem2: 142 0 324 0 0.139173 0.990268<25.3295 534.167 681.529 1338.01 1483.39 1595.52>
LayerCount: 2
Fore
SplineSet
1300 1080 m 0,0,1
 1300 774 1300 774 1110 639 c 128,-1,2
 920 504 920 504 544 504 c 2,3,-1
 394 504 l 1,4,-1
 324 0 l 1,5,-1
 142 0 l 1,6,-1
 364 1580 l 1,7,-1
 544 1580 l 1,8,-1
 526 1444 l 1,9,-1
 708 1444 l 2,10,11
 1024 1444 1024 1444 1162 1358 c 128,-1,12
 1300 1272 1300 1272 1300 1080 c 0,0,1
1129 1059 m 0,13,14
 1129 1146 1129 1146 1090.5 1197 c 128,-1,15
 1052 1248 1052 1248 955 1274 c 128,-1,16
 858 1300 858 1300 688 1300 c 2,17,-1
 506 1300 l 1,18,-1
 414 650 l 1,19,-1
 563 650 l 2,20,21
 872 650 872 650 1000.5 739.5 c 128,-1,22
 1129 829 1129 829 1129 1059 c 0,13,14
EndSplineSet
EndChar

StartChar: germandbls
Encoding: 223 223 157
Width: 1297
GlyphClass: 2
Flags: W
HStem: -130 156<462 727.246> 0 21G<136 310.79> 774 132<558 850.499> 1436 144<587.616 931.141>
VStem: 991 150<1043.94 1379.86> 1036 152<273.836 640.123>
DStem2: 117.73 -130 289.73 -130 0.139173 0.990268<155.215 1508.86>
LayerCount: 2
Fore
SplineSet
1141 1265 m 0,0,1
 1141 1169 1141 1169 1115 1081.5 c 128,-1,2
 1089 994 1089 994 1026 925 c 128,-1,3
 963 856 963 856 872 844 c 1,4,5
 1030 830 1030 830 1112 734.5 c 128,-1,6
 1194 639 1194 639 1194 487 c 0,7,8
 1194 445 1194 445 1188 400 c 1,9,-1
 1188 396 l 1,10,11
 1172 286 1172 286 1127 200 c 128,-1,12
 1082 114 1082 114 1016 56.5 c 128,-1,13
 950 -1 950 -1 858 -40.5 c 128,-1,14
 766 -80 766 -80 665 -100.5 c 128,-1,15
 564 -121 564 -121 440 -130 c 1,16,-1
 462 26 l 1,17,18
 593 37 593 37 688 60 c 128,-1,19
 783 83 783 83 844.5 115.5 c 128,-1,20
 906 148 906 148 945 197.5 c 128,-1,21
 984 247 984 247 1003 301 c 128,-1,22
 1022 355 1022 355 1032 432 c 0,23,24
 1036 459 1036 459 1036 490 c 0,25,26
 1036 635 1036 635 923 704.5 c 128,-1,27
 810 774 810 774 584 774 c 2,28,-1
 538 774 l 1,29,-1
 558 906 l 1,30,-1
 578 906 l 2,31,32
 728 906 728 906 812 934.5 c 128,-1,33
 896 963 896 963 933.5 1020.5 c 128,-1,34
 971 1078 971 1078 986 1184 c 0,35,36
 991 1222 991 1222 991 1248 c 0,37,38
 991 1350 991 1350 931.5 1393 c 128,-1,39
 872 1436 872 1436 744 1436 c 0,40,41
 690 1436 690 1436 648.5 1424 c 128,-1,42
 607 1412 607 1412 577.5 1384 c 128,-1,43
 548 1356 548 1356 528 1324.5 c 128,-1,44
 508 1293 508 1293 493 1240 c 128,-1,45
 478 1187 478 1187 469 1139.5 c 128,-1,46
 460 1092 460 1092 450 1018 c 2,47,-1
 308 0 l 1,48,-1
 136 0 l 1,49,-1
 274 992 l 2,50,51
 302 1193 302 1193 340 1292 c 0,52,53
 435 1543 435 1543 684 1575 c 0,54,55
 722 1580 722 1580 764 1580 c 0,56,57
 1141 1580 1141 1580 1141 1265 c 0,0,1
EndSplineSet
EndChar

StartChar: agrave
Encoding: 224 224 158
Width: 1095
GlyphClass: 2
Flags: W
HStem: -20 130<342.722 620.714> 0 21G<780 912.846> 1002 128<547.002 882.711>
VStem: 101 162<194.568 653.949> 652 74<1252 1303.08> 787 123<0 100.745>
DStem2: 745.27 -20 908.994 -20 0.139173 0.990268<257.552 1001.84>
LayerCount: 2
Fore
SplineSet
1056 1026 m 1,0,-1
 910 0 l 1,1,-1
 780 0 l 1,2,-1
 787 196 l 1,3,4
 731 93 731 93 640.5 36.5 c 128,-1,5
 550 -20 550 -20 448 -20 c 0,6,7
 356 -20 356 -20 287 13.5 c 128,-1,8
 218 47 218 47 178.5 106 c 128,-1,9
 139 165 139 165 120 238.5 c 128,-1,10
 101 312 101 312 101 400 c 0,11,12
 101 496 101 496 128.5 598.5 c 128,-1,13
 156 701 156 701 209 795.5 c 128,-1,14
 262 890 262 890 333.5 965 c 128,-1,15
 405 1040 405 1040 501 1085 c 128,-1,16
 597 1130 597 1130 701 1130 c 0,17,18
 775 1130 775 1130 863.5 1104 c 128,-1,19
 952 1078 952 1078 1004 1052 c 2,20,-1
 1056 1026 l 1,0,-1
263 406 m 0,21,22
 263 248 263 248 318.5 179 c 128,-1,23
 374 110 374 110 488 110 c 0,24,25
 538 110 538 110 587 130.5 c 128,-1,26
 636 151 636 151 674.5 183 c 128,-1,27
 713 215 713 215 740.5 245 c 128,-1,28
 768 275 768 275 787 304 c 1,29,-1
 883 960 l 2,30,31
 883 961 883 961 860 971 c 128,-1,32
 837 981 837 981 794 991.5 c 128,-1,33
 751 1002 751 1002 710 1002 c 0,34,35
 595 1002 595 1002 492 920.5 c 128,-1,36
 389 839 389 839 326 700.5 c 128,-1,37
 263 562 263 562 263 406 c 0,21,22
726 1252 m 1,38,-1
 652 1252 l 1,39,-1
 478 1872 l 1,40,-1
 720 1872 l 1,41,-1
 726 1252 l 1,38,-1
EndSplineSet
EndChar

StartChar: aacute
Encoding: 225 225 159
Width: 1095
GlyphClass: 2
Flags: W
HStem: -20 130<342.722 620.714> 0 21G<780 912.846> 1002 128<547.002 882.711>
VStem: 101 162<194.568 653.949> 787 123<0 100.745>
DStem2: 745.27 -20 908.994 -20 0.139173 0.990268<257.552 1001.84>
LayerCount: 2
Fore
SplineSet
734 1252 m 5,0,-1
 652 1252 l 5,1,-1
 843 1874 l 5,2,-1
 1083 1874 l 5,3,-1
 734 1252 l 5,0,-1
1056 1026 m 1,4,-1
 910 0 l 1,5,-1
 780 0 l 1,6,-1
 787 196 l 1,7,8
 731 93 731 93 640.5 36.5 c 128,-1,9
 550 -20 550 -20 448 -20 c 0,10,11
 356 -20 356 -20 287 13.5 c 128,-1,12
 218 47 218 47 178.5 106 c 128,-1,13
 139 165 139 165 120 238.5 c 128,-1,14
 101 312 101 312 101 400 c 0,15,16
 101 496 101 496 128.5 598.5 c 128,-1,17
 156 701 156 701 209 795.5 c 128,-1,18
 262 890 262 890 333.5 965 c 128,-1,19
 405 1040 405 1040 501 1085 c 128,-1,20
 597 1130 597 1130 701 1130 c 0,21,22
 775 1130 775 1130 863.5 1104 c 128,-1,23
 952 1078 952 1078 1004 1052 c 2,24,-1
 1056 1026 l 1,4,-1
263 406 m 0,25,26
 263 248 263 248 318.5 179 c 128,-1,27
 374 110 374 110 488 110 c 0,28,29
 538 110 538 110 587 130.5 c 128,-1,30
 636 151 636 151 674.5 183 c 128,-1,31
 713 215 713 215 740.5 245 c 128,-1,32
 768 275 768 275 787 304 c 1,33,-1
 883 960 l 2,34,35
 883 961 883 961 860 971 c 128,-1,36
 837 981 837 981 794 991.5 c 128,-1,37
 751 1002 751 1002 710 1002 c 0,38,39
 595 1002 595 1002 492 920.5 c 128,-1,40
 389 839 389 839 326 700.5 c 128,-1,41
 263 562 263 562 263 406 c 0,25,26
EndSplineSet
EndChar

StartChar: acircumflex
Encoding: 226 226 160
Width: 1095
GlyphClass: 2
Flags: W
HStem: -20 130<342.722 620.714> 0 21G<780 912.846> 1002 128<547.002 882.711>
VStem: 101 162<194.568 653.949> 780 130<0 79.6626 1523.55 1570>
DStem2: 424 1252 582 1252 0.523918 0.851769<82.7791 454.758> 745.27 -20 908.994 -20 0.139173 0.990268<257.552 1001.84> 907 1582 775 1570 0.204987 -0.978765<-15.3131 308.848>
LayerCount: 2
Fore
SplineSet
1056 1026 m 1,0,-1
 910 0 l 1,1,-1
 780 0 l 1,2,-1
 787 196 l 1,3,4
 731 93 731 93 640.5 36.5 c 128,-1,5
 550 -20 550 -20 448 -20 c 0,6,7
 356 -20 356 -20 287 13.5 c 128,-1,8
 218 47 218 47 178.5 106 c 128,-1,9
 139 165 139 165 120 238.5 c 128,-1,10
 101 312 101 312 101 400 c 0,11,12
 101 496 101 496 128.5 598.5 c 128,-1,13
 156 701 156 701 209 795.5 c 128,-1,14
 262 890 262 890 333.5 965 c 128,-1,15
 405 1040 405 1040 501 1085 c 128,-1,16
 597 1130 597 1130 701 1130 c 0,17,18
 775 1130 775 1130 863.5 1104 c 128,-1,19
 952 1078 952 1078 1004 1052 c 2,20,-1
 1056 1026 l 1,0,-1
263 406 m 0,21,22
 263 248 263 248 318.5 179 c 128,-1,23
 374 110 374 110 488 110 c 0,24,25
 538 110 538 110 587 130.5 c 128,-1,26
 636 151 636 151 674.5 183 c 128,-1,27
 713 215 713 215 740.5 245 c 128,-1,28
 768 275 768 275 787 304 c 1,29,-1
 883 960 l 2,30,31
 883 961 883 961 860 971 c 128,-1,32
 837 981 837 981 794 991.5 c 128,-1,33
 751 1002 751 1002 710 1002 c 0,34,35
 595 1002 595 1002 492 920.5 c 128,-1,36
 389 839 389 839 326 700.5 c 128,-1,37
 263 562 263 562 263 406 c 0,21,22
863 1782 m 5,38,-1
 907 1582 l 5,39,-1
 974 1252 l 5,40,-1
 838 1252 l 5,41,-1
 792 1486 l 5,42,-1
 775 1570 l 5,43,-1
 719 1475 l 5,44,-1
 582 1252 l 5,45,-1
 424 1252 l 5,46,-1
 626 1582 l 5,47,-1
 750 1782 l 5,48,-1
 863 1782 l 5,38,-1
EndSplineSet
EndChar

StartChar: atilde
Encoding: 227 227 161
Width: 1095
GlyphClass: 2
Flags: W
HStem: -20 130<342.722 620.714> 0 21G<780 912.846> 1002 128<547.002 882.711> 1252 142<784.997 945.318> 1372 146<533.027 685.27>
VStem: 101 162<194.568 653.949> 367 146<1258 1341.57> 787 123<0 100.745>
DStem2: 679.5 1498.5 659 1342 0.906392 -0.422439<-33.3113 236.89> 745.27 -20 908.994 -20 0.139173 0.990268<257.552 1001.84 1427.14 1539.47>
LayerCount: 2
Fore
SplineSet
1056 1026 m 1,0,-1
 910 0 l 1,1,-1
 780 0 l 1,2,-1
 787 196 l 1,3,4
 731 93 731 93 640.5 36.5 c 128,-1,5
 550 -20 550 -20 448 -20 c 0,6,7
 356 -20 356 -20 287 13.5 c 128,-1,8
 218 47 218 47 178.5 106 c 128,-1,9
 139 165 139 165 120 238.5 c 128,-1,10
 101 312 101 312 101 400 c 0,11,12
 101 496 101 496 128.5 598.5 c 128,-1,13
 156 701 156 701 209 795.5 c 128,-1,14
 262 890 262 890 333.5 965 c 128,-1,15
 405 1040 405 1040 501 1085 c 128,-1,16
 597 1130 597 1130 701 1130 c 0,17,18
 775 1130 775 1130 863.5 1104 c 128,-1,19
 952 1078 952 1078 1004 1052 c 2,20,-1
 1056 1026 l 1,0,-1
263 406 m 0,21,22
 263 248 263 248 318.5 179 c 128,-1,23
 374 110 374 110 488 110 c 0,24,25
 538 110 538 110 587 130.5 c 128,-1,26
 636 151 636 151 674.5 183 c 128,-1,27
 713 215 713 215 740.5 245 c 128,-1,28
 768 275 768 275 787 304 c 1,29,-1
 883 960 l 2,30,31
 883 961 883 961 860 971 c 128,-1,32
 837 981 837 981 794 991.5 c 128,-1,33
 751 1002 751 1002 710 1002 c 0,34,35
 595 1002 595 1002 492 920.5 c 128,-1,36
 389 839 389 839 326 700.5 c 128,-1,37
 263 562 263 562 263 406 c 0,21,22
591 1518 m 4,38,39
 633 1518 633 1518 679.5 1498.5 c 132,-1,40
 726 1479 726 1479 758.5 1456 c 132,-1,41
 791 1433 791 1433 828.5 1413.5 c 132,-1,42
 866 1394 866 1394 893 1394 c 4,43,44
 926 1394 926 1394 941 1423.5 c 132,-1,45
 956 1453 956 1453 963 1504 c 5,46,-1
 1109 1504 l 5,47,48
 1109 1503 1109 1503 1108 1501 c 132,-1,49
 1107 1499 1107 1499 1107 1498 c 4,50,51
 1073.82 1254 1073.82 1254 917 1254 c 4,52,53
 913 1254 913 1254 905 1253 c 132,-1,54
 897 1252 897 1252 893 1252 c 4,55,56
 837 1252 837 1252 773.5 1282 c 132,-1,57
 710 1312 710 1312 659 1342 c 132,-1,58
 608 1372 608 1372 583 1372 c 4,59,60
 550 1372 550 1372 535 1342.5 c 132,-1,61
 520 1313 520 1313 513 1258 c 5,62,-1
 367 1258 l 5,63,-1
 367 1264 l 5,64,65
 402 1518 402 1518 591 1518 c 4,38,39
EndSplineSet
EndChar

StartChar: adieresis
Encoding: 228 228 162
Width: 1095
GlyphClass: 2
Flags: W
HStem: -20 130<342.722 620.714> 0 21G<780 912.846> 1002 128<547.002 882.711> 1254 256<426.284 573.717 844.004 990.992>
VStem: 101 162<194.568 653.949> 384 232<1296.1 1467.96> 787 123<0 100.745> 800 232<1294.1 1465.96>
DStem2: 745.27 -20 908.994 -20 0.139173 0.990268<257.552 1001.84>
LayerCount: 2
Fore
SplineSet
1056 1026 m 1,0,-1
 910 0 l 1,1,-1
 780 0 l 1,2,-1
 787 196 l 1,3,4
 731 93 731 93 640.5 36.5 c 128,-1,5
 550 -20 550 -20 448 -20 c 0,6,7
 356 -20 356 -20 287 13.5 c 128,-1,8
 218 47 218 47 178.5 106 c 128,-1,9
 139 165 139 165 120 238.5 c 128,-1,10
 101 312 101 312 101 400 c 0,11,12
 101 496 101 496 128.5 598.5 c 128,-1,13
 156 701 156 701 209 795.5 c 128,-1,14
 262 890 262 890 333.5 965 c 128,-1,15
 405 1040 405 1040 501 1085 c 128,-1,16
 597 1130 597 1130 701 1130 c 0,17,18
 775 1130 775 1130 863.5 1104 c 128,-1,19
 952 1078 952 1078 1004 1052 c 2,20,-1
 1056 1026 l 1,0,-1
263 406 m 0,21,22
 263 248 263 248 318.5 179 c 128,-1,23
 374 110 374 110 488 110 c 0,24,25
 538 110 538 110 587 130.5 c 128,-1,26
 636 151 636 151 674.5 183 c 128,-1,27
 713 215 713 215 740.5 245 c 128,-1,28
 768 275 768 275 787 304 c 1,29,-1
 883 960 l 2,30,31
 883 961 883 961 860 971 c 128,-1,32
 837 981 837 981 794 991.5 c 128,-1,33
 751 1002 751 1002 710 1002 c 0,34,35
 595 1002 595 1002 492 920.5 c 128,-1,36
 389 839 389 839 326 700.5 c 128,-1,37
 263 562 263 562 263 406 c 0,21,22
616 1404 m 0,38,39
 616 1346 616 1346 575 1300 c 128,-1,40
 534 1254 534 1254 484 1254 c 0,41,42
 440 1254 440 1254 412 1285 c 128,-1,43
 384 1316 384 1316 384 1362 c 0,44,45
 384 1419 384 1419 425 1464.5 c 128,-1,46
 466 1510 466 1510 520 1510 c 0,47,48
 561 1510 561 1510 588.5 1479 c 128,-1,49
 616 1448 616 1448 616 1404 c 0,38,39
1032 1402 m 0,50,51
 1032 1344 1032 1344 991 1298 c 128,-1,52
 950 1252 950 1252 900 1252 c 0,53,54
 856 1252 856 1252 828 1283 c 128,-1,55
 800 1314 800 1314 800 1360 c 0,56,57
 800 1417 800 1417 841 1462.5 c 128,-1,58
 882 1508 882 1508 936 1508 c 0,59,60
 977 1508 977 1508 1004.5 1477 c 128,-1,61
 1032 1446 1032 1446 1032 1402 c 0,50,51
EndSplineSet
EndChar

StartChar: aring
Encoding: 229 229 163
Width: 1095
GlyphClass: 2
Flags: W
HStem: -20 130<342.722 620.714> 0 21G<780 912.846> 1002 128<547.002 882.711> 1252 67<652.265 815.905> 1595 68<681.353 846.203>
VStem: 101 162<194.568 653.949> 556 69<1360.77 1537.12> 787 123<0 100.745> 871 69<1376.38 1553.75>
DStem2: 745.27 -20 908.994 -20 0.139173 0.990268<257.552 1001.84>
LayerCount: 2
Fore
SplineSet
1056 1026 m 1,0,-1
 910 0 l 1,1,-1
 780 0 l 1,2,-1
 787 196 l 1,3,4
 731 93 731 93 640.5 36.5 c 128,-1,5
 550 -20 550 -20 448 -20 c 0,6,7
 356 -20 356 -20 287 13.5 c 128,-1,8
 218 47 218 47 178.5 106 c 128,-1,9
 139 165 139 165 120 238.5 c 128,-1,10
 101 312 101 312 101 400 c 0,11,12
 101 496 101 496 128.5 598.5 c 128,-1,13
 156 701 156 701 209 795.5 c 128,-1,14
 262 890 262 890 333.5 965 c 128,-1,15
 405 1040 405 1040 501 1085 c 128,-1,16
 597 1130 597 1130 701 1130 c 0,17,18
 775 1130 775 1130 863.5 1104 c 128,-1,19
 952 1078 952 1078 1004 1052 c 2,20,-1
 1056 1026 l 1,0,-1
263 406 m 0,21,22
 263 248 263 248 318.5 179 c 128,-1,23
 374 110 374 110 488 110 c 0,24,25
 538 110 538 110 587 130.5 c 128,-1,26
 636 151 636 151 674.5 183 c 128,-1,27
 713 215 713 215 740.5 245 c 128,-1,28
 768 275 768 275 787 304 c 1,29,-1
 883 960 l 2,30,31
 883 961 883 961 860 971 c 128,-1,32
 837 981 837 981 794 991.5 c 128,-1,33
 751 1002 751 1002 710 1002 c 0,34,35
 595 1002 595 1002 492 920.5 c 128,-1,36
 389 839 389 839 326 700.5 c 128,-1,37
 263 562 263 562 263 406 c 0,21,22
769 1595 m 4,38,39
 714 1595 714 1595 673.5 1554 c 132,-1,40
 633 1513 633 1513 625 1457 c 4,41,42
 617 1400 617 1400 646.5 1359.5 c 132,-1,43
 676 1319 676 1319 731 1319 c 4,44,45
 784 1319 784 1319 823.5 1359.5 c 132,-1,46
 863 1400 863 1400 871 1457 c 4,47,48
 879 1515 879 1515 851 1555 c 132,-1,49
 823 1595 823 1595 769 1595 c 4,38,39
780 1663 m 4,50,51
 864 1663 864 1663 908.5 1604.5 c 132,-1,52
 953 1546 953 1546 940 1457 c 4,53,54
 928 1369 928 1369 867 1310.5 c 132,-1,55
 806 1252 806 1252 722 1252 c 4,56,57
 636 1252 636 1252 590 1311 c 132,-1,58
 544 1370 544 1370 556 1457 c 132,-1,59
 568 1544 568 1544 631 1603.5 c 132,-1,60
 694 1663 694 1663 780 1663 c 4,50,51
EndSplineSet
EndChar

StartChar: ae
Encoding: 230 230 164
Width: 1669
GlyphClass: 2
Flags: W
HStem: -23 149<310.786 589.638 1026.11 1361.76> 535 115<966 1480> 558 125<380.04 778.624> 992 142<421.846 776.35 1120.89 1438.01>
VStem: 100 172<158.57 456.148> 1491 145<650.622 937.732>
DStem2: 702.297 -23 871.578 -23 0.139173 0.990268<454.646 567.159 703.151 852.683>
LayerCount: 2
Fore
SplineSet
1636 760 m 0,0,1
 1636 661 1636 661 1606 535 c 1,2,-1
 950 535 l 1,3,4
 939 460 939 460 939 401 c 0,5,6
 939 269 939 269 997 197.5 c 128,-1,7
 1055 126 1055 126 1190 126 c 0,8,9
 1335 126 1335 126 1468 235 c 1,10,-1
 1504 99 l 1,11,12
 1429 42 1429 42 1327 9.5 c 128,-1,13
 1225 -23 1225 -23 1158 -23 c 0,14,15
 899 -23 899 -23 815 201 c 1,16,17
 740 107 740 107 629.5 42 c 128,-1,18
 519 -23 519 -23 398 -23 c 0,19,20
 254 -23 254 -23 177 46.5 c 128,-1,21
 100 116 100 116 100 250 c 0,22,23
 100 290 100 290 105 323 c 1,24,-1
 105 327 l 1,25,26
 129 497 129 497 247.5 590 c 128,-1,27
 366 683 366 683 542 683 c 0,28,29
 603 683 603 683 678 668.5 c 128,-1,30
 753 654 753 654 795 633 c 1,31,-1
 801 678 l 2,32,33
 814 772 814 772 814 824 c 0,34,35
 814 917 814 917 773.5 954.5 c 128,-1,36
 733 992 733 992 629 992 c 0,37,38
 529 992 529 992 436.5 955 c 128,-1,39
 344 918 344 918 302 887 c 1,40,-1
 259 1002 l 1,41,42
 324 1057 324 1057 439 1095.5 c 128,-1,43
 554 1134 554 1134 641 1134 c 0,44,45
 781 1134 781 1134 854 1085 c 128,-1,46
 927 1036 927 1036 942 920 c 1,47,48
 1002 1027 1002 1027 1103 1080.5 c 128,-1,49
 1204 1134 1204 1134 1314 1134 c 0,50,51
 1472 1134 1472 1134 1554 1034 c 128,-1,52
 1636 934 1636 934 1636 760 c 0,0,1
587 558 m 0,53,54
 515 558 515 558 462 546 c 128,-1,55
 409 534 409 534 364 504 c 128,-1,56
 319 474 319 474 295.5 417.5 c 128,-1,57
 272 361 272 361 272 278 c 0,58,59
 272 193 272 193 317 156 c 128,-1,60
 362 119 362 119 458 119 c 0,61,62
 585 119 585 119 742 260 c 1,63,-1
 781 537 l 1,64,65
 674 558 674 558 587 558 c 0,53,54
1484 683 m 1,66,67
 1491 729 1491 729 1491 773 c 0,68,69
 1491 843 1491 843 1472.5 891 c 128,-1,70
 1454 939 1454 939 1422.5 961.5 c 128,-1,71
 1391 984 1391 984 1360.5 993 c 128,-1,72
 1330 1002 1330 1002 1294 1002 c 0,73,74
 1257 1002 1257 1002 1221.5 994 c 128,-1,75
 1186 986 1186 986 1144 962.5 c 128,-1,76
 1102 939 1102 939 1068 902 c 128,-1,77
 1034 865 1034 865 1006 800 c 128,-1,78
 978 735 978 735 966 650 c 1,79,-1
 1480 650 l 1,80,-1
 1484 683 l 1,66,67
EndSplineSet
EndChar

StartChar: ccedilla
Encoding: 231 231 165
Width: 978
GlyphClass: 2
Flags: W
HStem: -608 114<256.373 536.464> -264 88<422 527.707> -22 132<466.039 704.384> 997 133<508.31 830.814>
VStem: 130 162<210.269 704.776> 569 123<-464.059 -305.784>
DStem2: 795 209 734 26 0.855661 0.517537<-263.247 -1.98734> 946 1020 858 928 0.719401 -0.694595<-138.283 78.4892>
LayerCount: 2
Fore
SplineSet
690 -388 m 1,0,1
 675 -492 675 -492 601 -550 c 128,-1,2
 527 -608 527 -608 424 -608 c 0,3,4
 372 -608 372 -608 327.5 -595.5 c 128,-1,5
 283 -583 283 -583 265 -570 c 1,6,-1
 246 -558 l 1,7,-1
 250 -446 l 1,8,9
 352 -494 352 -494 434 -494 c 0,10,11
 501 -494 501 -494 532.5 -461.5 c 0,12,13
 561.786 -431.284 561.786 -431.284 568 -394 c 0,14,15
 569 -388 569 -388 569 -377 c 0,16,17
 569 -355 569 -355 561.5 -339 c 128,-1,18
 554 -323 554 -323 535.5 -312 c 128,-1,19
 517 -301 517 -301 499 -293.5 c 128,-1,20
 481 -286 481 -286 445.5 -280.5 c 0,21,22
 399.473 -273.369 399.473 -273.369 385 -272 c 2,23,-1
 311 -265 l 2,24,25
 300.429 -264 300.429 -264 300 -264 c 2,26,-1
 377.607 -3.31855 l 1,27,28
 290.565 23.5372 290.565 23.5372 231 89 c 0,29,30
 130 200 130 200 130 408 c 0,31,32
 130 464 130 464 137 525.5 c 128,-1,33
 144 587 144 587 162 658.5 c 128,-1,34
 180 730 180 730 206.5 795.5 c 128,-1,35
 233 861 233 861 276.5 923 c 128,-1,36
 320 985 320 985 374.5 1030 c 128,-1,37
 429 1075 429 1075 505.5 1102.5 c 128,-1,38
 582 1130 582 1130 672 1130 c 0,39,40
 834 1130 834 1130 946 1020 c 2,41,-1
 1002 965 l 1,42,-1
 916 872 l 1,43,-1
 858 928 l 2,44,45
 834 952 834 952 816 964.5 c 128,-1,46
 798 977 798 977 760 987 c 128,-1,47
 722 997 722 997 668 997 c 0,48,49
 584 997 584 997 517 958 c 128,-1,50
 450 919 450 919 409 858.5 c 128,-1,51
 368 798 368 798 340.5 718 c 128,-1,52
 313 638 313 638 302.5 562 c 128,-1,53
 292 486 292 486 292 410 c 0,54,55
 292 110 292 110 535 110 c 0,56,57
 633 110 633 110 700 151 c 2,58,-1
 795 209 l 1,59,-1
 858 101 l 1,60,-1
 734 26 l 2,61,62
 653 -22 653 -22 512 -22 c 0,63,64
 497.695 -22 497.695 -22 483.888 -21.2989 c 1,65,66
 427.608 -155.437 427.608 -155.437 422 -176 c 1,67,68
 456 -176 456 -176 489 -180 c 128,-1,69
 522 -184 522 -184 560 -196 c 128,-1,70
 598 -208 598 -208 626 -227 c 128,-1,71
 654 -246 654 -246 673 -279.5 c 128,-1,72
 692 -313 692 -313 692 -357 c 0,73,74
 692 -366 692 -366 690 -388 c 1,0,1
EndSplineSet
EndChar

StartChar: egrave
Encoding: 232 232 166
Width: 1013
GlyphClass: 2
Flags: W
HStem: -21 131<342.284 654.765> 516 100<460 692.492> 999 131<535.295 798.833>
VStem: 91 164<200.58 515.388> 676 74<1252 1303.08> 837 142<734.121 967.277>
DStem2: 698 180 736 62 0.847349 0.531036<-201.913 126.992>
LayerCount: 2
Fore
SplineSet
476 617 m 1,0,-1
 275 616 l 1,1,2
 325 770 325 770 442 883.5 c 128,-1,3
 559 997 559 997 684 999 c 0,4,5
 763 1000 763 1000 800 964.5 c 128,-1,6
 837 929 837 929 837 870 c 0,7,8
 837 806 837 806 808.5 757 c 128,-1,9
 780 708 780 708 729 678.5 c 128,-1,10
 678 649 678 649 614.5 634 c 128,-1,11
 551 619 551 619 476 617 c 1,0,-1
460 517 m 1,12,13
 568 516 568 516 659 536 c 128,-1,14
 750 556 750 556 823 598.5 c 128,-1,15
 896 641 896 641 937.5 715.5 c 128,-1,16
 979 790 979 790 979 890 c 0,17,18
 979 989 979 989 899.5 1059.5 c 128,-1,19
 820 1130 820 1130 686 1130 c 0,20,21
 572 1130 572 1130 463.5 1073.5 c 128,-1,22
 355 1017 355 1017 273 921.5 c 128,-1,23
 191 826 191 826 141 692 c 128,-1,24
 91 558 91 558 91 412 c 0,25,26
 91 214 91 214 186.5 96.5 c 128,-1,27
 282 -21 282 -21 461 -21 c 0,28,29
 514 -21 514 -21 556.5 -14.5 c 128,-1,30
 599 -8 599 -8 636 8.5 c 128,-1,31
 673 25 673 25 687.5 33 c 128,-1,32
 702 41 702 41 736 62 c 2,33,-1
 871 148 l 1,34,-1
 804 250 l 1,35,-1
 698 180 l 1,36,37
 590 110 590 110 491 110 c 0,38,39
 354 110 354 110 293.5 206.5 c 128,-1,40
 233 303 233 303 255 516 c 1,41,-1
 460 517 l 1,12,13
750 1252 m 1,42,-1
 676 1252 l 1,43,-1
 502 1872 l 1,44,-1
 744 1872 l 1,45,-1
 750 1252 l 1,42,-1
EndSplineSet
EndChar

StartChar: eacute
Encoding: 233 233 167
Width: 1013
GlyphClass: 2
Flags: W
HStem: -21 131<342.284 654.765> 516 100<460 692.492> 999 131<535.295 798.833>
VStem: 91 164<200.58 515.388> 837 142<734.121 967.277>
DStem2: 698 180 736 62 0.847349 0.531036<-201.913 126.992>
LayerCount: 2
Fore
SplineSet
734 1252 m 1,0,-1
 652 1252 l 1,1,-1
 843 1874 l 1,2,-1
 1083 1874 l 1,3,-1
 734 1252 l 1,0,-1
476 617 m 1,4,-1
 275 616 l 1,5,6
 325 770 325 770 442 883.5 c 128,-1,7
 559 997 559 997 684 999 c 0,8,9
 763 1000 763 1000 800 964.5 c 128,-1,10
 837 929 837 929 837 870 c 0,11,12
 837 806 837 806 808.5 757 c 128,-1,13
 780 708 780 708 729 678.5 c 128,-1,14
 678 649 678 649 614.5 634 c 128,-1,15
 551 619 551 619 476 617 c 1,4,-1
460 517 m 1,16,17
 568 516 568 516 659 536 c 128,-1,18
 750 556 750 556 823 598.5 c 128,-1,19
 896 641 896 641 937.5 715.5 c 128,-1,20
 979 790 979 790 979 890 c 0,21,22
 979 989 979 989 899.5 1059.5 c 128,-1,23
 820 1130 820 1130 686 1130 c 0,24,25
 572 1130 572 1130 463.5 1073.5 c 128,-1,26
 355 1017 355 1017 273 921.5 c 128,-1,27
 191 826 191 826 141 692 c 128,-1,28
 91 558 91 558 91 412 c 0,29,30
 91 214 91 214 186.5 96.5 c 128,-1,31
 282 -21 282 -21 461 -21 c 0,32,33
 514 -21 514 -21 556.5 -14.5 c 128,-1,34
 599 -8 599 -8 636 8.5 c 128,-1,35
 673 25 673 25 687.5 33 c 128,-1,36
 702 41 702 41 736 62 c 2,37,-1
 871 148 l 1,38,-1
 804 250 l 1,39,-1
 698 180 l 1,40,41
 590 110 590 110 491 110 c 0,42,43
 354 110 354 110 293.5 206.5 c 128,-1,44
 233 303 233 303 255 516 c 1,45,-1
 460 517 l 1,16,17
EndSplineSet
EndChar

StartChar: ecircumflex
Encoding: 234 234 168
Width: 1013
GlyphClass: 2
Flags: W
HStem: -21 131<342.284 654.765> 516 100<460 692.492> 999 131<535.295 798.833>
VStem: 91 164<200.58 515.388> 837 142<734.121 967.277>
DStem2: 438 1252 596 1252 0.523918 0.851769<82.7791 454.758> 698 180 736 62 0.847349 0.531036<-201.913 126.992> 921 1582 789 1570 0.204987 -0.978765<-15.3131 308.848>
LayerCount: 2
Fore
SplineSet
476 617 m 1,0,-1
 275 616 l 1,1,2
 325 770 325 770 442 883.5 c 128,-1,3
 559 997 559 997 684 999 c 0,4,5
 763 1000 763 1000 800 964.5 c 128,-1,6
 837 929 837 929 837 870 c 0,7,8
 837 806 837 806 808.5 757 c 128,-1,9
 780 708 780 708 729 678.5 c 128,-1,10
 678 649 678 649 614.5 634 c 128,-1,11
 551 619 551 619 476 617 c 1,0,-1
460 517 m 1,12,13
 568 516 568 516 659 536 c 128,-1,14
 750 556 750 556 823 598.5 c 128,-1,15
 896 641 896 641 937.5 715.5 c 128,-1,16
 979 790 979 790 979 890 c 0,17,18
 979 989 979 989 899.5 1059.5 c 128,-1,19
 820 1130 820 1130 686 1130 c 0,20,21
 572 1130 572 1130 463.5 1073.5 c 128,-1,22
 355 1017 355 1017 273 921.5 c 128,-1,23
 191 826 191 826 141 692 c 128,-1,24
 91 558 91 558 91 412 c 0,25,26
 91 214 91 214 186.5 96.5 c 128,-1,27
 282 -21 282 -21 461 -21 c 0,28,29
 514 -21 514 -21 556.5 -14.5 c 128,-1,30
 599 -8 599 -8 636 8.5 c 128,-1,31
 673 25 673 25 687.5 33 c 128,-1,32
 702 41 702 41 736 62 c 2,33,-1
 871 148 l 1,34,-1
 804 250 l 1,35,-1
 698 180 l 1,36,37
 590 110 590 110 491 110 c 0,38,39
 354 110 354 110 293.5 206.5 c 128,-1,40
 233 303 233 303 255 516 c 1,41,-1
 460 517 l 1,12,13
877 1782 m 1,42,-1
 921 1582 l 1,43,-1
 988 1252 l 1,44,-1
 852 1252 l 1,45,-1
 806 1486 l 1,46,-1
 789 1570 l 1,47,-1
 733 1475 l 1,48,-1
 596 1252 l 1,49,-1
 438 1252 l 1,50,-1
 640 1582 l 1,51,-1
 764 1782 l 1,52,-1
 877 1782 l 1,42,-1
EndSplineSet
EndChar

StartChar: edieresis
Encoding: 235 235 169
Width: 1013
GlyphClass: 2
Flags: W
HStem: -21 131<342.284 654.765> 516 100<460 692.492> 999 131<535.295 798.833> 1254 256<449.284 596.717 867.004 1013.99>
VStem: 91 164<200.58 515.388> 407 232<1296.1 1467.96> 823 232<1294.1 1465.96> 837 142<734.121 967.277>
DStem2: 698 180 736 62 0.847349 0.531036<-201.913 126.992>
LayerCount: 2
Fore
SplineSet
476 617 m 1,0,-1
 275 616 l 1,1,2
 325 770 325 770 442 883.5 c 128,-1,3
 559 997 559 997 684 999 c 0,4,5
 763 1000 763 1000 800 964.5 c 128,-1,6
 837 929 837 929 837 870 c 0,7,8
 837 806 837 806 808.5 757 c 128,-1,9
 780 708 780 708 729 678.5 c 128,-1,10
 678 649 678 649 614.5 634 c 128,-1,11
 551 619 551 619 476 617 c 1,0,-1
460 517 m 1,12,13
 568 516 568 516 659 536 c 128,-1,14
 750 556 750 556 823 598.5 c 128,-1,15
 896 641 896 641 937.5 715.5 c 128,-1,16
 979 790 979 790 979 890 c 0,17,18
 979 989 979 989 899.5 1059.5 c 128,-1,19
 820 1130 820 1130 686 1130 c 0,20,21
 572 1130 572 1130 463.5 1073.5 c 128,-1,22
 355 1017 355 1017 273 921.5 c 128,-1,23
 191 826 191 826 141 692 c 128,-1,24
 91 558 91 558 91 412 c 0,25,26
 91 214 91 214 186.5 96.5 c 128,-1,27
 282 -21 282 -21 461 -21 c 0,28,29
 514 -21 514 -21 556.5 -14.5 c 128,-1,30
 599 -8 599 -8 636 8.5 c 128,-1,31
 673 25 673 25 687.5 33 c 128,-1,32
 702 41 702 41 736 62 c 2,33,-1
 871 148 l 1,34,-1
 804 250 l 1,35,-1
 698 180 l 1,36,37
 590 110 590 110 491 110 c 0,38,39
 354 110 354 110 293.5 206.5 c 128,-1,40
 233 303 233 303 255 516 c 1,41,-1
 460 517 l 1,12,13
639 1404 m 0,42,43
 639 1346 639 1346 598 1300 c 128,-1,44
 557 1254 557 1254 507 1254 c 0,45,46
 463 1254 463 1254 435 1285 c 128,-1,47
 407 1316 407 1316 407 1362 c 0,48,49
 407 1419 407 1419 448 1464.5 c 128,-1,50
 489 1510 489 1510 543 1510 c 0,51,52
 584 1510 584 1510 611.5 1479 c 128,-1,53
 639 1448 639 1448 639 1404 c 0,42,43
1055 1402 m 0,54,55
 1055 1344 1055 1344 1014 1298 c 128,-1,56
 973 1252 973 1252 923 1252 c 0,57,58
 879 1252 879 1252 851 1283 c 128,-1,59
 823 1314 823 1314 823 1360 c 0,60,61
 823 1417 823 1417 864 1462.5 c 128,-1,62
 905 1508 905 1508 959 1508 c 0,63,64
 1000 1508 1000 1508 1027.5 1477 c 128,-1,65
 1055 1446 1055 1446 1055 1402 c 0,54,55
EndSplineSet
EndChar

StartChar: igrave
Encoding: 236 236 170
Width: 467
GlyphClass: 2
Flags: W
HStem: 0 21G<91 255.811> 1090 20G<244.189 409>
VStem: 302 74<1252 1303.08>
DStem2: 91 0 253 0 0.139173 0.990268<22.546 1120.91>
LayerCount: 2
Fore
SplineSet
376 1252 m 1,0,-1
 302 1252 l 1,1,-1
 128 1872 l 1,2,-1
 370 1872 l 1,3,-1
 376 1252 l 1,0,-1
91 0 m 1,4,-1
 247 1110 l 1,5,-1
 409 1110 l 1,6,-1
 253 0 l 1,7,-1
 91 0 l 1,4,-1
EndSplineSet
EndChar

StartChar: iacute
Encoding: 237 237 171
Width: 539
GlyphClass: 2
Flags: W
HStem: 0 21G<111 275.811> 1090 20G<264.189 429>
VStem: 111 634
DStem2: 111 0 273 0 0.139173 0.990268<22.546 1120.91>
LayerCount: 2
Fore
SplineSet
396 1252 m 5,0,-1
 314 1252 l 5,1,-1
 505 1874 l 5,2,-1
 745 1874 l 5,3,-1
 396 1252 l 5,0,-1
111 0 m 1,4,-1
 267 1110 l 1,5,-1
 429 1110 l 1,6,-1
 273 0 l 1,7,-1
 111 0 l 1,4,-1
EndSplineSet
EndChar

StartChar: icircumflex
Encoding: 238 238 172
Width: 539
GlyphClass: 2
Flags: W
HStem: 0 21G<111 275.811> 1090 20G<264.189 429>
VStem: 95 550
DStem2: 95 1254 253 1254 0.523918 0.851769<82.7791 454.758> 111 0 273 0 0.139173 0.990268<22.546 1120.91> 578 1584 446 1572 0.204987 -0.978765<-15.3131 308.848>
LayerCount: 2
Fore
SplineSet
534 1784 m 1,0,-1
 578 1584 l 1,1,-1
 645 1254 l 1,2,-1
 509 1254 l 1,3,-1
 463 1488 l 1,4,-1
 446 1572 l 1,5,-1
 390 1477 l 1,6,-1
 253 1254 l 1,7,-1
 95 1254 l 1,8,-1
 297 1584 l 1,9,-1
 421 1784 l 1,10,-1
 534 1784 l 1,0,-1
111 0 m 1,11,-1
 267 1110 l 1,12,-1
 429 1110 l 1,13,-1
 273 0 l 1,14,-1
 111 0 l 1,11,-1
EndSplineSet
EndChar

StartChar: idieresis
Encoding: 239 239 173
Width: 467
GlyphClass: 2
Flags: W
HStem: 0 21G<91 255.811> 1090 20G<244.189 409> 1243 256<82.2844 229.717 500.004 646.992>
VStem: 40 232<1285.1 1456.96> 456 232<1283.1 1454.96>
DStem2: 91 0 253 0 0.139173 0.990268<22.546 1120.91>
LayerCount: 2
Fore
SplineSet
688 1391 m 0,0,1
 688 1333 688 1333 647 1287 c 128,-1,2
 606 1241 606 1241 556 1241 c 0,3,4
 512 1241 512 1241 484 1272 c 128,-1,5
 456 1303 456 1303 456 1349 c 0,6,7
 456 1406 456 1406 497 1451.5 c 128,-1,8
 538 1497 538 1497 592 1497 c 0,9,10
 633 1497 633 1497 660.5 1466 c 128,-1,11
 688 1435 688 1435 688 1391 c 0,0,1
272 1393 m 0,12,13
 272 1335 272 1335 231 1289 c 128,-1,14
 190 1243 190 1243 140 1243 c 0,15,16
 96 1243 96 1243 68 1274 c 128,-1,17
 40 1305 40 1305 40 1351 c 0,18,19
 40 1408 40 1408 81 1453.5 c 128,-1,20
 122 1499 122 1499 176 1499 c 0,21,22
 217 1499 217 1499 244.5 1468 c 128,-1,23
 272 1437 272 1437 272 1393 c 0,12,13
91 0 m 1,24,-1
 247 1110 l 1,25,-1
 409 1110 l 1,26,-1
 253 0 l 1,27,-1
 91 0 l 1,24,-1
EndSplineSet
EndChar

StartChar: eth
Encoding: 240 240 174
Width: 1096
GlyphClass: 2
Flags: W
HStem: -20 143<331.439 628.548> 992 142<442.996 742.754> 1558 20G<1050.22 1110.65>
VStem: 94 161<206.033 712.879> 841 176<509.309 1052.7>
DStem2: 517 1367 539 1268 0.941597 0.336741<0 199.582 375.174 613.973>
LayerCount: 2
Fore
SplineSet
835 633 m 0,0,1
 841 678 841 678 841 716 c 0,2,3
 841 779 841 779 825 828.5 c 128,-1,4
 809 878 809 878 784.5 908 c 128,-1,5
 760 938 760 938 728 957.5 c 128,-1,6
 696 977 696 977 665.5 984.5 c 128,-1,7
 635 992 635 992 605 992 c 0,8,9
 561 992 561 992 524.5 984 c 128,-1,10
 488 976 488 976 445.5 949 c 128,-1,11
 403 922 403 922 371 876 c 128,-1,12
 339 830 339 830 310.5 749.5 c 128,-1,13
 282 669 282 669 267 559 c 0,14,15
 255 468 255 468 255 408 c 0,16,17
 255 123 255 123 461 123 c 0,18,19
 562 123 562 123 633 170 c 128,-1,20
 704 217 704 217 756.5 331 c 128,-1,21
 809 445 809 445 835 633 c 0,0,1
94 411 m 0,22,23
 94 517 94 517 115 621 c 128,-1,24
 136 725 136 725 178 817.5 c 128,-1,25
 220 910 220 910 278 980.5 c 128,-1,26
 336 1051 336 1051 415.5 1092.5 c 128,-1,27
 495 1134 495 1134 585 1134 c 0,28,29
 686 1134 686 1134 764.5 1083.5 c 128,-1,30
 843 1033 843 1033 877 974 c 1,31,32
 854 1161 854 1161 757 1346 c 1,33,-1
 539 1268 l 1,34,-1
 517 1367 l 1,35,-1
 705 1434 l 1,36,37
 629 1551 629 1551 539 1631 c 1,38,-1
 626 1743 l 1,39,40
 760 1647 760 1647 855 1488 c 1,41,-1
 1106 1578 l 1,42,-1
 1129 1479 l 1,43,-1
 904 1399 l 1,44,45
 1017 1161 1017 1161 1017 874 c 0,46,47
 1017 767 1017 767 1001 656 c 0,48,49
 906 -20 906 -20 444 -20 c 0,50,51
 370 -20 370 -20 310.5 2 c 128,-1,52
 251 24 251 24 211 62.5 c 128,-1,53
 171 101 171 101 144.5 156 c 128,-1,54
 118 211 118 211 106 274 c 128,-1,55
 94 337 94 337 94 411 c 0,22,23
EndSplineSet
EndChar

